<svg width="564" height="404" viewBox="0 0 564 404" fill="none" xmlns="http://www.w3.org/2000/svg">
<g clip-path="url(#clip0_303_632)">
<path d="M115.656 398.333H49.804C48.6491 398.333 47.7129 399.327 47.7129 400.552V401.782C47.7129 403.007 48.6491 404 49.804 404H115.656C116.811 404 117.747 403.007 117.747 401.782V400.552C117.747 399.327 116.811 398.333 115.656 398.333Z" fill="#EDF0F5"/>
<path d="M532.86 398.333H514.841C513.686 398.333 512.75 399.327 512.75 400.552V401.782C512.75 403.007 513.686 404 514.841 404H532.86C534.015 404 534.952 403.007 534.952 401.782V400.552C534.952 399.327 534.015 398.333 532.86 398.333Z" fill="#EDF0F5"/>
<path d="M239.568 398.333H173.717C172.562 398.333 171.625 399.327 171.625 400.552V401.782C171.625 403.007 172.562 404 173.717 404H239.568C240.723 404 241.659 403.007 241.659 401.782V400.552C241.659 399.327 240.723 398.333 239.568 398.333Z" fill="#EDF0F5"/>
<path d="M336.249 398.333H270.397C269.242 398.333 268.306 399.327 268.306 400.552V401.782C268.306 403.007 269.242 404 270.397 404H336.249C337.404 404 338.34 403.007 338.34 401.782V400.552C338.34 399.327 337.404 398.333 336.249 398.333Z" fill="#EDF0F5"/>
<path d="M454.641 398.333H364.879C363.724 398.333 362.788 399.327 362.788 400.552V401.782C362.788 403.007 363.724 404 364.879 404H454.641C455.796 404 456.732 403.007 456.732 401.782V400.552C456.732 399.327 455.796 398.333 454.641 398.333Z" fill="#EDF0F5"/>
<path d="M137.726 86.7452C137.726 86.7452 130.772 81.7253 120.603 85.5917C110.434 89.458 108.152 103.985 110.649 115.787C113.159 127.576 99.1543 167.837 99.1543 167.837C99.1543 167.837 106.431 178.701 131.871 174.543C131.871 174.543 150.834 137.971 149.424 111.731C148.014 85.4903 137.726 86.7579 137.726 86.7579V86.7452Z" fill="#091F5B"/>
<path d="M145.756 132.114C155.315 128.869 161.17 137.312 166.643 153.031C172.116 168.75 173.968 170.321 173.968 170.321L195.106 184.735L193.349 193.139C193.349 193.139 173.227 184.785 168.364 179.461C163.5 174.15 149.508 147.212 149.508 147.212L145.768 132.114H145.756Z" fill="#FFC08D"/>
<path d="M99.1659 233.641C99.1659 233.641 95.0195 255.926 95.7006 289.468C95.7006 289.468 79.3542 315.036 92.8448 387.99H99.9187C99.9187 387.99 105.702 325.925 110.123 309.104C114.544 292.282 130.879 287.123 131.763 235.986L99.1659 233.641Z" fill="#FFD2A9"/>
<path d="M66.8199 299.165C62.7094 284.79 52.1464 260.718 25.0338 228.088C25.0338 228.088 23.4206 227.201 21.2339 228.621C18.9277 230.116 18.9277 231.878 18.9277 231.878C18.9277 231.878 32.5259 263.304 41.189 286.324C44.1046 294.069 51.1665 299.165 59.0291 299.165H66.8199Z" fill="#FFD2A9"/>
<path d="M116.182 326.965C116.182 326.965 116.277 337.689 109.646 337.867C100.278 338.133 99.931 327.307 89.3202 327.662C78.7093 328.017 56.8185 330.831 49.8521 313.236C46.2554 304.147 51.1785 292.472 39.5758 283.675C27.9732 274.877 33.6013 265.027 39.5758 259.754C45.5504 254.493 37.0068 248.725 43.2203 246.038C44.702 245.404 46.1598 245.48 47.522 245.949C48.3226 246.241 49.0635 246.659 49.7804 247.154C53.0664 249.473 55.3846 253.517 55.3846 253.517C72.9618 202.444 104.257 195.7 104.257 195.7L135.205 207.032C135.946 286.501 116.194 326.952 116.194 326.952L116.182 326.965Z" fill="#091F5B"/>
<path d="M145.756 132.114C145.756 132.114 138.539 134.7 128.262 133.04C117.986 131.379 114.652 124.547 107.435 128.945C96.5971 135.55 101.664 158.304 104.388 170.144C105.404 174.555 106.694 186.142 104.245 195.712C104.245 195.712 118.679 207.628 135.193 207.032L144.203 186.243C144.203 186.243 163.799 161.372 145.756 132.114Z" fill="#6F96D1"/>
<path d="M127.414 113.024C127.414 113.024 128.621 123.786 124.857 133.585C124.857 133.585 130.21 141.977 135.324 136.45C135.324 136.45 135.79 126.587 141.538 115.419C145.386 107.94 127.402 113.024 127.402 113.024H127.414Z" fill="#FFC08D"/>
<path d="M119.205 113.391C119.205 113.391 114.688 110.361 115.19 115.039C115.787 120.465 120.77 121.517 121.296 119.628C121.822 117.727 119.193 113.391 119.193 113.391H119.205Z" fill="#FFD2A9"/>
<path d="M145.134 107.522C145.134 107.522 148.002 102.73 149.424 107.192C151.073 112.364 146.987 115.571 145.744 114.101C144.501 112.631 145.134 107.522 145.134 107.522Z" fill="#FFD2A9"/>
<path d="M135.802 129.592C127.605 131.544 121.774 126.955 118.177 109.918C116.325 101.133 119.396 94.7314 128.585 92.551C137.774 90.3707 142.768 94.8455 144.632 103.63C148.492 121.935 144.274 127.576 135.802 129.592Z" fill="#FFD2A9"/>
<path d="M143.199 110.362C143.521 111.198 142.995 112.238 142.004 112.669C141.012 113.1 139.948 112.77 139.614 111.933C139.291 111.097 139.817 110.057 140.809 109.626C141.801 109.195 142.864 109.525 143.199 110.362Z" fill="#FFB68D"/>
<path d="M126.434 114.849C126.566 115.749 125.813 116.624 124.761 116.788C123.698 116.966 122.742 116.383 122.598 115.483C122.467 114.583 123.22 113.708 124.271 113.543C125.335 113.366 126.291 113.949 126.434 114.849Z" fill="#FFB68D"/>
<path d="M137.487 102.426C137.403 102.426 137.332 102.401 137.26 102.35C135.862 101.361 133.866 101.881 133.854 101.894C133.627 101.957 133.4 101.805 133.341 101.577C133.281 101.336 133.412 101.095 133.639 101.032C133.735 101.006 136.017 100.398 137.726 101.615C137.917 101.754 137.965 102.033 137.845 102.236C137.762 102.363 137.63 102.439 137.499 102.439L137.487 102.426Z" fill="black"/>
<path d="M122.049 106.09C121.977 106.09 121.905 106.064 121.833 106.026C121.63 105.899 121.571 105.621 121.69 105.418C122.754 103.542 125.06 103.06 125.155 103.047C125.382 103.009 125.597 103.161 125.645 103.402C125.693 103.643 125.538 103.871 125.311 103.922C125.287 103.922 123.279 104.353 122.407 105.887C122.323 106.026 122.192 106.102 122.049 106.102V106.09Z" fill="black"/>
<path d="M137.845 107.192C138.072 108.27 137.797 109.259 137.236 109.385C136.674 109.525 136.029 108.752 135.802 107.674C135.575 106.597 135.85 105.608 136.411 105.481C136.973 105.342 137.618 106.115 137.845 107.192Z" fill="black"/>
<path d="M126.458 109.791C126.685 110.869 126.41 111.857 125.849 111.984C125.287 112.124 124.642 111.35 124.415 110.273C124.188 109.195 124.462 108.207 125.024 108.08C125.586 107.94 126.231 108.714 126.458 109.791Z" fill="black"/>
<path d="M130.138 120.021C130.138 120.021 135.408 119.565 137.726 117.486C137.726 117.486 137.093 121.846 134.225 122.151C131.357 122.455 130.138 120.021 130.138 120.021Z" fill="black"/>
<path d="M134.978 107.319C134.978 107.319 135.169 104.48 136.185 104.442C137.212 104.403 138.443 106.495 138.443 106.495L139.722 105.329L138.312 105.874C138.312 105.874 137.057 103.681 136.077 103.909C134.691 104.226 134.978 107.319 134.978 107.319Z" fill="black"/>
<path d="M127.079 109.525C127.079 109.525 125.765 107.04 124.821 107.471C123.877 107.902 123.614 110.349 123.614 110.349L121.989 109.88L123.482 109.74C123.482 109.74 123.733 107.18 124.713 106.952C126.099 106.609 127.079 109.538 127.079 109.538V109.525Z" fill="black"/>
<path d="M132.791 114.988L132.373 114.139C133.054 113.759 133.114 113.239 133.042 112.884C132.946 112.364 132.552 111.959 132.265 111.933C132.098 111.933 131.954 112.073 131.847 112.377L130.999 112.047C131.357 111.008 132.05 110.957 132.325 110.97C133.042 111.033 133.747 111.781 133.926 112.681C134.105 113.619 133.687 114.481 132.791 114.988Z" fill="black"/>
<path d="M119.85 116.459C119.85 116.459 117.317 106.584 118.822 99.6118C118.822 99.6118 125.956 89.0776 139.721 94.2877C139.721 94.2877 143.808 101.26 145.827 111.021C145.827 111.021 146.341 107.509 144.967 99.7006C143.593 91.8918 137.069 87.0367 128.107 88.6086C119.157 90.1678 109.574 99.6245 119.838 116.459H119.85Z" fill="#091F5B"/>
<path d="M134.285 92.0947C134.285 92.0947 134.834 94.668 132.468 101.31C132.468 101.31 130.772 99.4217 128.776 101.31C126.781 103.199 122.742 102.565 121.368 103.58C119.994 104.594 119.994 106.926 119.994 106.926C119.994 106.926 118.799 104.023 119.994 100.55C119.994 100.55 117.305 104.175 117.663 108.638C117.663 108.638 114.019 108.016 114.186 101.64C114.354 95.2638 122.885 84.9578 132.468 85.6297C142.052 86.3015 144.322 102.388 144.322 102.388C144.322 102.388 143.45 101.665 142.076 101.982C142.076 101.982 141.86 98.5724 139.71 94.2877C139.71 94.2877 140.701 97.3808 139.71 100.727C139.71 100.727 137.045 99.2442 134.942 99.7133C134.942 99.7133 136.244 97.0132 134.273 92.1074L134.285 92.0947Z" fill="#091F5B"/>
<path d="M104.997 130.974C109.658 127.069 113.29 132.038 114.174 138.896C115.059 145.754 106.634 186.218 100.134 184.722C97.6248 184.151 96.5972 173.541 96.5972 173.541C96.5972 173.541 99.1423 162.17 100.779 145.044C101.532 137.172 102.548 133.002 104.985 130.974H104.997Z" fill="#FFD2A9"/>
<path d="M91.4351 179.005C85.1618 172.654 73.9057 151.611 71.0498 140.887L75.8175 138.858C75.8175 138.858 90.1565 160.624 96.6927 166.113C103.229 171.602 105.535 177.712 102.608 182.947C99.6919 188.183 92.7614 180.348 91.4351 179.005Z" fill="#FFD2A9"/>
<path d="M73.0093 126.854C72.6867 133.737 77.9682 135.372 75.6262 140.658C75.1362 141.749 74.4073 142.332 73.6426 142.611C72.1848 143.156 70.5717 142.636 69.4962 141.482C66.9869 138.782 63.0915 135.93 61.0243 134.675C58.6703 133.23 60.0086 132.837 60.0086 132.837C59.7816 132.723 59.5545 132.634 59.3395 132.533C57.6666 131.785 56.3163 131.506 57.5351 130.72C58.9093 129.82 63.7606 131.696 63.7606 131.696C57.4395 127.234 55.7308 128.324 56.8779 127.373C58.4552 126.08 64.4537 129.059 64.6329 129.148C61.2991 125.802 58.8734 125.041 60.1998 124.534C61.5381 124.027 68.146 129.097 70.5597 130.999C71.0974 131.43 71.432 131.696 71.432 131.696C71.3484 126.068 73.0212 126.841 73.0212 126.841L73.0093 126.854Z" fill="#FFD2A9"/>
<path d="M70.5476 130.999C71.0853 131.43 71.4199 131.696 71.4199 131.696C71.4199 131.696 70.2847 133.712 71.7545 136.323C71.7545 136.323 69.0659 134.447 70.5476 130.986V130.999Z" fill="#FFC08D"/>
<path d="M65.0032 134.954C64.4416 134.624 61.2512 132.723 59.9846 132.837C59.7576 132.723 59.5305 132.634 59.3154 132.533C60.1638 131.341 64.3699 134.472 65.0032 134.954Z" fill="#FFC08D"/>
<path d="M90.061 237.101C90.061 237.849 89.4875 238.458 88.7825 238.458C88.0775 238.458 87.5039 237.849 87.5039 237.101C87.5039 236.353 88.0775 235.745 88.7825 235.745C89.4875 235.745 90.061 236.353 90.061 237.101Z" fill="#FFF9EF"/>
<path d="M112.812 246.406C112.812 247.154 112.239 247.762 111.534 247.762C110.829 247.762 110.255 247.154 110.255 246.406C110.255 245.658 110.829 245.049 111.534 245.049C112.239 245.049 112.812 245.658 112.812 246.406Z" fill="#FFF9EF"/>
<path d="M132.194 251.4C132.194 252.148 131.62 252.757 130.915 252.757C130.21 252.757 129.637 252.148 129.637 251.4C129.637 250.652 130.21 250.044 130.915 250.044C131.62 250.044 132.194 250.652 132.194 251.4Z" fill="#FFF9EF"/>
<path d="M102.405 219.43C102.405 220.178 101.831 220.787 101.126 220.787C100.421 220.787 99.8477 220.178 99.8477 219.43C99.8477 218.682 100.421 218.074 101.126 218.074C101.831 218.074 102.405 218.682 102.405 219.43Z" fill="#FFF9EF"/>
<path d="M105.427 233.641C106.134 233.641 106.706 233.033 106.706 232.284C106.706 231.535 106.134 230.928 105.427 230.928C104.721 230.928 104.149 231.535 104.149 232.284C104.149 233.033 104.721 233.641 105.427 233.641Z" fill="#FFF9EF"/>
<path d="M126.876 239.611C126.876 240.359 126.303 240.968 125.598 240.968C124.893 240.968 124.319 240.359 124.319 239.611C124.319 238.863 124.893 238.255 125.598 238.255C126.303 238.255 126.876 238.863 126.876 239.611Z" fill="#FFF9EF"/>
<path d="M129.648 217.44C129.648 218.188 129.075 218.796 128.37 218.796C127.665 218.796 127.091 218.188 127.091 217.44C127.091 216.692 127.665 216.083 128.37 216.083C129.075 216.083 129.648 216.692 129.648 217.44Z" fill="#FFF9EF"/>
<path d="M115.155 214.182C115.861 214.182 116.433 213.575 116.433 212.826C116.433 212.077 115.861 211.469 115.155 211.469C114.448 211.469 113.876 212.077 113.876 212.826C113.876 213.575 114.448 214.182 115.155 214.182Z" fill="#FFF9EF"/>
<path d="M78.769 263.494C78.769 264.242 78.1955 264.85 77.4905 264.85C76.7855 264.85 76.2119 264.242 76.2119 263.494C76.2119 262.746 76.7855 262.137 77.4905 262.137C78.1955 262.137 78.769 262.746 78.769 263.494Z" fill="#FFF9EF"/>
<path d="M60.5942 257.738C60.5942 258.486 60.0207 259.095 59.3157 259.095C58.6107 259.095 58.0371 258.486 58.0371 257.738C58.0371 256.991 58.6107 256.382 59.3157 256.382C60.0207 256.382 60.5942 256.991 60.5942 257.738Z" fill="#FFF9EF"/>
<path d="M49.7685 247.154C49.5415 247.521 49.1472 247.762 48.6931 247.762C47.9881 247.762 47.4146 247.154 47.4146 246.406C47.4146 246.241 47.4384 246.076 47.5101 245.937C48.3107 246.228 49.0516 246.647 49.7685 247.141V247.154Z" fill="#FFF9EF"/>
<path d="M84.0149 282.496C84.721 282.496 85.2934 281.888 85.2934 281.139C85.2934 280.39 84.721 279.783 84.0149 279.783C83.3088 279.783 82.7363 280.39 82.7363 281.139C82.7363 281.888 83.3088 282.496 84.0149 282.496Z" fill="#FFF9EF"/>
<path d="M52.6601 300.306C52.6601 301.054 52.0866 301.663 51.3816 301.663C50.6766 301.663 50.103 301.054 50.103 300.306C50.103 299.558 50.6766 298.95 51.3816 298.95C52.0866 298.95 52.6601 299.558 52.6601 300.306Z" fill="#FFF9EF"/>
<path d="M64.717 290.038C65.4232 290.038 65.9956 289.431 65.9956 288.682C65.9956 287.933 65.4232 287.325 64.717 287.325C64.0109 287.325 63.4385 287.933 63.4385 288.682C63.4385 289.431 64.0109 290.038 64.717 290.038Z" fill="#FFF9EF"/>
<path d="M44.8694 279.758C45.5755 279.758 46.1479 279.15 46.1479 278.401C46.1479 277.652 45.5755 277.045 44.8694 277.045C44.1633 277.045 43.5908 277.652 43.5908 278.401C43.5908 279.15 44.1633 279.758 44.8694 279.758Z" fill="#FFF9EF"/>
<path d="M62.1597 318.903C62.1597 319.651 61.5861 320.259 60.8811 320.259C60.1761 320.259 59.6025 319.651 59.6025 318.903C59.6025 318.155 60.1761 317.546 60.8811 317.546C61.5861 317.546 62.1597 318.155 62.1597 318.903Z" fill="#FFF9EF"/>
<path d="M74.312 247.762C74.312 248.51 73.7384 249.119 73.0334 249.119C72.3284 249.119 71.7549 248.51 71.7549 247.762C71.7549 247.014 72.3284 246.406 73.0334 246.406C73.7384 246.406 74.312 247.014 74.312 247.762Z" fill="#FFF9EF"/>
<path d="M86.56 224.982C86.56 225.73 85.9865 226.339 85.2815 226.339C84.5765 226.339 84.0029 225.73 84.0029 224.982C84.0029 224.235 84.5765 223.626 85.2815 223.626C85.9865 223.626 86.56 224.235 86.56 224.982Z" fill="#FFF9EF"/>
<path d="M100.421 206.018C100.421 206.766 99.8473 207.375 99.1423 207.375C98.4373 207.375 97.8638 206.766 97.8638 206.018C97.8638 205.27 98.4373 204.662 99.1423 204.662C99.8473 204.662 100.421 205.27 100.421 206.018Z" fill="#FFF9EF"/>
<path d="M72.3286 233.64C72.3286 234.388 71.755 234.997 71.05 234.997C70.345 234.997 69.7715 234.388 69.7715 233.64C69.7715 232.893 70.345 232.284 71.05 232.284C71.755 232.284 72.3286 232.893 72.3286 233.64Z" fill="#FFF9EF"/>
<path d="M87.8384 211.469C87.8384 212.217 87.2648 212.826 86.5598 212.826C85.8548 212.826 85.2812 212.217 85.2812 211.469C85.2812 210.721 85.8548 210.113 86.5598 210.113C87.2648 210.113 87.8384 210.721 87.8384 211.469Z" fill="#FFF9EF"/>
<path d="M63.4385 272.393C63.4385 273.14 62.8649 273.749 62.1599 273.749C61.4549 273.749 60.8813 273.14 60.8813 272.393C60.8813 271.645 61.4549 271.036 62.1599 271.036C62.8649 271.036 63.4385 271.645 63.4385 272.393Z" fill="#FFF9EF"/>
<path d="M47.4145 260.439C47.4145 261.186 46.841 261.795 46.136 261.795C45.431 261.795 44.8574 261.186 44.8574 260.439C44.8574 259.691 45.431 259.082 46.136 259.082C46.841 259.082 47.4145 259.691 47.4145 260.439Z" fill="#FFF9EF"/>
<path d="M92.6062 257.739C93.3123 257.739 93.8848 257.131 93.8848 256.382C93.8848 255.633 93.3123 255.026 92.6062 255.026C91.9001 255.026 91.3276 255.633 91.3276 256.382C91.3276 257.131 91.9001 257.739 92.6062 257.739Z" fill="#FFF9EF"/>
<path d="M118.978 264.85C119.684 264.85 120.256 264.243 120.256 263.494C120.256 262.744 119.684 262.137 118.978 262.137C118.272 262.137 117.699 262.744 117.699 263.494C117.699 264.243 118.272 264.85 118.978 264.85Z" fill="#FFF9EF"/>
<path d="M118.978 224.982C118.978 225.73 118.404 226.339 117.699 226.339C116.994 226.339 116.421 225.73 116.421 224.982C116.421 224.235 116.994 223.626 117.699 223.626C118.404 223.626 118.978 224.235 118.978 224.982Z" fill="#FFF9EF"/>
<path d="M134.309 227.809C134.309 228.557 133.735 229.166 133.03 229.166C132.325 229.166 131.751 228.557 131.751 227.809C131.751 227.061 132.325 226.453 133.03 226.453C133.735 226.453 134.309 227.061 134.309 227.809Z" fill="#FFF9EF"/>
<path d="M103.683 273.749C103.683 274.497 103.11 275.105 102.405 275.105C101.7 275.105 101.126 274.497 101.126 273.749C101.126 273.001 101.7 272.393 102.405 272.393C103.11 272.393 103.683 273.001 103.683 273.749Z" fill="#FFF9EF"/>
<path d="M91.3279 299.165C92.034 299.165 92.6064 298.558 92.6064 297.809C92.6064 297.06 92.034 296.453 91.3279 296.453C90.6217 296.453 90.0493 297.06 90.0493 297.809C90.0493 298.558 90.6217 299.165 91.3279 299.165Z" fill="#FFF9EF"/>
<path d="M71.7551 303.019C72.4613 303.019 73.0337 302.412 73.0337 301.663C73.0337 300.913 72.4613 300.306 71.7551 300.306C71.049 300.306 70.4766 300.913 70.4766 301.663C70.4766 302.412 71.049 303.019 71.7551 303.019Z" fill="#FFF9EF"/>
<path d="M125.598 282.496C126.304 282.496 126.876 281.888 126.876 281.139C126.876 280.39 126.304 279.783 125.598 279.783C124.892 279.783 124.319 280.39 124.319 281.139C124.319 281.888 124.892 282.496 125.598 282.496Z" fill="#FFF9EF"/>
<path d="M109.251 291.395C109.251 292.142 108.678 292.751 107.973 292.751C107.268 292.751 106.694 292.142 106.694 291.395C106.694 290.647 107.268 290.038 107.973 290.038C108.678 290.038 109.251 290.647 109.251 291.395Z" fill="#FFF9EF"/>
<path d="M82.7363 321.603C82.7363 322.351 82.1628 322.959 81.4578 322.959C80.7528 322.959 80.1792 322.351 80.1792 321.603C80.1792 320.855 80.7528 320.246 81.4578 320.246C82.1628 320.246 82.7363 320.855 82.7363 321.603Z" fill="#FFF9EF"/>
<path d="M101.138 315.911C101.844 315.911 102.416 315.304 102.416 314.554C102.416 313.805 101.844 313.198 101.138 313.198C100.432 313.198 99.8594 313.805 99.8594 314.554C99.8594 315.304 100.432 315.911 101.138 315.911Z" fill="#FFF9EF"/>
<path d="M120.089 307.95C120.795 307.95 121.368 307.343 121.368 306.594C121.368 305.845 120.795 305.237 120.089 305.237C119.383 305.237 118.811 305.845 118.811 306.594C118.811 307.343 119.383 307.95 120.089 307.95Z" fill="#FFF9EF"/>
<path d="M112.812 329.868C112.812 330.616 112.239 331.224 111.534 331.224C110.829 331.224 110.255 330.616 110.255 329.868C110.255 329.12 110.829 328.511 111.534 328.511C112.239 328.511 112.812 329.12 112.812 329.868Z" fill="#FFF9EF"/>
<path d="M111.414 401.11H90.4671C89.1049 396.977 91.6262 392.819 91.196 389.169C90.4671 383.008 93.8487 386.405 93.8487 386.405C94.4462 379.775 103.229 378.52 103.133 381.474C102.99 385.822 103.778 388.509 104.949 390.309C107.315 393.922 111.187 393.897 111.844 396.483C111.916 396.736 111.964 396.99 111.999 397.218C112.645 400.451 111.402 401.084 111.402 401.084L111.414 401.11Z" fill="#091F5B"/>
<path d="M112.011 397.243C107.674 398.308 97.6724 396.914 97.2781 394.252C96.8957 391.666 102.285 390.449 104.961 390.335C107.327 393.948 111.199 393.922 111.856 396.508C111.928 396.762 111.976 397.015 112.011 397.243Z" fill="#6F96D1"/>
<path d="M25.2963 228.975C23.0618 226.82 19.4412 230.383 19.4412 230.383C19.4412 230.383 21.3889 233.45 20.1343 234.693C18.8796 235.935 17.4098 233.108 14.9364 234.338C14.7332 234.439 14.5301 234.566 14.327 234.705C12.3912 235.935 10.3718 238.508 8.74671 240.46C8.41213 240.853 8.10146 241.221 7.80273 241.538C5.90281 243.655 1.01561 244.884 0.0955227 239.256C-0.824562 233.628 5.15001 227.023 11.6982 220.964C18.2463 214.905 22.4882 218.505 22.4882 218.505C22.4882 218.505 23.9699 221.053 23.9699 222.637C23.9699 224.222 25.2963 225.008 26.0371 226.504C26.778 227.999 25.2963 228.963 25.2963 228.963V228.975Z" fill="#091F5B"/>
<path d="M14.3273 234.705C12.3915 235.935 10.3721 238.508 8.74701 240.46C6.29743 241.082 4.08684 240.891 3.74031 238.445C2.90387 232.538 14.0166 225.02 13.1323 229.166C12.6783 231.245 13.455 233.235 14.3273 234.693V234.705Z" fill="#6F96D1"/>
<path d="M402.232 391.501C401.205 390.931 400.249 389.663 399.388 388.066C399.388 388.066 398.648 383.337 399.388 378.368C400.129 373.399 398.086 369.343 391.454 367.809C385.002 366.326 381.178 369.621 382.672 383.375C381.692 389.092 381.489 395.608 383.723 401.11H403.571C403.571 401.11 406.701 393.986 402.232 391.501Z" fill="#EDF0F5"/>
<path d="M419.654 317.369C419.654 317.369 419.654 331.097 412.353 345.168C404.921 359.505 395.732 379.167 395.732 379.167C395.732 379.167 389.614 385.505 385.719 375.009C385.719 375.009 388.467 338.475 394.764 325.114C401.061 311.74 419.642 317.369 419.642 317.369H419.654Z" fill="#FFD2A9"/>
<path d="M514.841 272.684C514.841 272.684 526.659 325.431 534.187 339.35C534.187 339.35 532.454 345.168 524.317 346.93C524.317 346.93 498.59 306.822 496.941 289.924C495.292 273.026 514.853 272.684 514.853 272.684H514.841Z" fill="#FFD2A9"/>
<path d="M520.553 285.094C517.41 293.131 493.118 293.562 493.118 293.562L491.265 290.659L490.776 289.899L486.976 283.954C486.976 283.954 446.719 242.07 438.88 245.582H438.868C438.641 245.696 438.414 245.823 438.199 245.987C432.81 250.069 432.308 272.431 425.939 309.966C425.33 313.528 423.98 317.673 422.952 320.551C422.833 320.855 422.725 321.159 422.618 321.438C422.032 323.023 421.626 324.037 421.626 324.037C397.058 334.596 388.945 313.731 388.945 313.731C388.945 313.731 389.232 313.122 389.662 312.159C389.757 311.943 389.865 311.702 389.972 311.449C391.263 308.432 393.318 303.209 393.294 300.458C393.27 297.429 393.247 294.513 393.223 291.724C393.223 291.471 393.223 291.23 393.211 290.989C393.175 281.963 393.187 274.129 393.235 267.322V266.599C393.258 263.633 393.306 260.857 393.354 258.271V257.536C393.569 245.671 393.928 237.748 394.31 232.474C394.322 232.233 394.346 231.98 394.358 231.752C395.039 222.866 395.756 222.004 395.756 222.004L390.833 185.711H444.532C444.532 185.711 452.598 194.28 463.065 205.6C463.292 205.828 463.508 206.056 463.711 206.285C467.511 210.379 471.609 214.829 475.72 219.341C475.887 219.519 476.054 219.696 476.198 219.861C477.811 221.636 479.436 223.411 481.037 225.173C481.24 225.388 481.419 225.604 481.622 225.819C487.012 231.739 492.233 237.583 496.702 242.692C496.858 242.856 497.013 243.034 497.156 243.199C503.274 250.221 507.935 255.837 509.536 258.461C513.79 265.37 517.111 274.37 518.94 279.922C519.035 280.189 519.107 280.417 519.191 280.658C520.051 283.358 520.529 285.082 520.529 285.082L520.553 285.094Z" fill="#091F5B"/>
<path d="M403.81 227.454C401.623 230.205 398.433 231.891 394.322 232.487C394.334 232.246 394.358 231.993 394.37 231.764C398.241 231.169 401.241 229.571 403.296 226.985C406.988 222.371 406.391 216.134 406.379 216.084L407.048 215.995C407.072 216.261 407.681 222.599 403.81 227.454Z" fill="#F2F1DF"/>
<path d="M463.735 206.297C463.52 206.31 463.328 206.323 463.113 206.323C457.139 206.323 450.913 199.401 450.591 199.046L451.069 198.552C451.152 198.653 457.354 205.549 463.089 205.6C463.316 205.828 463.532 206.056 463.735 206.285V206.297Z" fill="#F2F1DF"/>
<path d="M422.964 320.563C422.845 320.868 422.737 321.172 422.63 321.451C418.651 322.997 415.006 323.631 411.672 323.631C401.061 323.631 393.713 317.115 389.674 312.171C389.769 311.956 389.877 311.715 389.985 311.462C395.147 317.876 406.176 327.345 422.964 320.551V320.563Z" fill="#F2F1DF"/>
<path d="M437.387 232.525C438.271 236.569 438.845 240.968 438.869 245.594C438.641 245.709 438.414 245.835 438.199 246C438.175 224.754 426.573 208.173 426.441 207.983L426.967 207.565C427.075 207.704 433.945 217.554 437.196 231.79C438.546 230.852 439.466 229.495 439.848 227.746C441.521 220.292 433.922 208.097 433.85 207.971L434.4 207.578C434.722 208.097 442.226 220.14 440.506 227.898C440.051 229.926 438.988 231.46 437.375 232.512L437.387 232.525Z" fill="#F2F1DF"/>
<path d="M497.18 243.224C495.209 245.506 493.345 247.445 493.177 247.61L492.819 247.99L492.652 247.483C490.047 240.258 473.33 224.615 473.163 224.463L472.959 224.26L475.744 219.367C475.911 219.544 476.078 219.722 476.222 219.887L473.892 223.994C477.142 225.185 479.448 225.401 481.073 225.185C481.276 225.401 481.455 225.616 481.658 225.832C481.109 225.933 480.535 225.984 479.926 225.984C478.432 225.984 476.712 225.654 474.788 225.046C478.588 228.671 490.381 240.27 493.082 246.735C494.133 245.633 495.46 244.187 496.738 242.704C496.894 242.869 497.049 243.047 497.192 243.211L497.18 243.224Z" fill="#F2F1DF"/>
<path d="M405.459 291.623L405.196 291.673C404.945 291.75 401.934 292.409 398.468 292.409C396.736 292.409 394.896 292.244 393.247 291.75C393.247 291.496 393.247 291.255 393.235 291.014C397.608 292.345 403.463 291.319 404.789 291.052L403.678 261.77C403.057 263.38 401.826 265.573 399.508 266.777C398.409 267.373 397.178 267.652 395.816 267.652C395.003 267.652 394.155 267.55 393.259 267.347V266.625C395.553 267.183 397.548 267.03 399.197 266.143C402.005 264.66 403.129 261.503 403.463 260.248C401.252 260.603 396.772 259.399 393.366 258.296V257.561C397.046 258.74 402.017 260.109 403.81 259.45L404.24 259.298L405.459 291.623Z" fill="#F2F1DF"/>
<path d="M519.215 280.67C515.355 284.714 507.445 290.888 495.28 290.888C493.99 290.888 492.652 290.812 491.266 290.659L490.776 289.899C505.569 291.699 514.841 284.334 518.964 279.948C519.059 280.201 519.131 280.429 519.215 280.67Z" fill="#F2F1DF"/>
<path d="M454.474 31.3997C454.474 31.3997 452.992 27.7996 446.767 27.7996C441.963 27.7996 440.123 30.6137 440.123 30.6137C437.243 39.5253 434.16 73.6631 433.049 74.8674C432.488 75.4886 396.843 100.943 396.843 100.943C416.189 101.323 428.246 126.613 428.246 126.613C428.867 118.297 450.71 85.3635 450.949 82.4353C451.391 76.8956 460.628 52.1511 454.462 31.3997H454.474Z" fill="#6F96D1"/>
<path d="M392.601 209.859C392.601 209.859 392.422 216.984 394.597 217.453C396.772 217.922 414.456 223.474 434.794 213.662C455.131 203.851 458.668 196.574 452.705 191.187C446.731 185.787 392.601 209.872 392.601 209.872V209.859Z" fill="#6F96D1"/>
<path d="M384.452 105.874C384.452 105.874 365.943 103.554 355.332 108.422C355.332 108.422 352.369 122.354 366.959 153.538C381.537 184.722 378.155 204.358 394.597 211.748C409.175 218.302 452.156 198.793 453.506 192.328C456.9 176.039 430.624 147.466 428.963 130.91C427.302 114.355 412.043 89.458 384.452 105.874Z" fill="#344EAD"/>
<path d="M355.332 108.422C342.403 113.29 327.849 128.704 327.825 136.133C327.801 143.561 339.965 146.426 339.965 146.426L359.897 136.133C359.897 136.133 365.596 131.912 361.964 119.603C358.331 107.294 355.332 108.422 355.332 108.422Z" fill="#6F96D1"/>
<path d="M408.482 122.163C404.622 122.163 399.819 120.693 396.843 118.437C395.206 117.194 394.227 115.8 394.011 114.393C393.283 109.512 397.752 107.04 397.943 106.939L398.54 108.194C398.385 108.283 394.74 110.324 395.314 114.177C395.469 115.204 396.258 116.282 397.608 117.296C400.942 119.818 406.713 121.301 410.465 120.592C412.162 120.275 413.262 119.628 413.751 118.677C414.349 117.511 413.835 116.18 413.835 116.167L415.054 115.61C415.09 115.686 415.831 117.549 414.922 119.324C414.229 120.68 412.807 121.58 410.692 121.973C410.011 122.1 409.259 122.163 408.47 122.163H408.482Z" fill="#CFD8DC"/>
<path d="M392.075 137.008C389.208 137.008 384.464 135.74 383.795 130.758C383.46 128.223 383.675 126.106 383.866 124.242C384.153 121.492 384.368 119.324 382.863 116.725C380.365 112.428 376.972 112.149 376.828 112.136L376.912 110.729C377.079 110.729 381.118 111.046 383.986 115.99C385.731 119.007 385.468 121.631 385.181 124.407C384.99 126.283 384.787 128.21 385.109 130.568C385.826 135.943 392.291 135.613 392.565 135.601L392.649 137.008C392.47 137.008 392.279 137.02 392.087 137.02L392.075 137.008Z" fill="#CFD8DC"/>
<path d="M396.102 111.743C396.102 111.743 405.889 104.67 403.571 97.0259C401.253 89.3693 369.743 89.9017 361.617 99.0542C353.492 108.207 379.194 114.279 379.194 114.279C381.19 110.019 393.904 109.55 396.114 111.756L396.102 111.743Z" fill="#6F96D1"/>
<path d="M378.513 110.552C373.865 108.878 371.117 105.329 372.108 101.222C373.1 97.1147 393.067 97.0133 396.843 100.284C400.619 103.554 395.302 116.598 378.501 110.552H378.513Z" fill="#091F5B"/>
<path d="M376.303 99.0161C376.303 99.0161 380.413 106.457 378.513 110.552C378.513 110.552 392.601 115.711 392.601 107.345C392.601 107.345 389.949 101.07 390.952 97.0259L376.303 99.0161Z" fill="#FFC08D"/>
<path d="M371.607 92.5131C371.607 92.5131 364.688 80.7493 365.321 69.518C365.644 63.9023 368.369 61.6966 368.369 61.6966C368.369 61.6966 366.17 58.4514 368.524 53.4949C368.524 53.4949 371.786 57.5006 383.233 56.233C394.274 55.0161 395.374 63.3572 395.374 63.3572C403.26 64.5995 397.943 89.9145 392.434 92.5005H371.607V92.5131Z" fill="#091F5B"/>
<path d="M368.667 81.6494C368.667 81.6494 364.688 77.4408 364.198 82.3593C363.637 88.0637 368.512 90.3582 369.468 88.5454C370.424 86.7327 368.667 81.6494 368.667 81.6494Z" fill="#FFD2A9"/>
<path d="M396.533 81.9536C396.533 81.9536 400.512 77.745 401.002 82.6635C401.563 88.3679 396.688 90.6624 395.732 88.8496C394.776 87.0369 396.533 81.9536 396.533 81.9536Z" fill="#FFD2A9"/>
<path d="M382.182 102.312C373.351 102.312 368.368 96.1894 368.368 77.8465C368.368 68.3771 372.909 62.5713 382.803 62.5713C392.697 62.5713 396.855 68.3771 396.855 77.8465C396.855 97.5584 391.311 102.312 382.182 102.312Z" fill="#FFD2A9"/>
<path d="M393.928 84.3875C394.083 85.3256 393.306 86.2636 392.195 86.4664C391.084 86.6693 390.056 86.0735 389.901 85.1354C389.746 84.1974 390.522 83.2593 391.634 83.0565C392.745 82.8536 393.772 83.4494 393.928 84.3875Z" fill="#FFB68D"/>
<path d="M375.765 84.9072C375.705 85.858 374.749 86.5679 373.626 86.4918C372.503 86.4157 371.643 85.5791 371.702 84.6284C371.762 83.6776 372.718 82.9677 373.841 83.0438C374.964 83.1199 375.825 83.9565 375.765 84.9072Z" fill="#FFB68D"/>
<path d="M390.032 74.5505C389.913 74.5759 389.793 74.5505 389.698 74.4618C388.288 73.3209 386.185 73.7265 386.149 73.7265C385.91 73.7646 385.683 73.6124 385.635 73.3462C385.587 73.0927 385.743 72.8519 385.982 72.8011C386.077 72.7758 388.515 72.3194 390.224 73.7139C390.415 73.866 390.451 74.1702 390.307 74.373C390.236 74.4744 390.128 74.5378 390.02 74.5505H390.032Z" fill="black"/>
<path d="M373.136 74.6139C373.029 74.6012 372.921 74.5378 372.85 74.4491C372.694 74.2463 372.718 73.9547 372.909 73.7899C374.582 72.3321 377.032 72.7251 377.127 72.7378C377.366 72.7758 377.534 73.0166 377.498 73.2702C377.462 73.5237 377.223 73.7012 376.996 73.6632C376.984 73.6632 374.833 73.3336 373.471 74.5125C373.375 74.6012 373.256 74.6266 373.136 74.6139Z" fill="black"/>
<path d="M389.124 79.8366C389.124 81.0028 388.634 81.9409 388.025 81.9409C387.415 81.9409 386.926 81.0028 386.926 79.8366C386.926 78.6704 387.415 77.7323 388.025 77.7323C388.634 77.7323 389.124 78.6704 389.124 79.8366Z" fill="black"/>
<path d="M377.33 79.8366C377.33 81.0028 376.84 81.9409 376.231 81.9409C375.621 81.9409 375.132 81.0028 375.132 79.8366C375.132 78.6704 375.621 77.7323 376.231 77.7323C376.84 77.7323 377.33 78.6704 377.33 79.8366Z" fill="black"/>
<path d="M371.069 64.6121C371.069 64.6121 380.473 68.2629 393.963 67.2361C393.963 67.2361 396.843 71.0391 396.497 84.4635C396.497 84.4635 404.395 60.2894 381.333 60.2894C358.271 60.2894 368.667 83.9311 368.667 83.9311C368.667 83.9311 366.779 69.1503 371.069 64.6121Z" fill="#091F5B"/>
<path d="M382.731 86.0988L382.074 85.3889L383.819 83.5508C382.122 81.0155 382.134 75.1336 382.134 74.8674H383.066C383.066 74.9308 383.066 81.2564 384.787 83.2466L385.097 83.6015L382.731 86.0988Z" fill="black"/>
<path d="M376.876 89.1539C376.876 89.1539 385.563 89.5469 389.949 88.3173C389.949 88.3173 390.725 95.0231 383.986 95.3527C376.864 95.7077 376.864 89.1539 376.864 89.1539H376.876Z" fill="black"/>
<path d="M414.014 114.507C415.675 114.177 415.508 118.779 414.014 117.448C412.521 116.117 412.353 114.836 414.014 114.507Z" fill="#CFD8DC"/>
<path d="M394.011 136.817C393.76 138.592 389.71 136.906 391.394 135.854C393.067 134.789 394.262 135.055 394.011 136.817Z" fill="#CFD8DC"/>
<path d="M376.207 146.426C376.207 146.426 373.578 153.588 373.722 157.632C373.877 161.676 375.12 161.156 375.12 161.156C375.12 161.156 373.124 161.993 372.742 164.325C372.36 166.658 377.916 168.369 378.298 168.369C378.681 168.369 382.6 166.785 382.6 166.785L383.425 153.55L379.959 151.243L376.207 146.426Z" fill="#FFC08D"/>
<path d="M378.31 145.488C378.31 145.488 383.102 148.657 384.966 150.584C386.818 152.524 385.766 167.469 384.966 168.179C384.165 168.889 378.059 170.334 376.888 169.523C375.717 168.711 377.342 164.313 377.342 164.313C377.342 164.313 380.413 163.603 379.971 164.845C379.529 166.087 379.971 167.127 379.971 167.127L381.226 166.595C381.226 166.595 380.604 163.248 381.226 160.789C381.847 158.329 376.9 155.731 376.303 151.218C375.705 146.705 378.31 145.475 378.31 145.475V145.488Z" fill="#FFD2A9"/>
<path d="M328.614 138.212C327.084 131.176 333.656 128.692 342.809 129.896C353.42 131.29 375.215 134.231 379.959 146.426C379.959 146.426 381.512 151.243 377.498 153.55C366.301 160.015 331.493 151.421 328.614 138.212Z" fill="#6F96D1"/>
<path d="M361.82 133.547C361.82 133.547 349.166 127.969 342.869 127.411C336.572 126.841 351.58 132.685 361.82 133.547Z" fill="#091F5B"/>
<path d="M456.637 12.7399C455.681 13.8935 454.104 18.381 454.104 18.381C453.434 22.1586 453.052 24.2375 451.809 25.9615C450.579 27.6982 451.224 30.7405 451.224 30.7405C451.224 30.7405 446.396 33.3773 442.334 30.1194C442.334 30.1194 442.764 27.0897 442.334 26.2404C441.497 24.5291 438.821 23.6037 437.901 20.143C436.98 16.6696 434.244 12.7906 434.244 12.7906C434.244 12.7906 435.033 10.9906 436.455 12.0807C437.901 13.1963 438.821 15.9597 439.597 16.2513C439.753 16.302 439.92 16.3527 440.075 16.3654C440.075 16.3654 440.087 16.3654 440.111 16.3781C440.709 16.4668 441.318 16.3274 441.688 15.9471C441.712 15.9344 441.76 15.909 441.784 15.8583C443.098 14.2357 443.397 9.48206 443.349 7.35241C443.266 4.39878 443.373 0.316951 445.07 1.00148C446.767 1.68601 445.213 3.33396 446.528 9.84968L447.161 9.93841C447.281 10.4074 448.452 5.98335 448.727 1.82545C448.93 -1.02676 450.686 0.0253916 451.08 0.925423C451.475 1.82545 450.877 4.66499 450.758 6.74394C450.662 8.113 450.555 9.53277 450.495 10.3694L451.236 10.8004C453.912 5.8439 453.004 3.79031 454.57 3.6889C456.123 3.58749 455.561 7.77073 454.725 9.35529C454.366 10.0398 454.02 11.4849 453.745 12.892C456.493 9.53276 456.183 7.77073 457.449 7.98623C458.752 8.21441 457.581 11.5483 456.625 12.7019L456.637 12.7399Z" fill="#FFD2A9"/>
<path d="M444.771 20.4979C443.839 17.7852 440.529 16.5429 440.111 16.4034C440.709 16.4921 441.318 16.3527 441.688 15.9724C444.939 17.5189 444.771 20.4979 444.771 20.4979Z" fill="#FFD2A9"/>
<path d="M387.152 380.472C387.152 380.472 385.312 376.492 386.949 374.793C388.586 373.082 390.51 376.251 393.306 375.554C396.102 374.844 396.747 372.74 397.476 375.617C398.205 378.495 397.321 387.52 387.152 380.485V380.472Z" fill="#EDF0F5"/>
<path d="M397.668 380.295C397.668 380.295 390.164 383.122 386.268 380.295L387.26 383.743C387.26 383.743 395.421 384.656 396.545 382.475L397.668 380.295Z" fill="#D0E4FF"/>
<path d="M397.572 384.579C397.572 384.579 390.702 383.565 387.38 385.378V387.089C387.38 387.089 396.341 384.871 399.245 387.089L397.572 384.579Z" fill="#D0E4FF"/>
<path d="M387.045 390.639C387.045 390.639 388.383 387.191 392.565 386.95C396.748 386.697 399.568 389.143 399.568 389.143C399.568 389.143 392.936 386.24 387.045 390.639Z" fill="#D0E4FF"/>
<path d="M564 342.747C550.796 361.432 532.837 365.032 532.837 365.032C527.627 360.608 527.495 355.373 527.495 355.373C527.495 355.373 522.465 350.619 521.807 348.337C521.138 346.056 526.121 339.185 529.108 339.895C531.164 340.377 532.359 342.113 532.908 343.14C530.447 337.246 532.418 335.192 535.919 335.699C539.564 336.219 536.123 337.131 538.727 340.25C538.919 340.478 539.122 340.655 539.349 340.833C539.827 341.188 540.4 341.429 541.046 341.556C541.619 341.67 542.252 341.695 542.922 341.657C543.268 341.644 543.627 341.606 543.985 341.543C544.666 341.429 545.347 341.251 546.064 341.01C547.164 340.643 548.311 340.123 549.422 339.477C553.986 336.827 555.91 335.927 559.388 336.878C562.853 337.803 562.793 340.592 562.793 340.592L564.012 342.772L564 342.747Z" fill="#EDF0F5"/>
<path d="M564 342.747C550.796 361.432 532.837 365.032 532.837 365.032C542.002 360.849 550.426 355.373 556.185 348.642C561.933 341.898 564 342.76 564 342.76V342.747Z" fill="#D0E4FF"/>
<path d="M539.337 340.82C539.815 341.175 540.389 341.416 541.034 341.543C537.545 342.291 537.294 345.599 537.294 345.599L535.812 345.092C536.135 341.125 539.086 340.846 539.337 340.833V340.82Z" fill="#D0E4FF"/>
<path d="M541.691 345.992L540.138 346.043C539.552 343.711 540.305 342.316 541.034 341.543C541.607 341.657 542.241 341.682 542.91 341.644C541.07 343.571 541.691 345.992 541.691 345.992Z" fill="#D0E4FF"/>
<path d="M545.527 345.092L543.985 345.308C543.388 343.647 543.555 342.405 543.973 341.53C544.654 341.416 545.336 341.239 546.052 340.998C544.774 343.013 545.527 345.092 545.527 345.092Z" fill="#D0E4FF"/>
<path d="M397.811 171.526C397.811 171.526 401.217 191.035 394.334 198.805C387.451 206.576 392.004 200.187 394.059 190.173C396.114 180.158 394.549 169.599 397.823 171.526H397.811Z" fill="#6F96D1"/>
<path d="M429.596 162.83C429.596 162.83 440.458 166.62 446.134 177.255C446.134 177.255 438.546 159.927 429.596 162.83Z" fill="#6F96D1"/>
<path d="M147.787 18.0387C149.233 18.064 153.427 19.8387 153.427 19.8387C156.51 21.8543 158.219 22.9445 160.262 23.122C162.305 23.3121 163.13 27.0263 163.13 27.0263C163.13 27.0263 171.16 28.8898 171.614 23.5149C171.614 23.5149 167.121 16.771 166.81 15.8583C166.177 14.0456 167.336 11.3328 165.532 8.27778C163.715 5.22274 162.855 0.469058 162.855 0.469058C162.855 0.469058 161.075 -0.126738 160.872 1.73671C160.68 3.62551 161.995 6.19883 161.672 7.01013C161.6 7.17493 161.529 7.32704 161.433 7.46648C161.433 7.46648 161.433 7.46648 161.421 7.50451C161.075 8.02425 160.573 8.41722 160.059 8.45525C160.035 8.45525 159.987 8.4806 159.94 8.46793C157.932 8.41722 154.395 5.4636 152.949 3.99312C150.942 1.95221 148.014 -0.709857 147.357 1.09021C146.7 2.89027 148.887 2.77618 152.567 8.17637L152.196 8.73413C152.435 9.13978 148.564 7.08619 145.481 4.52554C143.354 2.7635 142.9 4.85513 143.27 5.76783C143.629 6.68054 146.019 8.12566 147.548 9.41866C148.564 10.268 149.627 11.13 150.261 11.6497L150.07 12.5244C144.812 11.3075 143.987 9.20317 142.864 10.3694C141.753 11.523 145.051 13.8935 146.724 14.2991C147.441 14.4766 148.683 15.1738 149.854 15.8964C145.66 15.7949 144.633 14.3752 143.94 15.5034C143.223 16.6823 146.341 18.0007 147.787 18.026V18.0387Z" fill="#FFD2A9"/>
<path d="M161.17 13.9188C159.892 11.3708 161.254 7.92284 161.433 7.50452C161.087 8.02425 160.585 8.41722 160.071 8.45525C158.972 12.0554 161.17 13.9188 161.17 13.9188Z" fill="#FFD2A9"/>
<path d="M384.213 18.0387C382.767 18.064 378.573 19.8387 378.573 19.8387C375.49 21.8543 373.781 22.9445 371.738 23.122C369.695 23.3121 368.87 27.0263 368.87 27.0263C368.87 27.0263 360.841 28.8898 360.386 23.5149C360.386 23.5149 364.879 16.771 365.19 15.8583C365.823 14.0456 364.664 11.3328 366.469 8.27778C368.285 5.22274 369.145 0.469058 369.145 0.469058C369.145 0.469058 370.926 -0.126738 371.129 1.73671C371.32 3.62551 370.006 6.19883 370.328 7.01013C370.4 7.17493 370.472 7.32704 370.567 7.46648C370.567 7.46648 370.567 7.46648 370.579 7.50451C370.926 8.02425 371.427 8.41722 371.941 8.45525C371.965 8.45525 372.013 8.4806 372.061 8.46793C374.068 8.41722 377.605 5.4636 379.051 3.99312C381.059 1.95221 383.986 -0.709857 384.643 1.09021C385.3 2.89027 383.114 2.77618 379.433 8.17637L379.804 8.73413C379.565 9.13978 383.436 7.08619 386.519 4.52554C388.646 2.7635 389.1 4.85513 388.73 5.76783C388.371 6.68054 385.982 8.12566 384.452 9.41866C383.436 10.268 382.373 11.13 381.74 11.6497L381.931 12.5244C387.188 11.3075 388.013 9.20317 389.136 10.3694C390.247 11.523 386.949 13.8935 385.277 14.2991C384.56 14.4766 383.317 15.1738 382.146 15.8964C386.34 15.7949 387.368 14.3752 388.061 15.5034C388.778 16.6823 385.659 18.0007 384.213 18.026V18.0387Z" fill="#FFD2A9"/>
<path d="M370.83 13.9188C372.109 11.3708 370.746 7.92284 370.567 7.50452C370.914 8.02425 371.416 8.41722 371.929 8.45525C373.029 12.0554 370.83 13.9188 370.83 13.9188Z" fill="#FFD2A9"/>
<path d="M313.594 276.449L298.155 175.05L267.243 178.713L236.33 175.05L220.892 276.449L213.484 374.793C213.484 374.793 215.838 382.944 231.264 377.316C231.264 377.316 242.699 286.096 244.468 284.093C246.236 282.09 264.399 222.498 264.399 222.498H270.087C270.087 222.498 288.249 282.077 290.018 284.093C291.786 286.096 303.222 377.316 303.222 377.316C318.636 382.944 321.002 374.793 321.002 374.793L313.594 276.449Z" fill="#091F5B"/>
<path d="M257.504 76.845C259.452 78.8605 269.059 82.4987 274.138 76.845L277.579 80.4324C277.579 80.4324 273.66 90.2187 266.777 90.5609C259.894 90.9032 254.923 81.8522 254.923 81.8522L257.516 76.845H257.504Z" fill="#091F5B"/>
<path d="M284.713 75.7421C296.208 70.494 333.358 56.5372 333.358 56.5372C333.358 56.5372 358.331 23.3501 363.422 18.4189C363.422 18.4189 368.954 19.4711 370.567 26.7728C370.567 26.7728 354.484 63.2938 345.749 73.7519C337.014 84.21 292.742 106.825 292.742 106.825L284.725 75.7421H284.713Z" fill="#091F5B"/>
<path d="M244.468 74.9942C247.885 72.6997 265.056 84.8818 265.056 84.8818C265.056 84.8818 287.377 72.3067 292.623 74.7406C292.623 74.7406 297.343 81.4465 299.243 98.6739C301.143 115.901 301.262 186.826 301.262 186.826C301.262 186.826 286.254 192.455 265.952 192.455C242.807 192.455 230.356 185.419 230.356 185.419C230.356 185.419 226.222 87.227 244.468 74.9942Z" fill="#F2F1DF"/>
<path d="M258.413 73.1434C258.413 73.1434 260.886 81.3958 258.413 84.5776C258.413 84.5776 260.982 90.2947 265.594 90.5483C270.923 90.8398 272.775 84.5776 272.775 84.5776C272.775 84.5776 269.955 76.6041 272.775 73.8026L258.413 73.1434Z" fill="#FFC08D"/>
<path d="M252.247 65.0304C252.247 65.0304 247.049 54.4075 248.076 43.0494C249.104 31.6912 265.235 29.0926 276.097 34.6702C276.097 34.6702 272.871 31.3236 274.138 30.3982C275.404 29.4728 277.579 35.4181 277.579 35.4181C277.579 35.4181 281.008 34.3026 281.534 35.4181C282.06 36.5337 278.021 37.1421 278.021 37.1421C278.021 37.1421 285.035 41.262 278.487 63.2304L252.259 65.0304H252.247Z" fill="black"/>
<path d="M251.47 58.2992C251.47 58.2992 247.586 54.192 247.109 58.9964C246.559 64.5614 251.315 66.8051 252.247 65.0304C253.179 63.2557 251.458 58.2992 251.458 58.2992H251.47Z" fill="#FFD2A9"/>
<path d="M278.642 58.5908C278.642 58.5908 282.526 54.4836 283.004 59.288C283.553 64.853 278.798 67.0968 277.866 65.322C276.934 63.5473 278.654 58.5908 278.654 58.5908H278.642Z" fill="#FFD2A9"/>
<path d="M264.65 78.4548C256.046 78.4548 251.183 72.4842 251.183 54.5976C251.183 45.3692 255.604 39.7028 265.247 39.7028C274.89 39.7028 278.953 45.3692 278.953 54.5976C278.953 73.8279 273.54 78.4548 264.65 78.4548Z" fill="#FFD2A9"/>
<path d="M276.097 60.974C276.252 61.8867 275.488 62.7994 274.412 63.0022C273.337 63.2051 272.333 62.6219 272.178 61.6966C272.022 60.7838 272.787 59.8711 273.863 59.6683C274.95 59.4655 275.942 60.0486 276.097 60.974Z" fill="#FFB68D"/>
<path d="M258.389 61.4683C258.329 62.3937 257.397 63.0909 256.297 63.0148C255.198 62.9388 254.362 62.1275 254.421 61.1894C254.481 60.264 255.413 59.5668 256.513 59.6429C257.612 59.7189 258.448 60.5302 258.389 61.4683Z" fill="#FFB68D"/>
<path d="M272.166 51.6821C272.047 51.6821 271.939 51.6314 271.855 51.5426C270.66 50.2116 268.569 50.275 268.545 50.275C268.318 50.275 268.115 50.0848 268.103 49.8313C268.103 49.5778 268.283 49.3749 268.521 49.3623C268.617 49.3623 271.031 49.2989 272.489 50.9215C272.656 51.099 272.644 51.3905 272.477 51.568C272.393 51.6567 272.285 51.6947 272.178 51.6947L272.166 51.6821Z" fill="black"/>
<path d="M255.951 51.6821C255.843 51.6821 255.736 51.644 255.652 51.5553C255.485 51.3778 255.473 51.0989 255.64 50.9088C257.098 49.2862 259.512 49.3496 259.607 49.3496C259.846 49.3496 260.025 49.5651 260.025 49.8186C260.025 50.0721 259.81 50.2623 259.583 50.2623C259.571 50.2623 257.456 50.2116 256.273 51.5299C256.19 51.6187 256.07 51.6694 255.963 51.6694L255.951 51.6821Z" fill="black"/>
<path d="M271.413 56.5371C271.413 57.6653 270.935 58.5907 270.338 58.5907C269.74 58.5907 269.262 57.6653 269.262 56.5371C269.262 55.4089 269.74 54.4835 270.338 54.4835C270.935 54.4835 271.413 55.4089 271.413 56.5371Z" fill="black"/>
<path d="M259.918 56.5371C259.918 57.6653 259.44 58.5907 258.843 58.5907C258.245 58.5907 257.767 57.6653 257.767 56.5371C257.767 55.4089 258.245 54.4835 258.843 54.4835C259.44 54.4835 259.918 55.4089 259.918 56.5371Z" fill="black"/>
<path d="M259.918 68.6685C259.918 68.6685 267.506 69.708 271.413 67.7178C271.413 67.7178 269.202 73.2067 265.056 72.7123C260.91 72.2179 259.918 68.6685 259.918 68.6685Z" fill="black"/>
<path d="M278.057 60.619C278.057 60.619 277.794 50.6806 274.138 43.0494C274.138 43.0494 267.709 46.2058 266.299 45.4579C264.889 44.71 267.649 43.0494 267.649 43.0494C267.649 43.0494 257.05 46.7636 256.405 46.0157C255.772 45.2678 259.918 43.0494 259.918 43.0494L253.31 45.4579C253.31 45.4579 251.279 54.3949 252.115 60.619C252.115 60.619 249.271 55.4216 248.925 51.8342C248.578 48.2467 250.06 38.0168 260.014 37.2689C269.967 36.521 275.548 38.9168 278.021 43.7719C280.483 48.6144 280.184 54.585 278.057 60.619Z" fill="black"/>
<path d="M266.144 65.8036C265.307 65.8036 264.459 65.5754 264.196 65.4994L264.435 64.5613C265.343 64.8275 266.753 64.9797 267.064 64.5994C267.171 64.4599 267.123 64.1557 266.944 63.75C265.701 60.9485 265.439 53.837 265.427 53.5328L266.347 53.4948C266.347 53.5708 266.61 60.7077 267.769 63.3317C268.127 64.1303 268.115 64.7768 267.769 65.2205C267.422 65.6642 266.777 65.8036 266.144 65.8036Z" fill="black"/>
<path d="M275.667 79.4689C275.667 79.4689 291.249 130.783 292.73 172.54C292.73 172.54 298.358 174.188 304.691 165.035C311.025 155.883 307.261 83.424 295.12 71.356C295.12 71.356 289.612 70.025 275.667 79.4689Z" fill="#344EAD"/>
<path d="M278.212 88.444C278.212 88.444 280.996 81.5733 279.766 76.8577C278.535 72.142 274.149 76.8577 274.149 76.8577C274.149 76.8577 275.918 84.5777 278.224 88.444H278.212Z" fill="#0C476B"/>
<path d="M246.929 75.7421C235.434 70.494 198.284 56.5372 198.284 56.5372C198.284 56.5372 173.251 22.374 168.16 17.4556C168.16 17.4556 161.863 21.2332 161.433 29.0672C161.433 29.0672 177.158 63.3065 185.905 73.7646C194.652 84.2227 238.911 106.838 238.911 106.838L246.929 75.7548V75.7421Z" fill="#091F5B"/>
<path d="M255.975 79.4689C255.975 79.4689 240.393 130.783 238.911 172.54C238.911 172.54 233.283 174.188 226.95 165.035C220.617 155.883 224.381 83.424 236.522 71.356C236.522 71.356 242.03 70.025 255.975 79.4689Z" fill="#344EAD"/>
<path d="M253.442 88.444C253.442 88.444 250.657 81.5733 251.888 76.8577C253.119 72.142 257.504 76.8577 257.504 76.8577C257.504 76.8577 255.736 84.5777 253.43 88.444H253.442Z" fill="#091F5B"/>
<path d="M334.756 401.236H303.819C301.657 388.192 305.11 375.123 305.11 375.123L319.258 372.55C320.548 380.802 322.102 384.047 324.24 385.72H324.252C325.818 386.925 327.694 387.33 330.024 388.18C332.688 389.168 334.098 390.956 334.803 392.895C336.202 396.749 334.768 401.224 334.768 401.224L334.756 401.236Z" fill="#344EAD"/>
<path d="M334.792 392.908C327.168 393.922 310.403 395.646 311.431 390.969C312.279 387.052 319.353 385.999 324.228 385.733H324.24C325.806 386.937 327.682 387.343 330.012 388.192C332.677 389.181 334.087 390.969 334.792 392.908Z" fill="#F2F1DF"/>
<path d="M231.145 401.236H200.208C200.208 401.236 199.229 398.169 199.683 394.911C200.053 392.261 201.379 389.498 204.952 388.18C207.629 387.191 209.684 386.823 211.369 385.15C213.197 383.325 214.571 379.94 215.718 372.537L229.866 375.11C229.866 375.11 233.308 388.167 231.157 401.224L231.145 401.236Z" fill="#344EAD"/>
<path d="M199.671 394.911C200.041 392.261 201.368 389.498 204.94 388.18C207.617 387.191 209.672 386.823 211.357 385.15C215.276 386.43 220.749 388.775 222.446 392.337C224.812 397.218 206.721 396.445 199.671 394.898V394.911Z" fill="#F2F1DF"/>
<path d="M453.004 398.765C453.004 400.146 452.873 401.11 452.873 401.11H415.293C415.293 400.324 415.305 399.538 415.341 398.765C415.771 388.332 418.866 379.281 418.866 379.281L428.258 374.996C429.07 380.13 431.149 383.413 433.766 385.556C434.459 386.139 435.176 386.608 435.917 387.013C436.263 387.216 436.61 387.394 436.969 387.559C437.757 387.939 438.558 388.243 439.37 388.497C442.692 389.561 446.038 389.79 448.392 390.17C452.395 390.829 453.004 395.747 453.004 398.739V398.765Z" fill="#091F5B"/>
<path d="M453.004 398.765C453.004 400.146 452.873 401.11 452.873 401.11H415.293C415.293 400.324 415.305 399.538 415.341 398.765H453.004Z" fill="#BAD6EB"/>
<path d="M435.917 387.026L430.707 388.801L429.608 386.773L433.778 385.568C434.471 386.151 435.188 386.621 435.929 387.026H435.917Z" fill="#BAD6EB"/>
<path d="M439.358 388.522L435.845 390.994L433.682 390.094L436.956 387.571C437.745 387.951 438.546 388.256 439.358 388.509V388.522Z" fill="#BAD6EB"/>
<path d="M309.399 398.765C309.304 400.121 308.969 401.11 308.969 401.11H283.936C283.613 400.337 283.386 399.563 283.231 398.765C280.769 386.05 297.402 370.509 297.402 370.509L302.684 377.988C302.684 377.988 302.075 389.955 306.544 392.439C309.22 393.935 309.567 396.749 309.399 398.777V398.765Z" fill="#091F5B"/>
<path d="M283.243 398.765H309.399C309.304 400.121 308.969 401.11 308.969 401.11H283.936C283.613 400.337 283.386 399.563 283.231 398.765H283.243Z" fill="#BAD6EB"/>
<path d="M305.408 391.476C305.408 391.476 294.857 388.928 290.054 392.224V390.373C290.054 390.373 298.92 385.797 305.408 391.463V391.476Z" fill="#BAD6EB"/>
<path d="M303.317 388.636C303.317 388.636 296.578 385.366 290.054 388.636L290.795 386.773C290.795 386.773 298.597 383.642 303.317 388.636Z" fill="#BAD6EB"/>
<path d="M441.664 285.779C441.676 296.465 432.738 383.553 432.738 383.553C423.8 384.491 416.631 382.589 416.631 382.589C414.181 338.45 413.942 300.496 413.942 300.496L371.093 266.422L370.985 266.333C370.985 266.333 370.83 267.107 370.531 268.488C368.404 278.477 359.43 320.335 355.69 329.919C351.436 340.846 304.871 386.773 304.871 386.773C296.219 385.505 288.883 378.863 288.883 378.863C305.599 349.453 328.386 319.942 328.386 319.942C330.167 309.345 331.434 285.766 332.198 268.146C332.21 267.88 332.222 267.601 332.234 267.335C332.736 255.406 332.987 246.393 332.987 246.393L325.136 229.305L375.036 209.859L386.22 225.046C386.22 225.046 388.777 227.569 392.816 231.587C393.007 231.764 393.187 231.955 393.378 232.132C408.35 247.116 441.676 280.987 441.676 285.766L441.664 285.779Z" fill="#6F96D1"/>
<path d="M332.187 268.159C332.198 267.892 332.21 267.614 332.222 267.347C342.726 261.301 340.969 251.641 340.933 251.54L341.579 251.4C341.602 251.502 343.49 261.871 332.175 268.159H332.187Z" fill="#606060"/>
<path d="M370.316 259.602C370.675 261.719 370.938 263.988 371.081 266.422L370.973 266.333C370.973 266.333 370.818 267.107 370.519 268.488C370.053 251.933 363.625 242.159 363.541 242.045L364.091 241.639C364.162 241.728 368.213 247.94 370.185 258.791C377.772 251.641 370.34 236.987 370.268 236.848L370.854 236.505C370.938 236.658 378.8 252.174 370.328 259.589L370.316 259.602Z" fill="#606060"/>
<path d="M393.354 232.145C393.354 232.145 393.318 232.157 393.306 232.17C392.996 232.297 392.637 232.348 392.267 232.348C388.587 232.348 382.421 226.884 382.134 226.618L382.576 226.085C384.584 227.886 390.164 232.208 392.805 231.587C392.996 231.765 393.175 231.955 393.366 232.132L393.354 232.145Z" fill="#606060"/>
<path d="M328.614 138.212C328.614 138.212 343.789 135.626 351.401 140.76C359.012 145.894 368.99 159.331 368.99 159.331C368.99 159.331 357.136 160.992 355.798 169.535C355.798 169.535 347.182 147.783 328.625 138.212H328.614Z" fill="#BAD6EB"/>
<path d="M305.791 146.604C299.374 150.28 288.644 164.11 288.154 172.616C287.676 180.906 293.471 188.538 297.379 195.015C309.555 215.247 322.388 233.121 327.837 256.851C327.873 257.003 355.69 268.716 388.347 227.074C388.347 227.074 369.898 200.732 363.517 178.308C360.924 169.181 358.283 159.483 353.301 151.446C347.816 142.585 338.412 137.375 328.626 138.212C320.345 138.922 312.124 142.978 305.791 146.604Z" fill="#EDF0F5"/>
<path d="M303.09 138.123C303.09 138.123 307.201 145.564 305.301 149.659C305.301 149.659 319.389 154.818 319.389 146.452C319.389 146.452 316.736 140.177 317.728 136.133L303.078 138.123H303.09Z" fill="#FFC08D"/>
<path d="M334.409 189.095C334.409 189.095 326.57 191.453 324.599 194.407C322.615 197.348 320.859 203.952 320.859 203.952H334.409L336.954 198.983L339.941 192.353L334.409 189.108V189.095Z" fill="#FFC08D"/>
<path d="M321.444 129.82C321.444 129.82 326.953 127.373 323.392 109.816C321.038 98.1795 317.632 96.4428 315.446 96.3414C315.446 96.3414 312.757 92.044 303.437 94.0976C297.056 95.5047 291.966 99.6119 289.719 107.23C287.377 115.166 292.061 132.191 298.227 133.889L321.456 129.82H321.444Z" fill="#6F96D1"/>
<path d="M322.747 117.955C322.747 117.955 326.212 112.834 327.526 117.879C329.044 123.723 324.324 127.019 323.033 125.295C321.743 123.571 322.747 117.955 322.747 117.955Z" fill="#FFD2A9"/>
<path d="M293.734 123.355C293.734 123.355 288.895 119.691 289.193 124.914C289.528 130.974 295.001 132.469 295.694 130.403C296.399 128.337 293.734 123.355 293.734 123.355Z" fill="#FFD2A9"/>
<path d="M312.004 141.977C321.217 140.367 325.423 133.078 322.448 113.936C320.918 104.061 315.231 98.8387 304.918 100.639C294.606 102.439 291.201 109.259 292.73 119.134C295.933 139.708 302.493 143.65 312.004 141.977Z" fill="#FFD2A9"/>
<path d="M296.841 125.421C296.841 126.435 297.797 127.259 298.98 127.272C300.175 127.272 301.143 126.473 301.154 125.459C301.154 124.445 300.21 123.621 299.016 123.609C297.821 123.609 296.853 124.407 296.841 125.421Z" fill="#FFB68D"/>
<path d="M315.876 122.645C316.091 123.634 317.202 124.192 318.361 123.913C319.52 123.621 320.285 122.594 320.07 121.618C319.855 120.63 318.744 120.072 317.573 120.351C316.414 120.642 315.649 121.669 315.864 122.645H315.876Z" fill="#FFB68D"/>
<path d="M299.434 114.76C299.338 114.76 299.255 114.735 299.171 114.672C298.956 114.52 298.908 114.215 299.051 113.987C300.342 111.984 302.923 111.604 303.031 111.579C303.305 111.541 303.52 111.731 303.556 112.01C303.592 112.276 303.413 112.529 303.162 112.567C303.138 112.567 300.88 112.91 299.828 114.545C299.733 114.684 299.589 114.76 299.446 114.76H299.434Z" fill="black"/>
<path d="M316.772 111.731C316.676 111.731 316.581 111.693 316.485 111.629C314.991 110.438 312.757 110.881 312.733 110.894C312.482 110.957 312.231 110.767 312.183 110.501C312.136 110.235 312.303 109.969 312.554 109.918C312.661 109.893 315.23 109.373 317.047 110.843C317.25 111.008 317.298 111.312 317.142 111.541C317.047 111.667 316.915 111.743 316.772 111.743V111.731Z" fill="black"/>
<path d="M301.119 119.806C301.31 121.023 301.979 121.91 302.612 121.796C303.246 121.682 303.604 120.617 303.425 119.4C303.234 118.183 302.564 117.296 301.931 117.41C301.298 117.524 300.939 118.589 301.119 119.806Z" fill="black"/>
<path d="M313.414 117.651C313.605 118.868 314.275 119.755 314.908 119.641C315.541 119.527 315.9 118.462 315.72 117.245C315.529 116.028 314.86 115.141 314.227 115.255C313.594 115.369 313.235 116.434 313.414 117.651Z" fill="black"/>
<path d="M316.868 128.667C316.868 128.667 308.874 130.936 304.452 130.036C304.452 130.036 307.511 134.13 311.885 132.951C316.258 131.772 316.868 128.667 316.868 128.667Z" fill="black"/>
<path d="M317.238 105.05C317.238 105.05 306.842 113.036 293.794 113.645L294.164 125.966C294.164 125.966 282 102.198 306.054 97.9767C330.107 93.7681 323.105 120.325 323.105 120.325C323.105 120.325 322.364 108.878 317.238 105.05Z" fill="#6F96D1"/>
<path d="M308.742 125.358L308.67 124.293C308.67 124.293 310.069 124.179 310.427 123.266C310.57 122.886 309.985 121.694 309.459 120.642C308.73 119.172 307.834 117.346 307.452 115.331L308.443 115.115C308.802 116.991 309.662 118.741 310.355 120.148C311.132 121.707 311.682 122.848 311.359 123.685C310.762 125.206 308.814 125.358 308.73 125.358H308.742Z" fill="black"/>
<path d="M322.878 105.076C305.396 97.0259 288.895 113.721 288.895 113.721C288.895 113.721 286.971 100.195 290.341 97.0259C291.213 96.1893 292.157 95.4667 293.137 94.8202C300.856 89.6609 311.12 89.7496 315.84 91.5243C316.808 91.892 317.549 92.323 317.979 92.792C320.763 95.8597 322.89 105.076 322.89 105.076H322.878Z" fill="#091F5B"/>
<path d="M320.763 102.071C320.763 102.071 306.077 98.9908 292.384 108.6C292.384 108.6 291.511 99.8782 293.137 94.8202C300.856 89.6609 311.12 89.7496 315.84 91.5243C318.588 94.8456 320.763 102.071 320.763 102.071Z" fill="#F2F1DF"/>
<path d="M290.341 112.136C290.341 112.136 292.671 101.653 295.801 98.6865C301.023 93.768 315.685 92.0821 323.38 95.0357C331.075 97.9893 323.38 106.926 323.38 106.926C323.38 106.926 311.096 97.5963 290.329 112.136H290.341Z" fill="#091F5B"/>
<path d="M313.02 181.832C313.02 181.832 319.018 191.694 329.247 197.5C329.247 197.5 342.032 185.723 358.618 186.788C358.618 186.788 344.876 213.092 333.071 216.007C326.869 217.541 304.452 201.784 304.452 201.784C304.452 201.784 308.933 185.039 313.02 181.844V181.832Z" fill="#FFD2A9"/>
<path d="M290.914 163.958C296.411 154.476 309.077 168.496 313.39 178.51C317.704 188.525 320.847 190.655 320.847 190.655C320.847 190.655 308.18 196.27 308.276 206.335C308.276 206.335 278.929 184.671 290.914 163.971V163.958Z" fill="#BAD6EB"/>
<path d="M329.235 193.165C329.235 193.165 336.942 185.14 362.31 174.657L359.036 163.73C361.94 159.673 367.293 159.673 367.293 159.673C367.293 159.673 380.282 179.132 378.047 184.95C376.649 188.576 349.548 192.391 329.235 193.165Z" fill="#FFC08D"/>
<path d="M357.017 177.281C357.017 177.281 357.22 176.127 358.152 174.733C359.084 173.326 358.833 170.778 359.168 169.979C359.502 169.193 361.498 165.948 362.824 165.327C364.151 164.693 365.883 163.666 366.254 165.454C366.624 167.241 363.888 166.734 362.657 169.295C362.657 169.295 365.345 168.369 367.484 168.902C369.623 169.434 370.221 171.513 367.592 171.437C365.489 171.386 362.776 172.971 362.776 172.971C362.776 172.971 365.525 173.414 365.083 174.746C364.473 176.596 361.127 175.455 357.029 177.268L357.017 177.281Z" fill="#FFD2A9"/>
<path d="M169.463 213.929C171.733 220.089 181.018 230.636 181.018 230.636C181.018 230.636 203.697 216.21 214.165 222.282C224.632 228.354 232.949 232.056 239.736 229.407C246.523 226.757 217.415 170.613 217.415 170.613L179.679 155.338C179.679 155.338 178.855 165.466 174.541 167.266C170.228 169.066 165.627 185.774 165.938 188.943C166.248 192.112 169.451 213.929 169.451 213.929H169.463Z" fill="#0D1242"/>
<path d="M211.918 231.004C211.918 231.004 202.192 251.236 182.105 277.146C182.105 277.146 180.05 307.963 126.924 356.45L121.368 351.811C121.368 351.811 152.997 299.241 159.33 283.117C165.663 266.992 155.829 252.224 184.937 211.457L211.918 230.991V231.004Z" fill="#FFC08D"/>
<path d="M180.946 195.205C172.57 212.23 169.761 233.983 169.761 233.983L165.95 244.187C165.95 244.187 179.476 251.933 195.106 254.747L201.367 237.152L180.946 195.205Z" fill="#BAD6EB"/>
<path d="M224.632 229.419C224.632 229.419 228.778 251.704 228.097 285.246C228.097 285.246 244.444 310.815 230.953 383.768H223.879C223.879 383.768 218.096 321.704 213.675 304.882C209.253 288.061 192.919 282.901 192.035 231.764L224.632 229.419Z" fill="#FFD2A9"/>
<path d="M228.778 253.34C228.778 253.34 215.467 255.875 192.035 254.709L191.664 251.907L191.569 251.185L189.143 233.057C189.143 233.057 186.885 230.104 184.567 225.287C184.292 224.729 184.017 224.146 183.754 223.537C180.599 216.401 177.791 206.031 180.946 195.205L185.893 195.446L186.586 195.484L203.148 196.283L203.853 196.321L209.289 196.587L210.138 196.625L213.663 196.79C213.663 196.79 231.598 213.916 228.396 245.582L228.623 249.993L228.647 250.716L228.778 253.315V253.34Z" fill="#D0E4FF"/>
<path d="M186.586 195.497C186.12 196.942 182.989 207.704 184.566 225.287C184.292 224.729 184.017 224.146 183.754 223.537C182.571 207.451 185.295 197.411 185.893 195.446C185.976 195.205 186.012 195.091 186.012 195.079L186.634 195.319C186.634 195.319 186.61 195.396 186.586 195.484V195.497Z" fill="#FFF9EF"/>
<path d="M228.647 250.728C223.939 252.009 215.945 252.364 208.357 252.364C201.546 252.364 195.094 252.072 191.652 251.895L191.557 251.172C197.507 251.476 213.197 252.135 223.306 250.957L222.66 239.624C222.816 226.402 219.052 215.12 215.419 207.324C206.206 205.549 203.673 198.311 203.135 196.27C203.052 195.941 203.016 195.75 203.016 195.738L203.661 195.624C203.661 195.624 203.709 195.89 203.828 196.308C204.426 198.425 206.887 204.713 215.025 206.513C212.575 201.429 210.245 197.956 209.265 196.574C208.979 196.156 208.787 195.915 208.775 195.903L209.277 195.446C209.277 195.446 209.612 195.865 210.114 196.612C213.197 201.049 223.58 217.719 223.317 239.586L223.963 250.855C225.731 250.627 227.309 250.348 228.611 249.98L228.635 250.703L228.647 250.728Z" fill="#FFF9EF"/>
<path d="M194.759 118.842C189.478 115.762 151.432 131.582 151.432 131.582C151.432 131.582 145.804 142.23 149.317 146.414C152.83 150.584 165.281 148.746 169.092 146.414C172.904 144.081 183.013 142.306 183.013 142.306L194.771 118.829L194.759 118.842Z" fill="#8BBDDB"/>
<path d="M228.396 85.2368C228.396 85.2368 236.259 88.4566 239.127 98.0654C242.006 107.674 233.403 131.988 236.378 143.168C239.354 154.349 238.888 175.455 229.615 179.918C220.343 184.38 201.308 176.393 197.221 164.199C193.134 152.004 194.903 105.785 202.753 90.0792C210.604 74.3603 226.508 82.2831 228.396 85.2368Z" fill="#F2F1DF"/>
<path d="M219.374 126.689C221.441 129.059 226.783 124.838 226.783 124.838C226.783 124.838 226.675 145.805 220.928 147.402C215.18 149.012 200.542 130.885 201.152 125.966C201.761 121.048 214.786 121.428 219.374 126.689Z" fill="#8BBDDB"/>
<path d="M197.233 121.453C197.233 121.453 203.04 126.689 213.161 129.173C223.282 131.658 228.767 126.613 233.94 133.534C241.707 143.929 229.065 163.083 222.422 173.009C219.948 176.71 214.714 186.978 213.651 196.815C213.651 196.815 196.086 202.228 180.946 195.205L179.811 172.35C179.811 172.35 170.263 141.546 197.221 121.453H197.233Z" fill="#091F5B"/>
<path d="M215.384 143.688C215.384 143.688 223.401 123.406 225.732 122.113C228.05 120.82 233.953 123.925 235.135 126.702C236.318 129.478 235.135 135.524 235.135 135.524C235.135 135.524 228.802 127.868 215.384 143.688Z" fill="#8BBDDB"/>
<path d="M253.812 229.407C250.167 237.329 241.206 239.611 241.206 239.611C241.206 239.611 240.524 238.508 239.389 236.543C239.27 236.341 239.138 236.125 239.019 235.897C231.969 223.778 210.448 185.001 210.867 164.832C211.357 140.734 226.173 127.513 226.173 127.513C233.701 129.414 236.067 131.595 236.067 131.595C236.067 131.595 238.601 145.298 236.282 161.803C233.964 178.282 229.746 182.643 231.861 183.885C233.976 185.115 231.861 187.574 231.861 187.574C231.861 187.574 244.348 206.031 246.678 211.773C248.196 215.513 250.765 221.877 252.366 225.844C252.474 226.123 252.581 226.402 252.689 226.656C253.37 228.329 253.8 229.419 253.8 229.419L253.812 229.407Z" fill="#344EAD"/>
<path d="M232.136 131.595C232.136 131.595 223.198 138.63 228.408 149.367L253.179 176.584C239.58 191.96 238.23 198.273 228.408 205.359L232.136 211.495C232.136 211.495 266.562 183.429 266.609 176.596C266.633 173.668 245.579 138.301 232.136 131.62V131.595Z" fill="#FFD2A9"/>
<path d="M227.858 205.347C227.858 205.347 223.138 205.904 220.163 206.69C217.188 207.476 213.221 208.262 213.101 208.921C212.982 209.581 219.673 208.921 219.673 208.921C219.673 208.921 214.224 211.292 214.093 212.217C213.973 213.13 221.035 211.558 221.035 211.558C221.035 211.558 216.578 214.448 216.817 215.234C217.068 216.02 222.565 214.055 222.565 214.055C222.565 214.055 221.537 216.819 220.486 218.124C220.486 218.124 221.549 218.746 223.712 216.198C225.875 213.65 229.316 214.474 232.053 212.217C234.777 209.961 230.356 205.004 227.87 205.347H227.858Z" fill="#FFD2A9"/>
<path d="M202.538 124.825C202.538 124.825 195.739 129.49 191.437 140.747C187.148 152.004 173.585 173.199 170.419 178.663C167.24 184.139 169.451 213.929 169.451 213.929C169.451 213.929 165.472 195.865 163.703 188.829C161.935 181.794 169.415 164.402 170.538 163.476C171.661 162.551 177.409 164.237 176.31 157.176C175.21 150.115 190.625 119.691 194.747 118.842C194.747 118.842 201.343 120.161 202.538 124.813V124.825Z" fill="#344EAD"/>
<path d="M181.52 126.347C181.4 126.587 181.269 126.828 181.113 127.057C179.572 129.402 176.704 131.278 176.704 131.278C176.704 131.278 171.518 138.985 171.458 139.872C171.411 140.633 162.449 147.529 158.47 147.39H158.458C157.908 147.377 157.466 147.225 157.143 146.908C154.777 144.537 165.185 124.699 167.479 120.427C167.623 120.148 167.742 119.932 167.826 119.793C167.874 119.679 167.922 119.615 167.922 119.615C167.922 119.615 166.093 112.377 173.729 113.734C180.086 114.849 181.34 120.211 182.01 123.799C182.165 124.661 181.938 125.535 181.52 126.359V126.347Z" fill="#0D1242"/>
<path d="M154.837 133.851C160.083 126.537 178.556 112.339 188.283 108.13L190.72 112.922C190.72 112.922 171.924 130.454 167.503 137.958C163.082 145.463 157.621 148.556 152.388 146.059C147.166 143.561 153.738 135.385 154.837 133.838V133.851Z" fill="#FFD2A9"/>
<path d="M179.679 124.838L178.687 126.042L178.186 126.664L176.537 128.666C176.537 128.666 172.402 133.991 172.558 136.12C172.677 137.654 164.707 144.525 158.469 147.377C155.936 148.543 153.678 149.05 152.363 148.252C147.859 145.488 148.862 137.198 151.419 131.582C153.654 126.689 163.5 120.363 166.045 118.817C166.368 118.601 166.559 118.475 166.631 118.449H166.643L167.587 114.545C167.587 114.545 171.028 112.352 173.729 113.695C173.729 113.695 167.754 113.962 168.746 116.421C169.749 118.893 178.03 124.724 179.691 124.813L179.679 124.838Z" fill="#D0E4FF"/>
<path d="M201.355 104.53C195.345 107.154 196.205 112.922 190.696 112.922C187.291 112.922 186.837 108.79 186.837 108.79C188.378 105.253 189.358 99.2315 189.573 96.3667C189.8 93.5018 190.696 94.6046 190.696 94.6046C190.696 94.3384 190.685 94.0849 190.673 93.8314C190.589 91.9045 190.266 90.4974 191.449 91.3214C192.8 92.2468 193.266 97.7104 193.266 97.7104C194.377 89.7495 192.716 88.5579 194.018 89.2678C195.799 90.2312 195.811 97.2667 195.811 97.4695C197.245 92.8426 196.862 90.1932 197.854 91.2454C198.858 92.3102 197.352 100.816 196.755 103.935C196.623 104.644 196.528 105.075 196.528 105.075C201.295 102.603 201.343 104.53 201.343 104.53H201.355Z" fill="#FFD2A9"/>
<path d="M196.767 103.935C196.635 104.644 196.54 105.075 196.54 105.075C196.54 105.075 194.341 104.847 192.728 107.37C192.728 107.37 193.182 103.998 196.767 103.935Z" fill="#FFC08D"/>
<path d="M191.043 100.309C191.079 99.6372 191.354 95.7582 190.708 94.592C190.708 94.3258 190.697 94.0723 190.685 93.8187C192.059 94.123 191.186 99.4851 191.043 100.309Z" fill="#FFC08D"/>
<path d="M194.771 133.889C194.771 133.889 198.834 122.214 200.124 119.603C201.415 116.991 208.142 117.448 213.244 118.449C218.335 119.463 219.374 126.689 219.374 126.689C219.374 126.689 203.876 118.931 194.771 133.889Z" fill="#8BBDDB"/>
<path d="M220.916 110.907C220.916 110.907 216.053 120.439 216.124 131.012C216.124 131.012 208.226 136.716 205.394 129.566C205.394 129.566 208.393 120.211 206.947 107.598C205.98 99.1429 220.916 110.907 220.916 110.907Z" fill="#FFC08D"/>
<path d="M205.406 97.6724C205.406 97.6724 203.96 92.2089 201.391 96.0498C198.416 100.499 201.451 104.822 203.04 103.795C204.629 102.768 205.406 97.6724 205.406 97.6724Z" fill="#FFD2A9"/>
<path d="M228.372 111.731C228.372 111.731 233.522 110.209 231.766 114.532C229.722 119.539 224.668 119.032 224.668 117.055C224.668 115.077 228.372 111.731 228.372 111.731Z" fill="#FFD2A9"/>
<path d="M207.509 121.504C200.184 117.131 198.75 109.588 206.828 94.3765C210.998 86.5297 217.307 83.9691 225.516 88.8622C233.713 93.7553 234.609 100.639 230.451 108.485C221.776 124.838 215.085 126.03 207.521 121.504H207.509Z" fill="#FFD2A9"/>
<path d="M225.134 112.466C224.847 113.328 223.795 113.708 222.792 113.328C221.776 112.948 221.191 111.946 221.477 111.084C221.764 110.222 222.816 109.842 223.819 110.222C224.835 110.602 225.421 111.604 225.134 112.466Z" fill="#FFB68D"/>
<path d="M209.851 103.897C209.385 104.657 208.274 104.771 207.377 104.15C206.481 103.529 206.135 102.413 206.601 101.64C207.067 100.88 208.178 100.765 209.074 101.387C209.97 102.008 210.317 103.123 209.851 103.897Z" fill="#FFB68D"/>
<path d="M226.185 102.629C225.994 102.629 225.827 102.489 225.779 102.287C225.361 100.55 223.557 99.5359 223.533 99.5232C223.33 99.4091 223.246 99.1429 223.353 98.9274C223.461 98.7119 223.712 98.6231 223.915 98.7372C223.999 98.7879 226.078 99.9542 226.58 102.071C226.64 102.312 226.496 102.553 226.281 102.616C226.245 102.616 226.209 102.629 226.174 102.629H226.185Z" fill="black"/>
<path d="M216.136 95.0357C216.065 95.0357 215.993 95.0103 215.921 94.9723C215.909 94.9723 214.141 93.8441 212.528 94.3765C212.301 94.4526 212.074 94.3131 212.002 94.085C211.93 93.8441 212.062 93.6032 212.277 93.5272C214.248 92.8934 216.268 94.161 216.351 94.2244C216.554 94.3512 216.614 94.63 216.495 94.8329C216.411 94.9723 216.28 95.0484 216.136 95.0484V95.0357Z" fill="black"/>
<path d="M223.162 106.318C222.649 107.281 221.824 107.814 221.322 107.522C220.82 107.218 220.82 106.191 221.334 105.228C221.848 104.264 222.672 103.732 223.174 104.023C223.676 104.328 223.676 105.354 223.162 106.318Z" fill="black"/>
<path d="M212.898 100.474C212.384 101.437 211.56 101.97 211.058 101.678C210.556 101.374 210.556 100.347 211.07 99.3837C211.584 98.4203 212.408 97.8879 212.91 98.1794C213.412 98.4837 213.412 99.5105 212.898 100.474Z" fill="black"/>
<path d="M209.337 110.374C209.337 110.374 213.543 113.772 216.578 113.873C216.578 113.873 213.352 116.662 211.034 114.849C208.716 113.036 209.349 110.362 209.349 110.362L209.337 110.374Z" fill="black"/>
<path d="M220.952 104.366C220.952 104.366 222.875 102.388 223.664 103.085C224.453 103.782 224.035 106.216 224.035 106.216L225.719 106.267L224.321 105.671C224.321 105.671 224.775 103.149 223.903 102.616C222.672 101.868 220.94 104.366 220.94 104.366H220.952Z" fill="black"/>
<path d="M213.687 100.411C213.687 100.411 214.284 97.6344 213.316 97.2794C212.348 96.9245 210.604 98.5598 210.604 98.5598L209.696 97.0513L210.902 98.002C210.902 98.002 212.707 96.278 213.579 96.7977C214.822 97.533 213.71 100.398 213.71 100.398L213.687 100.411Z" fill="black"/>
<path d="M227.452 92.1201C227.452 92.1201 224.835 88.2538 221.202 91.3215C217.582 94.3892 209.409 99.3077 205.394 97.6851C201.379 96.0625 214.188 77.8971 225.313 83.2212C236.438 88.5454 235.434 105.861 230.81 111.363C226.185 116.865 228.372 111.743 228.372 111.743C228.372 111.743 228.683 103.935 230.224 98.7499C231.766 93.5779 227.452 92.1201 227.452 92.1201Z" fill="#F2F1DF"/>
<path d="M215.121 108.6C214.917 108.6 214.702 108.574 214.487 108.511L214.714 107.573C215.467 107.776 215.826 107.433 216.005 107.116C216.256 106.66 216.22 106.077 216.017 105.861C215.897 105.735 215.706 105.747 215.431 105.899L215.013 105.05C215.933 104.543 216.483 104.987 216.674 105.202C217.176 105.76 217.224 106.812 216.782 107.611C216.423 108.257 215.826 108.6 215.121 108.6Z" fill="black"/>
<path d="M268.737 175.493C268.294 182.313 252.378 204.548 249.725 205.334C249.032 205.537 248.327 205.942 247.67 206.411C247.395 206.627 247.109 206.842 246.846 207.071C245.328 208.364 244.193 209.859 244.193 209.859C239.545 209.53 226.508 203.128 230.702 201.721C230.953 201.632 231.228 201.48 231.539 201.252C231.706 201.125 231.897 200.986 232.088 200.796C237.023 196.41 246.631 178.586 246.69 177.23C246.738 175.747 248.399 175.468 248.399 175.468C248.399 175.468 239.342 161.346 234.084 159.648C228.826 157.949 226.174 151.205 226.174 151.205C220.988 127.919 236.068 131.569 236.068 131.569C247.18 138.592 269.167 168.623 268.725 175.468L268.737 175.493Z" fill="#D0E4FF"/>
<path d="M247.67 206.411C247.395 206.627 247.109 206.842 246.846 207.071C239.724 206.551 233.749 202.837 231.539 201.252C231.706 201.125 231.897 200.986 232.088 200.796C234.466 202.444 240.537 206.12 247.682 206.399L247.67 206.411Z" fill="#091F5B"/>
<path d="M181.519 126.347C181.4 126.587 181.268 126.828 181.113 127.056C180.097 127.018 179.118 126.892 178.197 126.676C173.49 125.662 169.869 122.861 167.491 120.427C166.941 119.869 166.475 119.324 166.057 118.842C166.38 118.627 166.571 118.5 166.643 118.474C166.989 118.88 167.383 119.336 167.838 119.793C170.203 122.252 173.872 125.13 178.699 126.055C179.596 126.233 180.54 126.334 181.519 126.347Z" fill="#091F5B"/>
<path d="M252.701 226.656C250.514 230.585 246.463 235.326 239.389 236.556C239.27 236.353 239.138 236.138 239.019 235.91C246.272 234.756 250.299 229.762 252.378 225.844C252.486 226.123 252.593 226.402 252.701 226.656Z" fill="#3E6575"/>
<path d="M131.966 354.714C131.966 354.714 130.306 356.45 128.585 359.62C126.864 362.801 128.752 365.73 120.412 373.107C120.412 373.107 103.575 362.649 95.9756 349.212C95.9756 349.212 96.107 345.371 99.7874 344.471C101.759 343.989 107.208 346.69 112.43 347.742C113.17 347.881 113.911 348.008 114.64 348.071C115.56 348.16 116.456 348.173 117.317 348.059C118.117 347.97 118.87 347.792 119.575 347.475H119.587C121.368 346.702 122.766 345.168 123.506 342.481C123.506 342.481 127.975 345.181 124.988 349.757C124.988 349.757 130.294 347.298 131.966 354.726V354.714Z" fill="#0D1242"/>
<path d="M120.412 373.107C120.412 373.107 103.575 362.649 95.9756 349.212C95.9756 349.212 98.7956 348.578 101.138 353.028C103.468 357.49 121.786 367.606 120.412 373.107Z" fill="#D0E4FF"/>
<path d="M120.471 351.963C119.109 354.257 119.133 350.024 117.317 348.033C118.117 347.945 118.87 347.767 119.575 347.45H119.587C120.4 348.376 121.547 350.163 120.471 351.95V351.963Z" fill="#D0E4FF"/>
<path d="M115.178 352.09C113.732 353.535 113.266 349.757 112.417 347.729C113.158 347.868 113.899 347.995 114.628 348.059C115.476 349.288 116.277 350.987 115.178 352.102V352.09Z" fill="#D0E4FF"/>
<path d="M235.542 401.11H211.727C211.727 401.11 210.735 397.586 211.727 393.719C212.157 392.046 214.619 390.487 216.913 388.307C217.546 387.698 218.156 387.064 218.729 386.354C219.183 385.797 219.589 385.175 219.936 384.516C220.378 383.718 220.725 382.843 220.916 381.88C221.298 379.965 221.155 377.709 220.115 375.009C220.115 375.009 228.217 373.209 231.108 377.899C231.108 377.899 231.383 375.731 233.964 377.177C233.964 377.177 233.594 381.525 234.096 385.175C234.598 388.801 237.8 389.866 235.53 401.122L235.542 401.11Z" fill="#0D1242"/>
<path d="M229.34 385.898C229.125 386.152 228.838 386.278 228.539 386.278C228.288 386.278 228.049 386.19 227.834 386.025C226.604 384.985 223.879 383.363 219.924 384.504C220.366 383.705 220.713 382.83 220.904 381.867C222.493 381.246 225.492 380.878 229.197 384.237C229.675 384.656 229.746 385.404 229.328 385.898H229.34Z" fill="#D0E4FF"/>
<path d="M227.333 390.094L227.201 390.309C226.878 390.829 226.245 390.994 225.743 390.69C224.13 389.676 220.486 387.762 216.913 388.307C217.546 387.698 218.156 387.064 218.729 386.354C220.498 385.923 223.819 385.683 227.105 388.56C227.536 388.94 227.655 389.6 227.344 390.094H227.333Z" fill="#D0E4FF"/>
</g>
<defs>
<clipPath id="clip0_303_632">
<rect width="564" height="404" fill="white"/>
</clipPath>
</defs>
</svg>
