<svg width="266" height="271" viewBox="0 0 266 271" fill="none" xmlns="http://www.w3.org/2000/svg">
<g clip-path="url(#clip0_277_427)">
<path d="M45.9102 135.69C45.9102 116.516 45.8084 97.3283 45.9392 78.1547C46.07 57.83 56.9263 47.415 77.7377 47.415C115.03 47.4291 152.336 47.4572 189.628 47.5273C208.216 47.5554 220.046 57.9283 220.148 75.9369C220.395 116.404 220.192 156.871 219.625 197.323C219.392 213.479 207.795 223.656 191.053 223.74C152.307 223.908 113.547 224.006 74.8021 223.992C58.554 223.992 46.8839 213.886 46.3898 198.151C45.7358 177.35 46.2299 156.52 46.2299 135.704C46.1282 135.704 46.0264 135.704 45.9247 135.704L45.9102 135.69ZM84.2631 61.4093C84.205 61.7041 84.1323 61.9988 84.0742 62.2795C82.3883 62.2795 80.688 62.2795 79.0021 62.2795C64.8323 62.3217 59.3097 67.5712 59.1208 81.2988C59.0481 86.8993 58.8156 92.5139 59.1789 98.1003C59.3824 101.132 60.6758 104.094 61.4752 107.098C64.0766 105.385 67.1867 104.094 69.1777 101.862C76.5896 93.5526 83.8271 85.0886 90.7304 76.3861C93.6225 72.7366 95.5118 68.3292 97.8661 64.2727C93.3318 63.3182 88.7975 62.3497 84.2631 61.3953V61.4093ZM181.65 132.153H181.679C181.679 128.657 182.187 125.064 181.475 121.709C181.097 119.913 178.641 118.523 177.13 116.951C175.604 118.509 172.93 119.969 172.77 121.653C172.203 127.661 172.944 133.795 172.247 139.788C171.971 142.104 169.18 144.14 167.538 146.315C165.968 144.126 163.323 142.048 163.047 139.718C162.379 133.963 163.178 128.054 162.568 122.285C162.364 120.404 159.617 118.762 158.033 117.021C156.551 118.621 153.891 120.165 153.79 121.85C153.354 128.812 153.368 135.83 153.848 142.792C154.386 150.512 159.923 155.13 167.683 155.13C175.168 155.13 180.923 150.119 181.606 142.652C181.926 139.185 181.664 135.662 181.664 132.167L181.65 132.153ZM111.658 130.679C111.193 119.716 106.106 115.393 97.8661 115.744C90.2217 116.081 84.7718 121.457 84.3503 129.542C84.1033 134.426 83.9725 139.395 84.5683 144.252C85.4984 151.832 92.0383 156.449 100.046 155.846C107.85 155.256 112.283 150.554 112.53 141.529C109.42 142.203 106.484 142.596 103.723 143.508C101.47 144.252 99.4212 145.599 97.2848 146.68C96.0204 144.35 94.0003 142.104 93.6806 139.648C93.201 136.013 93.3754 132.096 94.291 128.545C95.4827 123.997 98.4911 123.59 102.517 126.341C105.249 128.208 108.577 129.261 111.644 130.679H111.658ZM129.708 153.712C128.371 146.006 129.258 140.645 139.416 140.378C145.273 140.223 148.02 134.511 147.889 128.966C147.758 123.113 144.765 118.537 138.37 117.414C134.62 116.755 130.667 117.218 126.831 116.909C122.18 116.544 120.378 118.257 120.538 122.903C120.843 131.282 120.887 139.69 120.509 148.056C120.218 154.414 122.805 155.986 129.694 153.698L129.708 153.712Z" fill="url(#paint0_linear_277_427)"/>
<path d="M23.6018 64.876C35.3736 63.0091 35.5771 63.1776 35.6643 74.2242C35.6934 77.7193 35.8678 81.2283 35.6352 84.7234C35.4463 87.657 37.1467 92.0223 31.6532 92.0223C27.8164 92.0223 22.4828 94.1979 22.0177 87.0534C21.945 85.8323 18.7477 84.0216 16.873 83.8531C11.6556 83.418 6.3655 83.6987 0.610382 83.6987V72.6241C4.76686 72.6241 8.56001 72.6241 12.3532 72.6241C18.1955 72.6147 21.945 70.032 23.6018 64.876Z" fill="url(#paint1_linear_277_427)"/>
<path d="M0.973785 111.041H20.2883C22.105 107.673 22.788 104.037 24.9244 102.872C30.6795 99.7421 35.5191 103.111 35.5772 109.638C35.6208 114.551 35.5772 119.449 35.5772 124.362C35.5772 127.478 35.737 130.833 30.9702 130.524C27.4968 130.285 22.9043 132.306 22.1776 126.13C22.0032 124.685 19.3437 122.874 17.498 122.383C15.0128 121.723 12.2224 122.186 9.56287 122.186C-0.871923 122.144 -0.959122 122.046 0.973785 111.041Z" fill="url(#paint2_linear_277_427)"/>
<path d="M0.973712 160.702C-0.842931 149.656 -0.770265 149.558 8.98147 149.53C11.8736 149.53 14.8529 149.88 17.6432 149.347C19.3581 149.01 22.0468 147.354 22.1194 146.189C22.5118 139.058 27.9617 140.757 31.6241 141.487C33.339 141.838 35.1266 145.641 35.3882 148.028C35.955 153.109 35.9259 158.316 35.33 163.383C35.083 165.419 32.8594 168.591 31.1881 168.815C27.9763 169.251 23.2966 171.089 22.1485 164.984C21.8288 163.285 18.5879 161.138 16.4806 160.899C11.3213 160.309 6.03124 160.702 0.973712 160.702Z" fill="url(#paint3_linear_277_427)"/>
<path d="M0.842932 188.031C5.02848 188.031 8.85069 188.073 12.6584 188.031C17.2944 187.975 22.6426 189.35 23.1368 181.911C23.1949 180.985 28.3396 179.764 31.0719 179.876C32.5688 179.932 35.083 182.416 35.1993 183.96C35.6789 190.221 35.9405 196.579 35.301 202.797C34.4145 211.359 27.7728 205.955 23.2094 207.359C23.442 199.639 19.0094 198.306 12.9054 199.134C11.7283 199.288 10.4929 199.148 9.28668 199.134C2.69833 199.106 -0.111411 195.405 0.857465 188.031H0.842932Z" fill="url(#paint4_linear_277_427)"/>
<path d="M264.983 72.7082C266.727 83.1793 266.61 83.3057 257.062 83.3758C254.17 83.4039 251.191 83.039 248.4 83.6004C246.7 83.9513 244.04 85.6357 243.968 86.8428C243.59 93.3978 238.779 91.7275 234.986 91.7836C229.929 91.8538 231.048 88.0359 230.99 85.2146C230.859 79.8527 230.597 74.4628 231.15 69.157C231.324 67.4446 233.954 64.6092 235.35 64.6513C238.125 64.7636 242.921 66.1813 243.183 67.6692C244.055 72.7082 247.121 72.7784 250.958 72.7082C255.696 72.624 260.448 72.6942 264.983 72.6942V72.7082Z" fill="url(#paint5_linear_277_427)"/>
<path d="M89.8293 24.0303C89.9601 25.6164 89.9746 26.7814 90.1781 27.9043C91.2826 34.3891 89.0155 37.6315 81.7053 36.5788C79.1039 36.2139 76.4007 36.5086 73.7411 36.5086C61.5188 36.5086 61.2862 36.2419 63.4517 24.1566C78.4935 20.6616 66.896 8.15518 72.3605 1.08085C80.8478 -0.996532 81.6181 -0.491223 81.6762 7.83234C81.6762 9.93779 81.6762 12.0292 81.6762 14.1347C81.6762 19.4311 84.3988 22.7249 89.8438 24.0163L89.8293 24.0303Z" fill="url(#paint6_linear_277_427)"/>
<path d="M101.049 24.3389C115.393 20.0157 105.147 8.29532 110.03 1.20695C118.503 -1.19326 119.491 -0.519517 119.535 8.33743C119.535 10.6675 119.768 13.0256 119.506 15.3275C118.91 20.7456 120.814 23.9178 127.179 23.4686C127.456 25.0547 127.848 26.3882 127.892 27.7357C128.182 36.4382 128.153 36.4382 118.837 36.4803C116.425 36.4803 113.998 36.4803 111.585 36.4944C103.331 36.5131 99.8184 32.4612 101.049 24.3389Z" fill="url(#paint7_linear_277_427)"/>
<path d="M148.994 0.603392H157.365C157.365 5.51612 157.612 10.092 157.307 14.6398C156.943 20.0297 157.961 23.988 164.98 23.5107C165.256 25.0968 165.503 26.4303 165.736 27.7637C166.84 34.2064 164.617 37.519 157.292 36.4944C154.691 36.1294 151.988 36.4523 149.343 36.4523C141.097 36.471 137.624 32.3864 138.922 24.1985C154.138 20.8157 142.323 8.23917 149.008 0.589355L148.994 0.603392Z" fill="url(#paint8_linear_277_427)"/>
<path d="M194.904 0.814329C194.904 5.82531 195.166 9.7976 194.846 13.7137C194.381 19.4546 194.947 24.1708 203.42 23.7217C203.42 26.6833 204.016 29.3924 203.231 31.6522C202.592 33.491 200.514 35.835 198.741 36.1438C194.759 36.8316 190.558 36.4105 186.46 36.4105C174.906 36.4105 174.601 36.0175 176.926 23.7778C182.609 23.6936 185.414 21.1811 184.658 15.1314C184.091 10.5836 184.542 5.90953 184.542 0.800293H194.904V0.814329Z" fill="url(#paint9_linear_277_427)"/>
<path d="M126.932 247.531C119.666 247.25 118.547 251.672 119.186 257.539C119.491 260.304 119.099 263.139 119.244 265.919C119.448 269.484 117.893 270.944 114.172 270.93C110.51 270.916 108.853 269.568 109.086 265.947C109.26 263.153 108.911 260.332 109.129 257.553C109.594 251.882 109.042 247.096 101.456 247.587C99.363 235.53 99.3921 235.488 110.844 235.488C113.01 235.488 115.19 235.488 117.355 235.488C125 235.488 128.187 239.502 126.918 247.531H126.932Z" fill="url(#paint10_linear_277_427)"/>
<path d="M89.5532 235.432V247.012C74.3806 249.917 85.0334 262.41 80.3682 269.709C72.564 272.207 71.474 271.533 71.3868 263.631C71.3577 261.301 71.3868 258.957 71.3722 256.627C71.3432 251.733 68.5286 248.607 62.9285 247.25C62.9285 244.766 62.4634 241.931 63.1029 239.348C63.4662 237.832 65.5299 235.67 66.9251 235.6C74.3225 235.221 81.7489 235.432 89.5823 235.432H89.5532Z" fill="url(#paint11_linear_277_427)"/>
<path d="M146.93 269.779C146.93 265.484 146.843 261.539 146.945 257.609C147.104 252.191 147.787 246.52 139.373 247.91C137.236 235.755 137.382 235.572 148.848 235.558C150.781 235.558 152.714 235.558 154.647 235.558C162.388 235.558 165.789 239.479 164.849 247.321C157.408 247.264 156.26 251.91 156.972 257.918C157.19 259.757 157.016 261.652 156.972 263.519C156.871 271.239 156.536 271.477 146.901 269.807L146.93 269.779Z" fill="url(#paint12_linear_277_427)"/>
<path d="M177.086 247.699C175.415 235.642 175.444 235.614 186.475 235.6C189.381 235.6 192.302 235.404 195.18 235.656C198.188 235.923 202.737 234.07 202.984 239.292C203.159 243.039 205.164 248.093 197.854 248.556C196.721 248.626 195.078 251.995 194.933 253.932C194.526 259.209 194.788 264.529 194.788 270.242H184.745C184.745 265.399 184.469 260.992 184.818 256.641C185.254 251.181 184.091 247.306 177.086 247.685V247.699Z" fill="url(#paint13_linear_277_427)"/>
<path d="M231.048 170.612C231.048 161.965 231.048 156.393 231.048 150.835C231.048 140.518 231.15 140.434 242.703 142.216C242.863 153.403 251.699 149.248 257.934 149.936C261.451 150.315 266.683 148.617 265.622 154.877C265.288 156.814 262.89 159.411 260.942 159.888C257.542 160.73 253.778 160.225 250.159 160.183C246.453 160.141 244.578 161.081 242.994 165.109C242.02 167.594 236.309 168.366 231.048 170.626V170.612Z" fill="url(#paint14_linear_277_427)"/>
<path d="M231.062 103.237H243.096C242.471 111.35 247.616 111.94 253.69 111.435C255.609 111.28 257.542 111.477 259.475 111.435C263.152 111.336 265.985 111.631 266 116.516C266 121.148 263.747 122.032 259.765 121.85C256.641 121.709 253.502 121.864 250.377 121.807C246.729 121.737 244.142 122.158 243.154 126.664C242.791 128.306 238.227 129.766 235.495 129.948C234.129 130.033 231.368 127.113 231.266 125.429C230.786 118.284 231.062 111.084 231.062 103.265V103.237Z" fill="url(#paint15_linear_277_427)"/>
<path d="M231.12 193.393C231.12 191.063 230.626 188.607 231.251 186.459C231.891 184.241 233.286 180.915 234.943 180.536C238.256 179.792 242.732 178.753 243.735 184.634C243.997 186.206 247.136 188.073 249.214 188.424C252.949 189.056 256.888 188.719 260.739 188.649C264.314 188.579 265.927 189.884 265.898 193.575C265.884 197.169 264.547 198.671 260.841 198.544C256.989 198.418 253.036 198.039 249.33 198.769C247.151 199.204 244.084 201.267 243.648 203.092C242.355 208.496 238.155 207.345 235.146 206.699C233.46 206.335 231.891 203.176 231.295 201.015C230.641 198.629 231.15 195.934 231.15 193.379L231.12 193.393Z" fill="url(#paint16_linear_277_427)"/>
<path d="M84.2486 61.4233C88.7829 62.3778 93.3173 63.3463 97.8516 64.3008C95.5118 68.3573 93.6225 72.7647 90.7158 76.4142C83.8126 85.1167 76.5751 93.5947 69.1632 101.89C67.1721 104.122 64.0621 105.399 61.4606 107.126C60.6613 104.136 59.3533 101.16 59.1644 98.1284C58.8011 92.542 59.0191 86.9274 59.1063 81.3269C59.2952 67.5993 64.8178 62.3357 78.9876 62.3076C80.6734 62.3076 82.3738 62.3076 84.0597 62.3076C84.1178 62.0129 84.1905 61.7181 84.2486 61.4374V61.4233Z" fill="#323333"/>
<path d="M181.635 132.152C181.635 135.647 181.897 139.171 181.577 142.638C180.894 150.091 175.139 155.116 167.654 155.116C159.894 155.116 154.356 150.498 153.819 142.778C153.339 135.816 153.339 128.798 153.761 121.836C153.862 120.151 156.522 118.607 158.004 117.007C159.588 118.762 162.35 120.39 162.539 122.271C163.149 128.04 162.35 133.949 163.018 139.704C163.294 142.034 165.939 144.111 167.509 146.301C169.151 144.139 171.942 142.09 172.218 139.774C172.915 133.795 172.174 127.661 172.741 121.639C172.901 119.955 175.575 118.509 177.101 116.937C178.612 118.509 181.068 119.899 181.446 121.695C182.144 125.05 181.65 128.643 181.65 132.138H181.621L181.635 132.152Z" fill="#323333"/>
<path d="M111.644 130.678C108.577 129.261 105.249 128.222 102.517 126.341C98.4911 123.59 95.4827 123.983 94.291 128.545C93.3609 132.096 93.201 136.012 93.6806 139.648C94.0003 142.104 96.0204 144.336 97.2848 146.68C99.4212 145.599 101.456 144.252 103.723 143.508C106.484 142.595 109.42 142.202 112.53 141.529C112.298 150.554 107.85 155.256 100.046 155.846C92.0384 156.449 85.4984 151.831 84.5683 144.252C83.9725 139.409 84.1033 134.44 84.3503 129.542C84.7718 121.457 90.2217 116.081 97.8661 115.744C106.106 115.379 111.193 119.716 111.658 130.678H111.644Z" fill="#323333"/>
<path d="M129.694 153.726C122.82 156.014 120.233 154.442 120.509 148.084C120.887 139.704 120.843 131.296 120.538 122.931C120.363 118.285 122.18 116.586 126.831 116.937C130.667 117.232 134.606 116.783 138.37 117.442C144.765 118.565 147.773 123.141 147.889 128.994C148.005 134.539 145.259 140.266 139.416 140.406C129.258 140.673 128.371 146.02 129.708 153.74L129.694 153.726ZM130.275 123.45C129.636 124.039 128.996 124.615 128.342 125.205C128.894 127.942 128.56 131.633 130.275 133.093C131.641 134.258 135.681 133.149 138.152 132.167C139.039 131.816 139.634 127.759 139.009 127.352C136.379 125.64 133.225 124.685 130.275 123.45Z" fill="#323333"/>
<path d="M130.275 123.45C133.24 124.685 136.379 125.653 139.009 127.352C139.634 127.759 139.053 131.815 138.152 132.166C135.667 133.149 131.641 134.258 130.275 133.093C128.56 131.633 128.894 127.941 128.342 125.204C128.982 124.615 129.621 124.039 130.275 123.45Z" fill="url(#paint17_linear_277_427)"/>
</g>
<defs>
<linearGradient id="paint0_linear_277_427" x1="45.8666" y1="135.704" x2="220.25" y2="135.704" gradientUnits="userSpaceOnUse">
<stop stop-color="#81CAC5"/>
<stop offset="1" stop-color="#39B58D"/>
</linearGradient>
<linearGradient id="paint1_linear_277_427" x1="0.595849" y1="78.1544" x2="35.7515" y2="78.1544" gradientUnits="userSpaceOnUse">
<stop stop-color="#81CAC5"/>
<stop offset="1" stop-color="#39B58D"/>
</linearGradient>
<linearGradient id="paint2_linear_277_427" x1="6.4831e-05" y1="116.165" x2="35.6062" y2="116.165" gradientUnits="userSpaceOnUse">
<stop stop-color="#81CAC5"/>
<stop offset="1" stop-color="#39B58D"/>
</linearGradient>
<linearGradient id="paint3_linear_277_427" x1="0.0581239" y1="155.088" x2="35.7951" y2="155.088" gradientUnits="userSpaceOnUse">
<stop stop-color="#81CAC5"/>
<stop offset="1" stop-color="#39B58D"/>
</linearGradient>
<linearGradient id="paint4_linear_277_427" x1="0.145341" y1="193.814" x2="35.6789" y2="193.814" gradientUnits="userSpaceOnUse">
<stop stop-color="#81CAC5"/>
<stop offset="1" stop-color="#39B58D"/>
</linearGradient>
<linearGradient id="paint5_linear_277_427" x1="230.815" y1="78.2947" x2="265.855" y2="78.2947" gradientUnits="userSpaceOnUse">
<stop stop-color="#81CAC5"/>
<stop offset="1" stop-color="#39B58D"/>
</linearGradient>
<linearGradient id="paint6_linear_277_427" x1="62.4198" y1="18.4298" x2="90.4397" y2="18.4298" gradientUnits="userSpaceOnUse">
<stop stop-color="#81CAC5"/>
<stop offset="1" stop-color="#39B58D"/>
</linearGradient>
<linearGradient id="paint7_linear_277_427" x1="100.162" y1="18.2471" x2="127.964" y2="18.2471" gradientUnits="userSpaceOnUse">
<stop stop-color="#81CAC5"/>
<stop offset="1" stop-color="#39B58D"/>
</linearGradient>
<linearGradient id="paint8_linear_277_427" x1="137.949" y1="18.6401" x2="165.983" y2="18.6401" gradientUnits="userSpaceOnUse">
<stop stop-color="#81CAC5"/>
<stop offset="1" stop-color="#39B58D"/>
</linearGradient>
<linearGradient id="paint9_linear_277_427" x1="175.778" y1="18.6826" x2="203.638" y2="18.6826" gradientUnits="userSpaceOnUse">
<stop stop-color="#81CAC5"/>
<stop offset="1" stop-color="#39B58D"/>
</linearGradient>
<linearGradient id="paint10_linear_277_427" x1="100.395" y1="253.202" x2="127.877" y2="253.202" gradientUnits="userSpaceOnUse">
<stop stop-color="#81CAC5"/>
<stop offset="1" stop-color="#39B58D"/>
</linearGradient>
<linearGradient id="paint11_linear_277_427" x1="62.7395" y1="253.188" x2="89.5532" y2="253.188" gradientUnits="userSpaceOnUse">
<stop stop-color="#81CAC5"/>
<stop offset="1" stop-color="#39B58D"/>
</linearGradient>
<linearGradient id="paint12_linear_277_427" x1="138.312" y1="253.075" x2="165.503" y2="253.075" gradientUnits="userSpaceOnUse">
<stop stop-color="#81CAC5"/>
<stop offset="1" stop-color="#39B58D"/>
</linearGradient>
<linearGradient id="paint13_linear_277_427" x1="176.301" y1="252.893" x2="203.362" y2="252.893" gradientUnits="userSpaceOnUse">
<stop stop-color="#81CAC5"/>
<stop offset="1" stop-color="#39B58D"/>
</linearGradient>
<linearGradient id="paint14_linear_277_427" x1="231.048" y1="155.972" x2="265.753" y2="155.972" gradientUnits="userSpaceOnUse">
<stop stop-color="#81CAC5"/>
<stop offset="1" stop-color="#39B58D"/>
</linearGradient>
<linearGradient id="paint15_linear_277_427" x1="230.975" y1="116.572" x2="266" y2="116.572" gradientUnits="userSpaceOnUse">
<stop stop-color="#81CAC5"/>
<stop offset="1" stop-color="#39B58D"/>
</linearGradient>
<linearGradient id="paint16_linear_277_427" x1="230.932" y1="193.618" x2="265.898" y2="193.618" gradientUnits="userSpaceOnUse">
<stop stop-color="#81CAC5"/>
<stop offset="1" stop-color="#39B58D"/>
</linearGradient>
<linearGradient id="paint17_linear_277_427" x1="128.342" y1="128.531" x2="139.271" y2="128.531" gradientUnits="userSpaceOnUse">
<stop stop-color="#81CAC5"/>
<stop offset="1" stop-color="#39B58D"/>
</linearGradient>
<clipPath id="clip0_277_427">
<rect width="266" height="271" fill="white"/>
</clipPath>
</defs>
</svg>
