<svg width="1180" height="664" viewBox="0 0 1180 664" fill="none" xmlns="http://www.w3.org/2000/svg">
<rect x="1" width="1179" height="664" fill="white"/>
<path d="M681.413 367.321C674.566 367.321 669.323 365.371 665.683 361.471C662.129 357.571 660.353 352.068 660.353 344.961V296.081C660.353 288.974 662.129 283.471 665.683 279.571C669.323 275.671 674.566 273.721 681.413 273.721C688.259 273.721 693.459 275.671 697.013 279.571C700.653 283.471 702.473 288.974 702.473 296.081V305.701H688.953V295.171C688.953 289.538 686.569 286.721 681.803 286.721C677.036 286.721 674.653 289.538 674.653 295.171V346.001C674.653 351.548 677.036 354.321 681.803 354.321C686.569 354.321 688.953 351.548 688.953 346.001V332.091H702.473V344.961C702.473 352.068 700.653 357.571 697.013 361.471C693.459 365.371 688.259 367.321 681.413 367.321ZM711.028 275.021H732.218C739.585 275.021 744.958 276.754 748.338 280.221C751.718 283.601 753.408 288.844 753.408 295.951V301.541C753.408 310.988 750.288 316.968 744.048 319.481V319.741C747.515 320.781 749.942 322.904 751.328 326.111C752.802 329.318 753.538 333.608 753.538 338.981V354.971C753.538 357.571 753.625 359.694 753.798 361.341C753.972 362.901 754.405 364.461 755.098 366.021H740.538C740.018 364.548 739.672 363.161 739.498 361.861C739.325 360.561 739.238 358.221 739.238 354.841V338.201C739.238 334.041 738.545 331.138 737.158 329.491C735.858 327.844 733.562 327.021 730.268 327.021H725.328V366.021H711.028V275.021ZM730.528 314.021C733.388 314.021 735.512 313.284 736.898 311.811C738.372 310.338 739.108 307.868 739.108 304.401V297.381C739.108 294.088 738.502 291.704 737.288 290.231C736.162 288.758 734.342 288.021 731.828 288.021H725.328V314.021H730.528ZM763.46 275.021H802.46V288.021H777.76V312.071H797.39V325.071H777.76V353.021H802.46V366.021H763.46V275.021ZM807.306 275.021H821.086L827.456 344.961H827.716L834.476 275.021H850.076L856.836 344.961H857.096L863.466 275.021H875.816L866.586 366.021H848.776L842.276 304.661H842.016L835.516 366.021H816.536L807.306 275.021ZM903.87 275.021H924.28L933.38 340.151H933.64L942.74 275.021H963.15V366.021H949.63V297.121H949.37L938.97 366.021H927.01L916.61 297.121H916.35V366.021H903.87V275.021ZM984.871 275.021H1004.24L1019.06 366.021H1004.76L1002.16 347.951V348.211H985.911L983.311 366.021H970.051L984.871 275.021ZM1000.47 335.861L994.101 290.881H993.841L987.601 335.861H1000.47ZM1031.21 288.021H1016.26V275.021H1060.46V288.021H1045.51V366.021H1031.21V288.021ZM1067.39 275.021H1106.39V288.021H1081.69V312.071H1101.32V325.071H1081.69V353.021H1106.39V366.021H1067.39V275.021Z" fill="#091F5B"/>
<path d="M699.783 216.397V220.797H660.183V216.397H677.383V210.397H682.483V216.397H699.783ZM691.433 247.247H701.333V251.597H658.683V247.247H668.533V238.947C664.583 237.647 662.133 235.397 662.133 232.097C662.133 226.147 669.883 223.697 679.983 223.697C690.083 223.697 697.833 226.147 697.833 232.097C697.833 235.397 695.383 237.647 691.433 238.947V247.247ZM667.183 232.097C667.183 235.147 672.783 236.347 679.983 236.347C687.233 236.347 692.783 235.147 692.783 232.097C692.783 228.997 687.233 227.797 679.983 227.797C672.783 227.797 667.183 228.997 667.183 232.097ZM673.483 239.997V247.247H686.533V239.997C684.533 240.247 682.333 240.397 679.983 240.397C677.683 240.397 675.483 240.247 673.483 239.997ZM728.078 226.147C717.778 226.147 709.328 224.097 709.328 218.447C709.328 212.847 717.778 210.797 728.078 210.797C738.378 210.797 746.828 212.847 746.828 218.447C746.828 224.097 738.378 226.147 728.078 226.147ZM728.078 214.547C720.628 214.547 714.428 215.647 714.428 218.447C714.428 221.297 720.628 222.397 728.078 222.397C735.528 222.397 741.728 221.297 741.728 218.447C741.728 215.647 735.528 214.547 728.078 214.547ZM749.428 232.397H738.528V236.347H746.478V246.497H714.578V249.447H747.228V253.147H709.728V242.997H741.628V240.047H709.628V236.347H717.628V232.397H706.778V228.597H749.428V232.397ZM733.678 236.347V232.397H722.478V236.347H733.678ZM790.074 210.947H795.024V236.947H790.074V225.097H781.824V220.797H790.074V210.947ZM769.874 226.747C766.924 231.747 761.974 235.047 755.724 235.697V231.197C762.874 230.147 767.274 224.397 767.774 216.297H756.274V212.047H783.524V216.297H772.774C772.674 218.547 772.274 220.697 771.674 222.647L784.774 231.697L782.124 235.347L769.874 226.747ZM758.324 243.597V239.297H795.024V253.647H789.974V243.597H758.324ZM837.87 242.647V210.947H842.82V242.647H837.87ZM816.92 236.197C808.57 236.197 803.37 230.947 803.37 223.797C803.37 216.647 808.57 211.397 816.92 211.397C825.27 211.397 830.42 216.647 830.42 223.797C830.42 230.947 825.27 236.197 816.92 236.197ZM816.92 231.997C821.97 231.997 825.47 228.847 825.47 223.797C825.47 218.747 821.97 215.547 816.92 215.547C811.82 215.547 808.32 218.747 808.32 223.797C808.32 228.847 811.82 231.997 816.92 231.997ZM807.12 253.097V239.147H812.17V248.597H843.97V253.097H807.12ZM888.829 230.597H907.729V234.597H865.079V230.597H883.929V226.197H868.129V211.447H904.679V215.447H873.079V222.197H905.179V226.197H888.829V230.597ZM886.379 238.147C896.579 238.147 905.179 240.097 905.179 245.947C905.179 251.797 896.579 253.797 886.379 253.797C876.179 253.797 867.579 251.797 867.579 245.947C867.579 240.097 876.179 238.147 886.379 238.147ZM886.379 249.897C893.329 249.897 899.979 248.897 899.979 245.947C899.979 243.047 893.329 242.047 886.379 242.047C879.429 242.047 872.779 243.047 872.779 245.947C872.779 248.897 879.429 249.897 886.379 249.897ZM957.825 228.247V232.997H951.825V253.647H946.875V210.947H951.825V228.247H957.825ZM927.275 211.947C934.725 211.947 939.975 218.247 939.975 231.797C939.975 245.347 934.725 251.647 927.275 251.647C919.775 251.647 914.525 245.347 914.525 231.797C914.525 218.247 919.775 211.947 927.275 211.947ZM927.275 247.097C931.675 247.097 935.025 242.647 935.025 231.797C935.025 220.997 931.675 216.497 927.275 216.497C922.825 216.497 919.475 220.997 919.475 231.797C919.475 242.647 922.825 247.097 927.275 247.097ZM996.171 253.647V210.947H1001.12V253.647H996.171ZM963.721 251.097V229.197H982.821V217.047H963.621V212.497H987.771V233.747H968.671V246.547H981.171C985.221 246.547 989.621 245.747 992.221 244.497V249.047C989.621 250.347 985.171 251.097 981.021 251.097H963.721ZM1048.12 222.497H1054.02V227.147H1048.12V243.397H1043.17V210.947H1048.12V222.497ZM1030.57 228.197V215.947H1011.42V211.647H1035.52V228.197H1030.57ZM1039.62 234.647C1036.92 235.847 1031.57 236.297 1025.47 236.297H1009.37V232.047H1017.72V221.897H1022.62V232.047H1025.62C1031.47 232.047 1036.67 231.647 1039.62 230.397V234.647ZM1017.37 240.547V248.797H1049.27V253.097H1012.37V240.547H1017.37ZM1092.36 253.647V210.947H1097.31V253.647H1092.36ZM1059.91 251.097V229.197H1079.01V217.047H1059.81V212.497H1083.96V233.747H1064.86V246.547H1077.36C1081.41 246.547 1085.81 245.747 1088.41 244.497V249.047C1085.81 250.347 1081.36 251.097 1077.21 251.097H1059.91Z" fill="#091F5B"/>
<path d="M820.443 402.751H825.143V445.451H820.443V402.751ZM810.143 420.551V403.001H814.793V444.701H810.143V425.251H804.493C804.193 437.901 800.793 443.451 794.593 443.451C788.143 443.451 784.643 437.401 784.643 423.601C784.643 409.801 788.143 403.751 794.593 403.751C800.543 403.751 803.943 408.901 804.443 420.551H810.143ZM794.593 438.951C798.143 438.951 799.793 434.101 799.793 423.601C799.793 413.101 798.143 408.251 794.593 408.251C791.043 408.251 789.343 413.101 789.343 423.601C789.343 434.101 791.043 438.951 794.593 438.951ZM867.439 402.751H872.389V445.451H867.439V422.851H856.439V418.201H867.439V402.751ZM850.039 404.001C850.039 409.851 849.589 415.151 848.789 419.901L862.139 440.301L857.989 443.001L847.339 426.201C844.439 436.301 839.289 442.351 832.539 442.901V437.851C840.739 436.501 844.939 421.751 844.989 403.801L850.039 404.001ZM929.198 402.751H934.148V445.451H929.198V402.751ZM913.398 404.001C913.348 410.551 912.798 416.451 911.698 421.551L925.498 439.951L921.498 442.801L910.148 427.301C906.998 436.701 901.798 442.401 895.048 442.901V437.901C903.598 436.551 908.298 421.751 908.348 403.801L913.398 404.001ZM987.044 411.801V416.501H981.044V428.251H976.094V402.751H981.044V411.801H987.044ZM957.094 418.251C954.144 423.101 949.194 426.351 942.994 427.001V422.501C950.144 421.451 954.544 415.901 955.044 408.101H943.544V403.851H970.794V408.101H959.994C959.944 410.251 959.544 412.251 958.944 414.151L972.044 422.951L969.394 426.651L957.094 418.251ZM944.944 434.901V430.601H981.044V445.451H976.044V434.901H944.944ZM1003.39 402.651V409.401H1012.34V413.851H989.54V409.401H998.49V402.651H1003.39ZM1026.94 402.751H1031.54V445.451H1026.94V424.601H1020.09V444.701H1015.49V403.001H1020.09V419.951H1026.94V402.751ZM1001.14 417.201C1006.89 417.201 1011.09 421.801 1011.09 430.301C1011.09 438.801 1006.89 443.401 1001.14 443.401C995.44 443.401 991.24 438.801 991.24 430.301C991.24 421.801 995.44 417.201 1001.14 417.201ZM1001.14 439.051C1004.24 439.051 1006.54 435.901 1006.54 430.301C1006.54 424.701 1004.24 421.551 1001.14 421.551C998.09 421.551 995.84 424.701 995.84 430.301C995.84 435.901 998.09 439.051 1001.14 439.051ZM1062.39 438.751H1081.24V443.401H1038.59V438.751H1057.34V429.151H1041.39V404.001H1046.29V411.651H1073.49V404.001H1078.39V429.151H1062.39V438.751ZM1046.29 416.101V424.701H1073.49V416.101H1046.29ZM1131.33 420.051V424.801H1125.33V445.451H1120.38V402.751H1125.33V420.051H1131.33ZM1104.28 408.851C1104.23 413.851 1103.78 418.401 1102.98 422.401L1116.68 439.601L1112.78 442.551L1101.53 428.001C1098.63 436.851 1093.63 442.151 1087.18 442.901V438.001C1094.73 436.601 1099.13 424.701 1099.28 408.851H1088.18V404.301H1115.03V408.851H1104.28ZM1136.63 433.301L1135.38 404.351H1141.73L1140.43 433.301H1136.63ZM1138.53 445.201C1136.43 445.201 1134.83 443.601 1134.83 441.501C1134.83 439.451 1136.43 437.851 1138.53 437.851C1140.63 437.851 1142.23 439.451 1142.23 441.501C1142.23 443.601 1140.63 445.201 1138.53 445.201Z" fill="#091F5B"/>
<g clip-path="url(#clip0_419_6)">
<path d="M191.964 538.142H118.535C117.247 538.142 116.203 539.187 116.203 540.476V541.77C116.203 543.059 117.247 544.104 118.535 544.104H191.964C193.251 544.104 194.295 543.059 194.295 541.77V540.476C194.295 539.187 193.251 538.142 191.964 538.142Z" fill="#EDF0F5"/>
<path d="M657.173 538.142H637.08C635.793 538.142 634.749 539.187 634.749 540.476V541.77C634.749 543.059 635.793 544.104 637.08 544.104H657.173C658.461 544.104 659.505 543.059 659.505 541.77V540.476C659.505 539.187 658.461 538.142 657.173 538.142Z" fill="#EDF0F5"/>
<path d="M330.134 538.142H256.705C255.417 538.142 254.374 539.187 254.374 540.476V541.77C254.374 543.059 255.417 544.104 256.705 544.104H330.134C331.422 544.104 332.466 543.059 332.466 541.77V540.476C332.466 539.187 331.422 538.142 330.134 538.142Z" fill="#EDF0F5"/>
<path d="M437.939 538.142H364.51C363.222 538.142 362.178 539.187 362.178 540.476V541.77C362.178 543.059 363.222 544.104 364.51 544.104H437.939C439.227 544.104 440.271 543.059 440.271 541.77V540.476C440.271 539.187 439.227 538.142 437.939 538.142Z" fill="#EDF0F5"/>
<path d="M569.954 538.142H469.863C468.576 538.142 467.532 539.187 467.532 540.476V541.77C467.532 543.059 468.576 544.104 469.863 544.104H569.954C571.242 544.104 572.286 543.059 572.286 541.77V540.476C572.286 539.187 571.242 538.142 569.954 538.142Z" fill="#EDF0F5"/>
<path d="M216.573 210.277C216.573 210.277 208.818 204.995 197.48 209.063C186.141 213.131 183.596 228.417 186.381 240.836C189.179 253.241 173.563 295.604 173.563 295.604C173.563 295.604 181.677 307.036 210.044 302.66C210.044 302.66 231.19 264.178 229.617 236.567C228.045 208.956 216.573 210.29 216.573 210.29V210.277Z" fill="#091F5B"/>
<path d="M225.527 258.016C236.186 254.601 242.715 263.485 248.817 280.025C254.92 296.565 256.985 298.219 256.985 298.219L280.555 313.385L278.597 322.228C278.597 322.228 256.159 313.438 250.736 307.836C245.313 302.247 229.711 273.902 229.711 273.902L225.54 258.016H225.527Z" fill="#FFC08D"/>
<path d="M173.576 364.845C173.576 364.845 168.953 388.295 169.713 423.589C169.713 423.589 151.485 450.493 166.528 527.257H174.416C174.416 527.257 180.865 461.951 185.795 444.251C190.725 426.55 208.939 421.121 209.925 367.313L173.576 364.845Z" fill="#FFD2A9"/>
<path d="M137.508 433.793C132.925 418.667 121.146 393.337 90.9138 359.003C90.9138 359.003 89.1151 358.069 86.6768 359.563C84.1052 361.137 84.1052 362.991 84.1052 362.991C84.1052 362.991 99.268 396.058 108.928 420.281C112.179 428.431 120.054 433.793 128.821 433.793H137.508Z" fill="#FFD2A9"/>
<path d="M192.55 463.045C192.55 463.045 192.656 474.33 185.262 474.516C174.815 474.796 174.429 463.405 162.597 463.779C150.766 464.152 126.356 467.113 118.588 448.599C114.577 439.035 120.067 426.75 107.129 417.493C94.1915 408.236 100.467 397.872 107.129 392.323C113.791 386.788 104.265 380.719 111.193 377.891C112.845 377.224 114.471 377.304 115.99 377.797C116.882 378.104 117.708 378.544 118.508 379.065C122.172 381.506 124.757 385.761 124.757 385.761C144.357 332.019 179.252 324.923 179.252 324.923L213.762 336.848C214.588 420.468 192.563 463.032 192.563 463.032L192.55 463.045Z" fill="#091F5B"/>
<path d="M225.527 258.016C225.527 258.016 217.479 260.737 206.02 258.989C194.562 257.242 190.844 250.053 182.797 254.681C170.712 261.631 176.361 285.573 179.399 298.032C180.531 302.674 181.97 314.865 179.239 324.936C179.239 324.936 195.335 337.474 213.748 336.847L223.795 314.972C223.795 314.972 245.646 288.801 225.527 258.016Z" fill="#6F96D1"/>
<path d="M205.074 237.928C205.074 237.928 206.42 249.252 202.223 259.563C202.223 259.563 208.192 268.393 213.895 262.578C213.895 262.578 214.415 252.2 220.824 240.449C225.114 232.579 205.061 237.928 205.061 237.928H205.074Z" fill="#FFC08D"/>
<path d="M195.921 238.315C195.921 238.315 190.884 235.127 191.444 240.049C192.11 245.758 197.666 246.865 198.253 244.877C198.839 242.876 195.908 238.315 195.908 238.315H195.921Z" fill="#FFD2A9"/>
<path d="M224.834 232.139C224.834 232.139 228.032 227.097 229.618 231.792C231.456 237.234 226.899 240.609 225.514 239.062C224.128 237.514 224.834 232.139 224.834 232.139Z" fill="#FFD2A9"/>
<path d="M214.428 255.362C205.288 257.416 198.786 252.587 194.775 234.66C192.71 225.416 196.134 218.68 206.38 216.386C216.627 214.092 222.196 218.8 224.275 228.044C228.578 247.305 223.875 253.241 214.428 255.362Z" fill="#FFD2A9"/>
<path d="M222.676 235.127C223.035 236.007 222.449 237.101 221.343 237.554C220.237 238.008 219.052 237.661 218.678 236.781C218.319 235.9 218.905 234.807 220.011 234.353C221.117 233.9 222.303 234.246 222.676 235.127Z" fill="#FFB68D"/>
<path d="M203.982 239.849C204.128 240.796 203.289 241.716 202.117 241.89C200.931 242.076 199.865 241.463 199.705 240.516C199.558 239.569 200.398 238.648 201.57 238.475C202.756 238.288 203.822 238.902 203.982 239.849Z" fill="#FFB68D"/>
<path d="M216.307 226.777C216.213 226.777 216.134 226.75 216.054 226.697C214.495 225.656 212.27 226.203 212.256 226.216C212.003 226.283 211.75 226.123 211.683 225.883C211.617 225.63 211.763 225.376 212.016 225.309C212.123 225.283 214.668 224.643 216.573 225.923C216.786 226.07 216.84 226.363 216.706 226.577C216.613 226.71 216.467 226.79 216.32 226.79L216.307 226.777Z" fill="black"/>
<path d="M199.092 230.632C199.012 230.632 198.932 230.605 198.852 230.565C198.626 230.432 198.559 230.138 198.692 229.925C199.878 227.951 202.45 227.444 202.556 227.43C202.809 227.39 203.049 227.55 203.102 227.804C203.156 228.057 202.983 228.297 202.729 228.351C202.703 228.351 200.464 228.804 199.492 230.418C199.398 230.565 199.252 230.645 199.092 230.645V230.632Z" fill="black"/>
<path d="M216.706 231.792C216.96 232.926 216.653 233.967 216.027 234.1C215.401 234.247 214.681 233.433 214.428 232.299C214.175 231.166 214.481 230.125 215.108 229.992C215.734 229.845 216.453 230.659 216.706 231.792Z" fill="black"/>
<path d="M204.009 234.527C204.262 235.661 203.955 236.701 203.329 236.834C202.703 236.981 201.983 236.167 201.73 235.034C201.477 233.9 201.784 232.859 202.41 232.726C203.036 232.579 203.756 233.393 204.009 234.527Z" fill="black"/>
<path d="M208.113 245.291C208.113 245.291 213.988 244.811 216.573 242.623C216.573 242.623 215.867 247.212 212.669 247.532C209.472 247.852 208.113 245.291 208.113 245.291Z" fill="black"/>
<path d="M213.509 231.925C213.509 231.925 213.722 228.938 214.854 228.898C216 228.858 217.373 231.058 217.373 231.058L218.798 229.831L217.226 230.405C217.226 230.405 215.827 228.097 214.734 228.337C213.189 228.671 213.509 231.925 213.509 231.925Z" fill="black"/>
<path d="M204.701 234.246C204.701 234.246 203.236 231.632 202.183 232.085C201.131 232.539 200.837 235.113 200.837 235.113L199.025 234.62L200.691 234.473C200.691 234.473 200.971 231.779 202.063 231.539C203.609 231.178 204.701 234.26 204.701 234.26V234.246Z" fill="black"/>
<path d="M211.07 239.995L210.604 239.102C211.364 238.702 211.43 238.155 211.35 237.781C211.244 237.234 210.804 236.808 210.484 236.781C210.298 236.781 210.138 236.928 210.018 237.248L209.072 236.901C209.471 235.807 210.244 235.754 210.551 235.767C211.35 235.834 212.136 236.621 212.336 237.568C212.536 238.555 212.07 239.462 211.07 239.995Z" fill="black"/>
<path d="M196.64 241.543C196.64 241.543 193.816 231.152 195.495 223.816C195.495 223.816 203.449 212.731 218.798 218.213C218.798 218.213 223.355 225.55 225.607 235.82C225.607 235.82 226.18 232.126 224.648 223.909C223.115 215.692 215.84 210.584 205.847 212.238C195.868 213.878 185.182 223.829 196.627 241.543H196.64Z" fill="#091F5B"/>
<path d="M212.736 215.905C212.736 215.905 213.349 218.613 210.711 225.603C210.711 225.603 208.819 223.615 206.594 225.603C204.368 227.59 199.865 226.923 198.333 227.99C196.8 229.057 196.8 231.512 196.8 231.512C196.8 231.512 195.468 228.457 196.8 224.802C196.8 224.802 193.802 228.617 194.202 233.312C194.202 233.312 190.138 232.659 190.325 225.95C190.511 219.24 200.025 208.396 210.711 209.103C221.397 209.81 223.928 226.736 223.928 226.736C223.928 226.736 222.955 225.976 221.423 226.31C221.423 226.31 221.183 222.722 218.785 218.213C218.785 218.213 219.891 221.468 218.785 224.989C218.785 224.989 215.814 223.428 213.469 223.922C213.469 223.922 214.921 221.081 212.723 215.919L212.736 215.905Z" fill="#091F5B"/>
<path d="M180.078 256.816C185.275 252.707 189.325 257.936 190.311 265.152C191.297 272.368 181.904 314.946 174.656 313.372C171.858 312.771 170.712 301.607 170.712 301.607C170.712 301.607 173.55 289.642 175.375 271.621C176.215 263.338 177.347 258.95 180.065 256.816H180.078Z" fill="#FFD2A9"/>
<path d="M164.956 307.355C157.961 300.673 145.409 278.531 142.225 267.246L147.541 265.112C147.541 265.112 163.53 288.014 170.818 293.79C178.107 299.566 180.678 305.995 177.414 311.504C174.163 317.013 166.435 308.769 164.956 307.355Z" fill="#FFD2A9"/>
<path d="M144.41 252.48C144.05 259.723 149.94 261.444 147.328 267.006C146.782 268.153 145.969 268.767 145.116 269.06C143.491 269.634 141.692 269.087 140.493 267.873C137.695 265.032 133.351 262.031 131.046 260.71C128.421 259.19 129.913 258.776 129.913 258.776C129.66 258.656 129.407 258.563 129.167 258.456C127.302 257.669 125.796 257.376 127.155 256.549C128.688 255.601 134.097 257.576 134.097 257.576C127.049 252.88 125.143 254.028 126.423 253.027C128.181 251.667 134.87 254.801 135.07 254.895C131.352 251.373 128.648 250.573 130.127 250.039C131.619 249.506 138.987 254.841 141.679 256.842C142.278 257.295 142.651 257.576 142.651 257.576C142.558 251.653 144.423 252.467 144.423 252.467L144.41 252.48Z" fill="#FFD2A9"/>
<path d="M141.665 256.842C142.265 257.295 142.638 257.576 142.638 257.576C142.638 257.576 141.372 259.696 143.011 262.444C143.011 262.444 140.013 260.47 141.665 256.829V256.842Z" fill="#FFC08D"/>
<path d="M135.483 261.004C134.857 260.657 131.299 258.656 129.887 258.776C129.634 258.656 129.38 258.563 129.141 258.456C130.087 257.202 134.777 260.497 135.483 261.004Z" fill="#FFC08D"/>
<path d="M163.424 368.487C163.424 369.274 162.784 369.914 161.998 369.914C161.212 369.914 160.572 369.274 160.572 368.487C160.572 367.7 161.212 367.06 161.998 367.06C162.784 367.06 163.424 367.7 163.424 368.487Z" fill="#FFF9EF"/>
<path d="M188.793 378.277C188.793 379.064 188.153 379.705 187.367 379.705C186.581 379.705 185.941 379.064 185.941 378.277C185.941 377.49 186.581 376.85 187.367 376.85C188.153 376.85 188.793 377.49 188.793 378.277Z" fill="#FFF9EF"/>
<path d="M210.404 383.533C210.404 384.32 209.765 384.96 208.978 384.96C208.192 384.96 207.553 384.32 207.553 383.533C207.553 382.746 208.192 382.105 208.978 382.105C209.765 382.105 210.404 382.746 210.404 383.533Z" fill="#FFF9EF"/>
<path d="M177.187 349.893C177.187 350.68 176.548 351.32 175.762 351.32C174.975 351.32 174.336 350.68 174.336 349.893C174.336 349.106 174.975 348.465 175.762 348.465C176.548 348.465 177.187 349.106 177.187 349.893Z" fill="#FFF9EF"/>
<path d="M180.558 364.845C181.346 364.845 181.984 364.206 181.984 363.418C181.984 362.63 181.346 361.991 180.558 361.991C179.771 361.991 179.133 362.63 179.133 363.418C179.133 364.206 179.771 364.845 180.558 364.845Z" fill="#FFF9EF"/>
<path d="M204.475 371.128C204.475 371.915 203.835 372.555 203.049 372.555C202.263 372.555 201.624 371.915 201.624 371.128C201.624 370.341 202.263 369.701 203.049 369.701C203.835 369.701 204.475 370.341 204.475 371.128Z" fill="#FFF9EF"/>
<path d="M207.566 347.798C207.566 348.585 206.927 349.226 206.141 349.226C205.354 349.226 204.715 348.585 204.715 347.798C204.715 347.011 205.354 346.371 206.141 346.371C206.927 346.371 207.566 347.011 207.566 347.798Z" fill="#FFF9EF"/>
<path d="M191.404 344.371C192.191 344.371 192.83 343.732 192.83 342.943C192.83 342.155 192.191 341.516 191.404 341.516C190.617 341.516 189.978 342.155 189.978 342.943C189.978 343.732 190.617 344.371 191.404 344.371Z" fill="#FFF9EF"/>
<path d="M150.832 396.258C150.832 397.045 150.193 397.685 149.407 397.685C148.621 397.685 147.981 397.045 147.981 396.258C147.981 395.471 148.621 394.831 149.407 394.831C150.193 394.831 150.832 395.471 150.832 396.258Z" fill="#FFF9EF"/>
<path d="M130.566 390.202C130.566 390.989 129.927 391.629 129.141 391.629C128.355 391.629 127.715 390.989 127.715 390.202C127.715 389.415 128.355 388.775 129.141 388.775C129.927 388.775 130.566 389.415 130.566 390.202Z" fill="#FFF9EF"/>
<path d="M118.495 379.064C118.242 379.451 117.802 379.704 117.296 379.704C116.509 379.704 115.87 379.064 115.87 378.277C115.87 378.104 115.897 377.93 115.976 377.784C116.869 378.09 117.695 378.531 118.495 379.051V379.064Z" fill="#FFF9EF"/>
<path d="M156.682 416.253C157.469 416.253 158.107 415.614 158.107 414.825C158.107 414.037 157.469 413.398 156.682 413.398C155.894 413.398 155.256 414.037 155.256 414.825C155.256 415.614 155.894 416.253 156.682 416.253Z" fill="#FFF9EF"/>
<path d="M121.719 434.993C121.719 435.78 121.08 436.421 120.294 436.421C119.507 436.421 118.868 435.78 118.868 434.993C118.868 434.206 119.507 433.566 120.294 433.566C121.08 433.566 121.719 434.206 121.719 434.993Z" fill="#FFF9EF"/>
<path d="M135.163 424.189C135.951 424.189 136.589 423.55 136.589 422.762C136.589 421.974 135.951 421.335 135.163 421.335C134.376 421.335 133.738 421.974 133.738 422.762C133.738 423.55 134.376 424.189 135.163 424.189Z" fill="#FFF9EF"/>
<path d="M113.032 413.372C113.819 413.372 114.458 412.733 114.458 411.944C114.458 411.156 113.819 410.517 113.032 410.517C112.244 410.517 111.606 411.156 111.606 411.944C111.606 412.733 112.244 413.372 113.032 413.372Z" fill="#FFF9EF"/>
<path d="M132.312 454.561C132.312 455.348 131.672 455.989 130.886 455.989C130.1 455.989 129.46 455.348 129.46 454.561C129.46 453.774 130.1 453.134 130.886 453.134C131.672 453.134 132.312 453.774 132.312 454.561Z" fill="#FFF9EF"/>
<path d="M145.862 379.705C145.862 380.492 145.223 381.132 144.437 381.132C143.651 381.132 143.011 380.492 143.011 379.705C143.011 378.918 143.651 378.277 144.437 378.277C145.223 378.277 145.862 378.918 145.862 379.705Z" fill="#FFF9EF"/>
<path d="M159.52 355.735C159.52 356.522 158.88 357.162 158.094 357.162C157.308 357.162 156.668 356.522 156.668 355.735C156.668 354.948 157.308 354.308 158.094 354.308C158.88 354.308 159.52 354.948 159.52 355.735Z" fill="#FFF9EF"/>
<path d="M174.975 335.78C174.975 336.567 174.336 337.208 173.55 337.208C172.764 337.208 172.124 336.567 172.124 335.78C172.124 334.993 172.764 334.353 173.55 334.353C174.336 334.353 174.975 334.993 174.975 335.78Z" fill="#FFF9EF"/>
<path d="M143.651 364.845C143.651 365.632 143.011 366.272 142.225 366.272C141.439 366.272 140.799 365.632 140.799 364.845C140.799 364.058 141.439 363.418 142.225 363.418C143.011 363.418 143.651 364.058 143.651 364.845Z" fill="#FFF9EF"/>
<path d="M160.945 341.516C160.945 342.303 160.306 342.943 159.519 342.943C158.733 342.943 158.094 342.303 158.094 341.516C158.094 340.729 158.733 340.089 159.519 340.089C160.306 340.089 160.945 340.729 160.945 341.516Z" fill="#FFF9EF"/>
<path d="M133.738 405.622C133.738 406.409 133.098 407.049 132.312 407.049C131.526 407.049 130.886 406.409 130.886 405.622C130.886 404.835 131.526 404.194 132.312 404.194C133.098 404.194 133.738 404.835 133.738 405.622Z" fill="#FFF9EF"/>
<path d="M115.87 393.043C115.87 393.83 115.23 394.47 114.444 394.47C113.658 394.47 113.019 393.83 113.019 393.043C113.019 392.256 113.658 391.616 114.444 391.616C115.23 391.616 115.87 392.256 115.87 393.043Z" fill="#FFF9EF"/>
<path d="M166.262 390.202C167.049 390.202 167.687 389.563 167.687 388.775C167.687 387.987 167.049 387.348 166.262 387.348C165.474 387.348 164.836 387.987 164.836 388.775C164.836 389.563 165.474 390.202 166.262 390.202Z" fill="#FFF9EF"/>
<path d="M195.668 397.685C196.455 397.685 197.093 397.046 197.093 396.258C197.093 395.47 196.455 394.831 195.668 394.831C194.88 394.831 194.242 395.47 194.242 396.258C194.242 397.046 194.88 397.685 195.668 397.685Z" fill="#FFF9EF"/>
<path d="M195.668 355.735C195.668 356.522 195.028 357.162 194.242 357.162C193.456 357.162 192.816 356.522 192.816 355.735C192.816 354.948 193.456 354.308 194.242 354.308C195.028 354.308 195.668 354.948 195.668 355.735Z" fill="#FFF9EF"/>
<path d="M212.762 358.709C212.762 359.496 212.123 360.137 211.337 360.137C210.551 360.137 209.911 359.496 209.911 358.709C209.911 357.922 210.551 357.282 211.337 357.282C212.123 357.282 212.762 357.922 212.762 358.709Z" fill="#FFF9EF"/>
<path d="M178.613 407.049C178.613 407.836 177.973 408.476 177.187 408.476C176.401 408.476 175.761 407.836 175.761 407.049C175.761 406.262 176.401 405.622 177.187 405.622C177.973 405.622 178.613 406.262 178.613 407.049Z" fill="#FFF9EF"/>
<path d="M164.836 433.793C165.623 433.793 166.262 433.154 166.262 432.366C166.262 431.577 165.623 430.938 164.836 430.938C164.048 430.938 163.41 431.577 163.41 432.366C163.41 433.154 164.048 433.793 164.836 433.793Z" fill="#FFF9EF"/>
<path d="M143.011 437.848C143.799 437.848 144.437 437.209 144.437 436.421C144.437 435.632 143.799 434.993 143.011 434.993C142.224 434.993 141.585 435.632 141.585 436.421C141.585 437.209 142.224 437.848 143.011 437.848Z" fill="#FFF9EF"/>
<path d="M203.049 416.253C203.837 416.253 204.475 415.614 204.475 414.825C204.475 414.037 203.837 413.398 203.049 413.398C202.262 413.398 201.624 414.037 201.624 414.825C201.624 415.614 202.262 416.253 203.049 416.253Z" fill="#FFF9EF"/>
<path d="M184.822 425.616C184.822 426.403 184.182 427.044 183.396 427.044C182.61 427.044 181.971 426.403 181.971 425.616C181.971 424.829 182.61 424.189 183.396 424.189C184.182 424.189 184.822 424.829 184.822 425.616Z" fill="#FFF9EF"/>
<path d="M155.256 457.403C155.256 458.19 154.616 458.83 153.83 458.83C153.044 458.83 152.405 458.19 152.405 457.403C152.405 456.616 153.044 455.975 153.83 455.975C154.616 455.975 155.256 456.616 155.256 457.403Z" fill="#FFF9EF"/>
<path d="M175.775 451.413C176.562 451.413 177.2 450.774 177.2 449.986C177.2 449.198 176.562 448.559 175.775 448.559C174.987 448.559 174.349 449.198 174.349 449.986C174.349 450.774 174.987 451.413 175.775 451.413Z" fill="#FFF9EF"/>
<path d="M196.907 443.037C197.694 443.037 198.333 442.398 198.333 441.609C198.333 440.821 197.694 440.182 196.907 440.182C196.119 440.182 195.481 440.821 195.481 441.609C195.481 442.398 196.119 443.037 196.907 443.037Z" fill="#FFF9EF"/>
<path d="M188.793 466.099C188.793 466.886 188.153 467.527 187.367 467.527C186.581 467.527 185.941 466.886 185.941 466.099C185.941 465.312 186.581 464.672 187.367 464.672C188.153 464.672 188.793 465.312 188.793 466.099Z" fill="#FFF9EF"/>
<path d="M187.234 541.063H163.877C162.358 536.715 165.169 532.339 164.689 528.498C163.877 522.015 167.647 525.59 167.647 525.59C168.314 518.614 178.107 517.293 178 520.401C177.84 524.976 178.72 527.804 180.025 529.698C182.664 533.5 186.981 533.473 187.713 536.194C187.793 536.461 187.847 536.728 187.887 536.968C188.606 540.369 187.22 541.036 187.22 541.036L187.234 541.063Z" fill="#091F5B"/>
<path d="M187.9 536.995C183.063 538.115 171.911 536.648 171.471 533.847C171.045 531.126 177.054 529.845 180.039 529.725C182.677 533.527 186.994 533.5 187.727 536.221C187.807 536.488 187.86 536.755 187.9 536.995Z" fill="#6F96D1"/>
<path d="M91.207 359.937C88.7154 357.669 84.6783 361.417 84.6783 361.417C84.6783 361.417 86.8501 364.645 85.451 365.953C84.052 367.26 82.4132 364.285 79.6551 365.579C79.4286 365.686 79.2021 365.819 78.9756 365.966C76.8171 367.26 74.5653 369.967 72.7532 372.022C72.3801 372.435 72.0337 372.822 71.7006 373.155C69.5821 375.383 64.1325 376.677 63.1066 370.754C62.0806 364.832 68.7427 357.883 76.0443 351.507C83.3458 345.131 88.0759 348.919 88.0759 348.919C88.0759 348.919 89.7281 351.6 89.7281 353.267C89.7281 354.935 91.207 355.762 92.0331 357.336C92.8592 358.91 91.207 359.923 91.207 359.923V359.937Z" fill="#091F5B"/>
<path d="M78.9757 365.966C76.8172 367.26 74.5654 369.967 72.7533 372.022C70.0219 372.675 67.5569 372.475 67.1705 369.901C66.2379 363.685 78.6292 355.775 77.6433 360.137C77.1369 362.324 78.003 364.419 78.9757 365.952V365.966Z" fill="#6F96D1"/>
<path d="M511.515 530.952C510.369 530.352 509.303 529.018 508.344 527.337C508.344 527.337 507.517 522.362 508.344 517.133C509.17 511.905 506.891 507.636 499.496 506.022C492.301 504.462 488.038 507.93 489.703 522.402C488.611 528.418 488.384 535.274 490.876 541.063H513.007C513.007 541.063 516.498 533.567 511.515 530.952Z" fill="#EDF0F5"/>
<path d="M530.941 452.947C530.941 452.947 530.941 467.393 522.8 482.199C514.513 497.285 504.266 517.974 504.266 517.974C504.266 517.974 497.444 524.643 493.101 513.598C493.101 513.598 496.165 475.156 503.187 461.097C510.209 447.025 530.928 452.947 530.928 452.947H530.941Z" fill="#FFD2A9"/>
<path d="M637.081 405.929C637.081 405.929 650.258 461.431 658.652 476.077C658.652 476.077 656.72 482.199 647.647 484.053C647.647 484.053 618.96 441.85 617.121 424.069C615.283 406.289 637.094 405.929 637.094 405.929H637.081Z" fill="#FFD2A9"/>
<path d="M643.45 418.987C639.945 427.444 612.857 427.897 612.857 427.897L610.792 424.843L610.246 424.042L606.009 417.786C606.009 417.786 561.12 373.715 552.38 377.41H552.366C552.113 377.53 551.86 377.664 551.62 377.837C545.611 382.132 545.051 405.662 537.95 445.157C537.27 448.906 535.764 453.267 534.619 456.295C534.485 456.615 534.365 456.936 534.245 457.229C533.593 458.896 533.14 459.963 533.14 459.963C505.745 471.075 496.698 449.119 496.698 449.119C496.698 449.119 497.018 448.479 497.498 447.465C497.604 447.238 497.724 446.985 497.844 446.718C499.283 443.543 501.575 438.048 501.548 435.153C501.522 431.966 501.495 428.898 501.468 425.963C501.468 425.696 501.468 425.443 501.455 425.189C501.415 415.692 501.428 407.449 501.482 400.286V399.526C501.508 396.405 501.562 393.483 501.615 390.762V389.989C501.855 377.504 502.254 369.167 502.681 363.618C502.694 363.365 502.721 363.098 502.734 362.858C503.494 353.507 504.293 352.6 504.293 352.6L498.803 314.412H558.682C558.682 314.412 567.676 323.429 579.347 335.34C579.601 335.58 579.84 335.82 580.067 336.06C584.304 340.369 588.874 345.051 593.458 349.799C593.644 349.986 593.831 350.173 593.991 350.346C595.789 352.213 597.601 354.081 599.387 355.935C599.613 356.162 599.813 356.388 600.04 356.615C606.049 362.844 611.871 368.994 616.855 374.369C617.028 374.542 617.201 374.729 617.361 374.903C624.183 382.292 629.379 388.201 631.165 390.962C635.908 398.232 639.612 407.702 641.651 413.545C641.757 413.825 641.837 414.065 641.931 414.318C642.89 417.16 643.423 418.974 643.423 418.974L643.45 418.987Z" fill="#091F5B"/>
<path d="M513.273 358.336C510.835 361.23 507.278 363.005 502.694 363.631C502.707 363.378 502.734 363.111 502.747 362.871C507.064 362.244 510.409 360.564 512.7 357.842C516.818 352.987 516.151 346.425 516.138 346.371L516.884 346.278C516.911 346.558 517.59 353.227 513.273 358.336Z" fill="#F2F1DF"/>
<path d="M580.093 336.074C579.854 336.087 579.64 336.1 579.401 336.1C572.739 336.1 565.797 328.818 565.437 328.444L565.97 327.924C566.063 328.031 572.978 335.287 579.374 335.34C579.627 335.58 579.867 335.82 580.093 336.06V336.074Z" fill="#F2F1DF"/>
<path d="M534.632 456.309C534.499 456.629 534.379 456.949 534.259 457.242C529.822 458.87 525.758 459.537 522.041 459.537C510.209 459.537 502.015 452.68 497.511 447.478C497.618 447.252 497.738 446.998 497.857 446.731C503.613 453.481 515.912 463.445 534.632 456.295V456.309Z" fill="#F2F1DF"/>
<path d="M550.714 363.672C551.7 367.927 552.34 372.555 552.366 377.424C552.113 377.544 551.86 377.677 551.62 377.851C551.594 355.495 538.656 338.048 538.509 337.848L539.096 337.408C539.215 337.554 546.877 347.919 550.501 362.898C552.007 361.911 553.033 360.484 553.459 358.643C555.324 350.8 546.85 337.968 546.77 337.835L547.383 337.421C547.743 337.968 556.11 350.64 554.192 358.803C553.685 360.937 552.5 362.551 550.701 363.658L550.714 363.672Z" fill="#F2F1DF"/>
<path d="M617.388 374.929C615.189 377.33 613.111 379.371 612.924 379.545L612.524 379.945L612.338 379.411C609.433 371.808 590.793 355.348 590.606 355.188L590.38 354.975L593.484 349.826C593.671 350.013 593.857 350.199 594.017 350.373L591.419 354.695C595.043 355.948 597.615 356.175 599.427 355.948C599.653 356.175 599.853 356.402 600.08 356.629C599.467 356.735 598.827 356.789 598.148 356.789C596.482 356.789 594.563 356.442 592.418 355.802C596.655 359.617 609.806 371.821 612.817 378.624C613.99 377.464 615.469 375.943 616.895 374.382C617.068 374.556 617.241 374.743 617.401 374.916L617.388 374.929Z" fill="#F2F1DF"/>
<path d="M515.112 425.856L514.819 425.91C514.539 425.99 511.182 426.683 507.318 426.683C505.386 426.683 503.334 426.51 501.495 425.99C501.495 425.723 501.495 425.47 501.482 425.216C506.358 426.617 512.887 425.536 514.366 425.256L513.127 394.444C512.434 396.138 511.062 398.445 508.477 399.713C507.251 400.34 505.879 400.633 504.36 400.633C503.454 400.633 502.508 400.526 501.508 400.313V399.553C504.067 400.139 506.292 399.979 508.13 399.046C511.262 397.485 512.514 394.164 512.887 392.843C510.422 393.217 505.426 391.949 501.628 390.789V390.015C505.732 391.256 511.275 392.696 513.273 392.003L513.753 391.843L515.112 425.856Z" fill="#F2F1DF"/>
<path d="M641.957 414.332C637.653 418.587 628.833 425.083 615.269 425.083C613.83 425.083 612.338 425.003 610.792 424.843L610.246 424.042C626.741 425.937 637.081 418.187 641.677 413.572C641.784 413.838 641.864 414.078 641.957 414.332Z" fill="#F2F1DF"/>
<path d="M569.768 152.04C569.768 152.04 568.115 148.252 561.174 148.252C555.817 148.252 553.765 151.213 553.765 151.213C550.554 160.59 547.117 196.511 545.878 197.779C545.251 198.432 505.506 225.216 505.506 225.216C527.077 225.616 540.521 252.227 540.521 252.227C541.214 243.477 565.571 208.823 565.837 205.742C566.33 199.913 576.629 173.876 569.754 152.04H569.768Z" fill="#6F96D1"/>
<path d="M500.775 339.822C500.775 339.822 500.576 347.318 503.001 347.812C505.426 348.305 525.145 354.148 547.823 343.824C570.5 333.499 574.444 325.843 567.796 320.174C561.133 314.492 500.775 339.835 500.775 339.835V339.822Z" fill="#6F96D1"/>
<path d="M491.688 230.405C491.688 230.405 471.049 227.964 459.218 233.086C459.218 233.086 455.913 247.745 472.182 280.558C488.437 313.371 484.667 334.033 503.001 341.81C519.256 348.706 567.183 328.177 568.688 321.375C572.472 304.234 543.173 274.169 541.321 256.749C539.468 239.328 522.454 213.131 491.688 230.405Z" fill="#344EAD"/>
<path d="M459.218 233.086C444.801 238.208 428.572 254.428 428.546 262.244C428.519 270.06 442.083 273.075 442.083 273.075L464.307 262.244C464.307 262.244 470.663 257.802 466.613 244.85C462.562 231.898 459.218 233.086 459.218 233.086Z" fill="#6F96D1"/>
<path d="M518.483 247.545C514.18 247.545 508.823 245.998 505.506 243.624C503.68 242.316 502.588 240.849 502.348 239.369C501.535 234.233 506.518 231.632 506.731 231.525L507.398 232.846C507.224 232.939 503.161 235.087 503.8 239.142C503.973 240.222 504.853 241.356 506.358 242.423C510.076 245.078 516.511 246.638 520.695 245.891C522.587 245.558 523.813 244.877 524.359 243.877C525.025 242.65 524.452 241.249 524.452 241.236L525.812 240.649C525.851 240.729 526.678 242.69 525.665 244.557C524.892 245.985 523.307 246.932 520.948 247.345C520.189 247.478 519.349 247.545 518.47 247.545H518.483Z" fill="#CFD8DC"/>
<path d="M500.189 263.165C496.991 263.165 491.702 261.831 490.956 256.589C490.583 253.921 490.822 251.694 491.036 249.733C491.355 246.838 491.595 244.557 489.916 241.823C487.132 237.301 483.348 237.008 483.188 236.994L483.281 235.514C483.468 235.514 487.971 235.847 491.169 241.049C493.114 244.224 492.821 246.985 492.501 249.906C492.288 251.88 492.062 253.908 492.421 256.389C493.221 262.044 500.429 261.698 500.736 261.684L500.829 263.165C500.629 263.165 500.416 263.178 500.203 263.178L500.189 263.165Z" fill="#CFD8DC"/>
<path d="M504.679 236.581C504.679 236.581 515.592 229.138 513.007 221.094C510.422 213.038 475.287 213.598 466.226 223.228C457.166 232.859 485.826 239.248 485.826 239.248C488.051 234.766 502.228 234.273 504.693 236.594L504.679 236.581Z" fill="#6F96D1"/>
<path d="M485.066 235.327C479.883 233.566 476.819 229.831 477.925 225.51C479.031 221.188 501.295 221.081 505.505 224.522C509.716 227.964 503.787 241.689 485.053 235.327H485.066Z" fill="#091F5B"/>
<path d="M482.602 223.188C482.602 223.188 487.185 231.018 485.066 235.327C485.066 235.327 500.776 240.755 500.776 231.952C500.776 231.952 497.818 225.349 498.937 221.094L482.602 223.188Z" fill="#FFC08D"/>
<path d="M477.365 216.346C477.365 216.346 469.651 203.967 470.357 192.149C470.716 186.24 473.754 183.919 473.754 183.919C473.754 183.919 471.303 180.504 473.928 175.289C473.928 175.289 477.565 179.504 490.329 178.17C502.641 176.89 503.867 185.667 503.867 185.667C512.661 186.974 506.731 213.611 500.589 216.332H477.365V216.346Z" fill="#091F5B"/>
<path d="M474.087 204.914C474.087 204.914 469.651 200.486 469.104 205.661C468.478 211.664 473.914 214.078 474.98 212.17C476.046 210.263 474.087 204.914 474.087 204.914Z" fill="#FFD2A9"/>
<path d="M505.159 205.234C505.159 205.234 509.596 200.806 510.143 205.981C510.769 211.984 505.333 214.398 504.267 212.491C503.201 210.583 505.159 205.234 505.159 205.234Z" fill="#FFD2A9"/>
<path d="M489.157 226.656C479.311 226.656 473.754 220.214 473.754 200.912C473.754 190.948 478.818 184.839 489.85 184.839C500.882 184.839 505.519 190.948 505.519 200.912C505.519 221.654 499.337 226.656 489.157 226.656Z" fill="#FFD2A9"/>
<path d="M502.254 207.795C502.428 208.782 501.562 209.769 500.322 209.983C499.083 210.196 497.937 209.569 497.764 208.582C497.591 207.595 498.457 206.608 499.696 206.395C500.935 206.181 502.081 206.808 502.254 207.795Z" fill="#FFB68D"/>
<path d="M482.002 208.342C481.935 209.343 480.869 210.09 479.617 210.009C478.364 209.929 477.405 209.049 477.472 208.049C477.538 207.048 478.604 206.301 479.857 206.381C481.109 206.461 482.069 207.342 482.002 208.342Z" fill="#FFB68D"/>
<path d="M497.911 197.445C497.778 197.471 497.644 197.445 497.538 197.351C495.966 196.151 493.621 196.578 493.581 196.578C493.314 196.618 493.061 196.458 493.008 196.177C492.954 195.911 493.128 195.657 493.394 195.604C493.501 195.577 496.219 195.097 498.124 196.564C498.337 196.724 498.377 197.044 498.217 197.258C498.137 197.365 498.018 197.431 497.898 197.445H497.911Z" fill="black"/>
<path d="M479.071 197.511C478.951 197.498 478.831 197.431 478.751 197.338C478.578 197.124 478.604 196.818 478.818 196.644C480.683 195.11 483.414 195.524 483.521 195.537C483.787 195.577 483.974 195.83 483.934 196.097C483.894 196.364 483.628 196.551 483.374 196.511C483.361 196.511 480.963 196.164 479.444 197.404C479.337 197.498 479.204 197.524 479.071 197.511Z" fill="black"/>
<path d="M496.898 203.007C496.898 204.234 496.352 205.221 495.672 205.221C494.993 205.221 494.447 204.234 494.447 203.007C494.447 201.78 494.993 200.792 495.672 200.792C496.352 200.792 496.898 201.78 496.898 203.007Z" fill="black"/>
<path d="M483.748 203.007C483.748 204.234 483.201 205.221 482.522 205.221C481.842 205.221 481.296 204.234 481.296 203.007C481.296 201.78 481.842 200.792 482.522 200.792C483.201 200.792 483.748 201.78 483.748 203.007Z" fill="black"/>
<path d="M476.766 186.987C476.766 186.987 487.252 190.829 502.294 189.748C502.294 189.748 505.506 193.75 505.119 207.875C505.119 207.875 513.926 182.438 488.211 182.438C462.495 182.438 474.087 207.315 474.087 207.315C474.087 207.315 471.982 191.762 476.766 186.987Z" fill="#091F5B"/>
<path d="M489.77 209.596L489.037 208.849L490.982 206.915C489.09 204.248 489.104 198.058 489.104 197.778H490.143C490.143 197.845 490.143 204.501 492.062 206.595L492.408 206.969L489.77 209.596Z" fill="black"/>
<path d="M483.241 212.811C483.241 212.811 492.928 213.225 497.818 211.931C497.818 211.931 498.684 218.987 491.169 219.334C483.228 219.707 483.228 212.811 483.228 212.811H483.241Z" fill="black"/>
<path d="M524.652 239.489C526.504 239.142 526.318 243.984 524.652 242.583C522.987 241.183 522.8 239.835 524.652 239.489Z" fill="#CFD8DC"/>
<path d="M502.348 262.964C502.068 264.832 497.551 263.058 499.43 261.951C501.295 260.83 502.628 261.11 502.348 262.964Z" fill="#CFD8DC"/>
<path d="M482.495 273.075C482.495 273.075 479.564 280.612 479.723 284.867C479.897 289.122 481.282 288.575 481.282 288.575C481.282 288.575 479.057 289.455 478.631 291.909C478.205 294.364 484.4 296.164 484.827 296.164C485.253 296.164 489.623 294.497 489.623 294.497L490.543 280.572L486.679 278.144L482.495 273.075Z" fill="#FFC08D"/>
<path d="M484.84 272.088C484.84 272.088 490.183 275.423 492.261 277.45C494.327 279.491 493.154 295.217 492.261 295.964C491.369 296.711 484.56 298.232 483.254 297.378C481.949 296.525 483.761 291.896 483.761 291.896C483.761 291.896 487.185 291.149 486.692 292.456C486.199 293.763 486.692 294.857 486.692 294.857L488.091 294.297C488.091 294.297 487.398 290.776 488.091 288.188C488.784 285.6 483.268 282.866 482.601 278.117C481.935 273.369 484.84 272.075 484.84 272.075V272.088Z" fill="#FFD2A9"/>
<path d="M429.425 264.432C427.72 257.029 435.048 254.414 445.254 255.681C457.086 257.149 481.389 260.243 486.679 273.075C486.679 273.075 488.411 278.144 483.934 280.571C471.449 287.374 432.636 278.331 429.425 264.432Z" fill="#6F96D1"/>
<path d="M466.453 259.523C466.453 259.523 452.343 253.654 445.321 253.067C438.299 252.467 455.034 258.616 466.453 259.523Z" fill="#091F5B"/>
<path d="M572.179 132.405C571.113 133.619 569.355 138.341 569.355 138.341C568.608 142.316 568.182 144.503 566.796 146.317C565.424 148.145 566.143 151.346 566.143 151.346C566.143 151.346 560.761 154.121 556.23 150.693C556.23 150.693 556.71 147.505 556.23 146.611C555.298 144.81 552.313 143.836 551.287 140.195C550.261 136.54 547.21 132.459 547.21 132.459C547.21 132.459 548.089 130.564 549.675 131.712C551.287 132.885 552.313 135.793 553.179 136.1C553.352 136.153 553.539 136.207 553.712 136.22C553.712 136.22 553.725 136.22 553.752 136.233C554.418 136.327 555.098 136.18 555.511 135.78C555.538 135.767 555.591 135.74 555.617 135.686C557.083 133.979 557.416 128.977 557.363 126.736C557.27 123.628 557.39 119.333 559.282 120.054C561.174 120.774 559.441 122.508 560.907 129.364L561.613 129.457C561.747 129.951 563.052 125.296 563.359 120.921C563.585 117.919 565.544 119.026 565.984 119.973C566.423 120.921 565.757 123.908 565.624 126.096C565.517 127.537 565.397 129.03 565.331 129.911L566.157 130.364C569.141 125.149 568.129 122.988 569.874 122.881C571.606 122.775 570.98 127.176 570.047 128.844C569.648 129.564 569.261 131.085 568.955 132.565C572.019 129.03 571.673 127.176 573.085 127.403C574.538 127.643 573.232 131.151 572.166 132.365L572.179 132.405Z" fill="#FFD2A9"/>
<path d="M558.948 140.569C557.909 137.714 554.218 136.407 553.752 136.26C554.418 136.354 555.098 136.207 555.511 135.807C559.135 137.434 558.948 140.569 558.948 140.569Z" fill="#FFD2A9"/>
<path d="M494.7 519.348C494.7 519.348 492.648 515.159 494.473 513.372C496.299 511.571 498.444 514.906 501.562 514.172C504.679 513.425 505.399 511.211 506.212 514.239C507.025 517.267 506.039 526.764 494.7 519.361V519.348Z" fill="#EDF0F5"/>
<path d="M506.425 519.161C506.425 519.161 498.058 522.135 493.714 519.161L494.82 522.789C494.82 522.789 503.92 523.749 505.173 521.455L506.425 519.161Z" fill="#D0E4FF"/>
<path d="M506.318 523.669C506.318 523.669 498.657 522.602 494.953 524.509V526.31C494.953 526.31 504.946 523.976 508.184 526.31L506.318 523.669Z" fill="#D0E4FF"/>
<path d="M494.58 530.045C494.58 530.045 496.072 526.417 500.736 526.164C505.399 525.897 508.543 528.471 508.543 528.471C508.543 528.471 501.149 525.417 494.58 530.045Z" fill="#D0E4FF"/>
<path d="M691.896 479.652C677.173 499.313 657.147 503.101 657.147 503.101C651.337 498.446 651.191 492.937 651.191 492.937C651.191 492.937 645.581 487.935 644.849 485.534C644.103 483.133 649.659 475.903 652.99 476.65C655.281 477.157 656.614 478.985 657.227 480.065C654.482 473.863 656.68 471.702 660.584 472.235C664.648 472.782 660.811 473.742 663.716 477.024C663.929 477.264 664.155 477.451 664.408 477.637C664.941 478.011 665.581 478.264 666.3 478.398C666.94 478.518 667.646 478.544 668.392 478.504C668.779 478.491 669.178 478.451 669.578 478.384C670.338 478.264 671.097 478.078 671.896 477.824C673.122 477.437 674.401 476.89 675.641 476.21C680.73 473.422 682.876 472.475 686.753 473.476C690.617 474.449 690.55 477.384 690.55 477.384L691.909 479.678L691.896 479.652Z" fill="#EDF0F5"/>
<path d="M691.896 479.651C677.173 499.313 657.147 503.101 657.147 503.101C667.366 498.699 676.76 492.937 683.182 485.854C689.591 478.758 691.896 479.665 691.896 479.665V479.651Z" fill="#D0E4FF"/>
<path d="M664.395 477.624C664.928 477.998 665.567 478.251 666.287 478.384C662.396 479.171 662.117 482.653 662.117 482.653L660.464 482.119C660.824 477.944 664.115 477.651 664.395 477.637V477.624Z" fill="#D0E4FF"/>
<path d="M667.02 483.066L665.288 483.12C664.635 480.665 665.474 479.198 666.287 478.384C666.926 478.504 667.633 478.531 668.379 478.491C666.327 480.518 667.02 483.066 667.02 483.066Z" fill="#D0E4FF"/>
<path d="M671.297 482.119L669.578 482.346C668.912 480.599 669.098 479.291 669.565 478.371C670.324 478.251 671.084 478.064 671.883 477.811C670.458 479.932 671.297 482.119 671.297 482.119Z" fill="#D0E4FF"/>
<path d="M506.585 299.486C506.585 299.486 510.382 320.014 502.708 328.191C495.033 336.367 500.109 329.645 502.401 319.107C504.693 308.57 502.947 297.459 506.598 299.486H506.585Z" fill="#6F96D1"/>
<path d="M542.027 290.336C542.027 290.336 554.138 294.324 560.467 305.515C560.467 305.515 552.007 287.281 542.027 290.336Z" fill="#6F96D1"/>
<path d="M227.792 137.981C229.404 138.007 234.081 139.875 234.081 139.875C237.519 141.996 239.424 143.143 241.702 143.33C243.981 143.53 244.9 147.438 244.9 147.438C244.9 147.438 253.854 149.399 254.36 143.743C254.36 143.743 249.35 136.647 249.004 135.686C248.298 133.779 249.59 130.925 247.578 127.71C245.553 124.495 244.594 119.493 244.594 119.493C244.594 119.493 242.608 118.866 242.382 120.827C242.169 122.815 243.634 125.522 243.275 126.376C243.195 126.549 243.115 126.71 243.008 126.856C243.008 126.856 243.008 126.856 242.995 126.896C242.608 127.443 242.049 127.857 241.476 127.897C241.449 127.897 241.396 127.923 241.343 127.91C239.104 127.857 235.16 124.749 233.548 123.201C231.31 121.054 228.045 118.253 227.312 120.147C226.58 122.041 229.018 121.921 233.122 127.603L232.709 128.19C232.975 128.617 228.658 126.456 225.221 123.762C222.849 121.908 222.343 124.109 222.756 125.069C223.155 126.029 225.82 127.55 227.526 128.91C228.658 129.804 229.844 130.711 230.55 131.258L230.337 132.178C224.474 130.898 223.555 128.684 222.303 129.911C221.063 131.125 224.741 133.619 226.606 134.046C227.406 134.233 228.791 134.966 230.097 135.727C225.42 135.62 224.275 134.126 223.502 135.313C222.702 136.554 226.18 137.941 227.792 137.967V137.981Z" fill="#FFD2A9"/>
<path d="M242.715 133.646C241.289 130.965 242.808 127.337 243.008 126.896C242.622 127.443 242.062 127.857 241.489 127.897C240.263 131.685 242.715 133.646 242.715 133.646Z" fill="#FFD2A9"/>
<path d="M491.422 137.981C489.81 138.007 485.133 139.875 485.133 139.875C481.695 141.996 479.79 143.143 477.512 143.33C475.233 143.53 474.314 147.438 474.314 147.438C474.314 147.438 465.36 149.399 464.854 143.743C464.854 143.743 469.864 136.647 470.21 135.686C470.916 133.779 469.624 130.925 471.636 127.71C473.661 124.495 474.62 119.493 474.62 119.493C474.62 119.493 476.606 118.866 476.832 120.827C477.045 122.815 475.58 125.522 475.939 126.376C476.019 126.549 476.099 126.71 476.206 126.856C476.206 126.856 476.206 126.856 476.219 126.896C476.606 127.443 477.165 127.857 477.738 127.897C477.765 127.897 477.818 127.923 477.871 127.91C480.11 127.857 484.054 124.749 485.666 123.201C487.904 121.054 491.169 118.253 491.902 120.147C492.634 122.041 490.196 121.921 486.092 127.603L486.505 128.19C486.239 128.617 490.556 126.456 493.993 123.762C496.365 121.908 496.871 124.109 496.458 125.069C496.059 126.029 493.394 127.55 491.688 128.91C490.556 129.804 489.37 130.711 488.664 131.258L488.877 132.178C494.74 130.898 495.659 128.684 496.911 129.911C498.151 131.125 494.473 133.619 492.608 134.046C491.808 134.233 490.423 134.966 489.117 135.727C493.794 135.62 494.94 134.126 495.712 135.313C496.512 136.554 493.034 137.941 491.422 137.967V137.981Z" fill="#FFD2A9"/>
<path d="M476.499 133.646C477.925 130.965 476.406 127.337 476.206 126.896C476.592 127.443 477.152 127.857 477.725 127.897C478.951 131.685 476.499 133.646 476.499 133.646Z" fill="#FFD2A9"/>
<path d="M412.677 409.89L395.462 303.194L360.993 307.049L326.523 303.194L309.309 409.89L301.048 513.372C301.048 513.372 303.673 521.948 320.874 516.026C320.874 516.026 333.625 420.041 335.597 417.933C337.569 415.826 357.822 353.121 357.822 353.121H364.164C364.164 353.121 384.417 415.812 386.388 417.933C388.36 420.041 401.112 516.026 401.112 516.026C418.3 521.948 420.938 513.372 420.938 513.372L412.677 409.89Z" fill="#091F5B"/>
<path d="M350.134 199.859C352.305 201.98 363.018 205.808 368.681 199.859L372.518 203.634C372.518 203.634 368.148 213.931 360.473 214.291C352.798 214.651 347.256 205.128 347.256 205.128L350.147 199.859H350.134Z" fill="#091F5B"/>
<path d="M380.473 198.698C393.29 193.176 434.715 178.49 434.715 178.49C434.715 178.49 462.562 143.57 468.238 138.381C468.238 138.381 474.407 139.488 476.206 147.171C476.206 147.171 458.272 185.6 448.532 196.604C438.792 207.609 389.426 231.405 389.426 231.405L380.486 198.698H380.473Z" fill="#091F5B"/>
<path d="M335.597 197.912C339.408 195.497 358.555 208.316 358.555 208.316C358.555 208.316 383.444 195.084 389.293 197.645C389.293 197.645 394.556 204.701 396.675 222.828C398.793 240.956 398.926 315.586 398.926 315.586C398.926 315.586 382.191 321.508 359.554 321.508C333.745 321.508 319.861 314.105 319.861 314.105C319.861 314.105 315.251 210.784 335.597 197.912Z" fill="#F2F1DF"/>
<path d="M351.146 195.964C351.146 195.964 353.904 204.647 351.146 207.995C351.146 207.995 354.011 214.011 359.154 214.278C365.097 214.585 367.162 207.995 367.162 207.995C367.162 207.995 364.017 199.605 367.162 196.657L351.146 195.964Z" fill="#FFC08D"/>
<path d="M344.271 187.427C344.271 187.427 338.475 176.249 339.621 164.298C340.767 152.346 358.755 149.612 370.866 155.481C370.866 155.481 367.269 151.959 368.681 150.986C370.093 150.012 372.518 156.268 372.518 156.268C372.518 156.268 376.342 155.094 376.929 156.268C377.515 157.442 373.011 158.082 373.011 158.082C373.011 158.082 380.833 162.417 373.531 185.533L344.285 187.427H344.271Z" fill="black"/>
<path d="M343.405 180.344C343.405 180.344 339.075 176.022 338.542 181.078C337.929 186.933 343.232 189.294 344.271 187.427C345.31 185.56 343.392 180.344 343.392 180.344H343.405Z" fill="#FFD2A9"/>
<path d="M373.704 180.651C373.704 180.651 378.034 176.329 378.567 181.385C379.18 187.241 373.877 189.601 372.838 187.734C371.799 185.867 373.717 180.651 373.717 180.651H373.704Z" fill="#FFD2A9"/>
<path d="M358.102 201.553C348.508 201.553 343.085 195.27 343.085 176.449C343.085 166.739 348.015 160.776 358.768 160.776C369.52 160.776 374.051 166.739 374.051 176.449C374.051 196.684 368.015 201.553 358.102 201.553Z" fill="#FFD2A9"/>
<path d="M370.866 183.158C371.039 184.119 370.187 185.079 368.987 185.293C367.788 185.506 366.669 184.892 366.496 183.919C366.323 182.958 367.175 181.998 368.374 181.785C369.587 181.571 370.693 182.185 370.866 183.158Z" fill="#FFB68D"/>
<path d="M351.12 183.679C351.053 184.652 350.014 185.386 348.788 185.306C347.562 185.226 346.63 184.372 346.696 183.385C346.763 182.412 347.802 181.678 349.028 181.758C350.254 181.838 351.186 182.692 351.12 183.679Z" fill="#FFB68D"/>
<path d="M366.482 173.381C366.349 173.381 366.229 173.328 366.136 173.235C364.803 171.834 362.472 171.901 362.445 171.901C362.192 171.901 361.965 171.701 361.952 171.434C361.952 171.167 362.152 170.954 362.418 170.94C362.525 170.94 365.217 170.874 366.842 172.581C367.029 172.768 367.015 173.074 366.829 173.261C366.735 173.355 366.616 173.395 366.496 173.395L366.482 173.381Z" fill="black"/>
<path d="M348.402 173.381C348.282 173.381 348.162 173.341 348.069 173.248C347.882 173.061 347.869 172.768 348.055 172.568C349.681 170.86 352.372 170.927 352.479 170.927C352.745 170.927 352.945 171.154 352.945 171.421C352.945 171.687 352.705 171.887 352.452 171.887C352.439 171.887 350.081 171.834 348.761 173.221C348.668 173.315 348.535 173.368 348.415 173.368L348.402 173.381Z" fill="black"/>
<path d="M365.643 178.49C365.643 179.677 365.11 180.651 364.444 180.651C363.778 180.651 363.245 179.677 363.245 178.49C363.245 177.303 363.778 176.329 364.444 176.329C365.11 176.329 365.643 177.303 365.643 178.49Z" fill="black"/>
<path d="M352.825 178.49C352.825 179.677 352.292 180.651 351.626 180.651C350.96 180.651 350.427 179.677 350.427 178.49C350.427 177.303 350.96 176.329 351.626 176.329C352.292 176.329 352.825 177.303 352.825 178.49Z" fill="black"/>
<path d="M352.825 191.255C352.825 191.255 361.286 192.349 365.643 190.255C365.643 190.255 363.178 196.031 358.555 195.51C353.931 194.99 352.825 191.255 352.825 191.255Z" fill="black"/>
<path d="M373.051 182.785C373.051 182.785 372.758 172.328 368.681 164.298C368.681 164.298 361.513 167.619 359.94 166.832C358.368 166.045 361.446 164.298 361.446 164.298C361.446 164.298 349.628 168.206 348.908 167.419C348.202 166.632 352.825 164.298 352.825 164.298L345.457 166.832C345.457 166.832 343.192 176.236 344.125 182.785C344.125 182.785 340.954 177.316 340.567 173.542C340.181 169.767 341.833 159.002 352.932 158.215C364.031 157.428 370.253 159.949 373.011 165.058C375.756 170.154 375.423 176.436 373.051 182.785Z" fill="black"/>
<path d="M359.767 188.241C358.834 188.241 357.888 188.001 357.595 187.921L357.862 186.934C358.874 187.214 360.447 187.374 360.793 186.974C360.913 186.827 360.86 186.507 360.66 186.08C359.274 183.132 358.981 175.649 358.968 175.329L359.994 175.289C359.994 175.369 360.287 182.879 361.579 185.64C361.979 186.48 361.965 187.16 361.579 187.627C361.193 188.094 360.473 188.241 359.767 188.241Z" fill="black"/>
<path d="M370.386 202.62C370.386 202.62 387.761 256.615 389.413 300.553C389.413 300.553 395.689 302.287 402.75 292.656C409.812 283.026 405.615 206.782 392.078 194.083C392.078 194.083 385.935 192.683 370.386 202.62Z" fill="#344EAD"/>
<path d="M373.224 212.064C373.224 212.064 376.329 204.834 374.956 199.872C373.584 194.91 368.694 199.872 368.694 199.872C368.694 199.872 370.666 207.996 373.238 212.064H373.224Z" fill="#0C476B"/>
<path d="M338.342 198.698C325.524 193.176 284.099 178.49 284.099 178.49C284.099 178.49 256.186 142.543 250.509 137.367C250.509 137.367 243.488 141.342 243.008 149.585C243.008 149.585 260.543 185.613 270.296 196.618C280.049 207.622 329.401 231.418 329.401 231.418L338.342 198.712V198.698Z" fill="#091F5B"/>
<path d="M348.428 202.62C348.428 202.62 331.054 256.615 329.401 300.553C329.401 300.553 323.126 302.287 316.064 292.656C309.002 283.026 313.199 206.782 326.737 194.083C326.737 194.083 332.879 192.683 348.428 202.62Z" fill="#344EAD"/>
<path d="M345.604 212.064C345.604 212.064 342.499 204.834 343.871 199.872C345.244 194.91 350.134 199.872 350.134 199.872C350.134 199.872 348.162 207.996 345.59 212.064H345.604Z" fill="#091F5B"/>
<path d="M436.274 541.196H401.778C399.366 527.471 403.217 513.718 403.217 513.718L418.992 511.011C420.431 519.694 422.164 523.109 424.549 524.87H424.562C426.307 526.137 428.399 526.564 430.997 527.457C433.969 528.498 435.541 530.379 436.327 532.419C437.886 536.474 436.287 541.183 436.287 541.183L436.274 541.196Z" fill="#344EAD"/>
<path d="M436.314 532.433C427.813 533.5 409.119 535.314 410.265 530.392C411.211 526.27 419.099 525.163 424.535 524.883H424.549C426.294 526.15 428.386 526.577 430.984 527.471C433.955 528.511 435.528 530.392 436.314 532.433Z" fill="#F2F1DF"/>
<path d="M320.741 541.196H286.245C286.245 541.196 285.152 537.968 285.659 534.54C286.072 531.752 287.551 528.844 291.534 527.457C294.519 526.417 296.811 526.03 298.69 524.269C300.728 522.349 302.26 518.787 303.539 510.997L319.315 513.705C319.315 513.705 323.152 527.444 320.754 541.183L320.741 541.196Z" fill="#344EAD"/>
<path d="M285.645 534.54C286.058 531.752 287.537 528.844 291.521 527.457C294.506 526.417 296.798 526.03 298.676 524.269C303.046 525.616 309.149 528.084 311.041 531.832C313.679 536.968 293.506 536.154 285.645 534.527V534.54Z" fill="#F2F1DF"/>
<path d="M568.129 538.595C568.129 540.049 567.982 541.063 567.982 541.063H526.078C526.078 540.236 526.091 539.409 526.131 538.595C526.611 527.617 530.062 518.093 530.062 518.093L540.535 513.585C541.441 518.987 543.759 522.442 546.677 524.696C547.45 525.31 548.249 525.803 549.075 526.23C549.462 526.443 549.848 526.63 550.248 526.804C551.127 527.204 552.02 527.524 552.926 527.791C556.63 528.911 560.361 529.151 562.986 529.551C567.449 530.245 568.129 535.42 568.129 538.568V538.595Z" fill="#091F5B"/>
<path d="M568.129 538.595C568.129 540.049 567.982 541.063 567.982 541.063H526.078C526.078 540.236 526.091 539.409 526.131 538.595H568.129Z" fill="#BAD6EB"/>
<path d="M549.075 526.243L543.266 528.111L542.04 525.977L546.69 524.709C547.463 525.323 548.262 525.817 549.088 526.243H549.075Z" fill="#BAD6EB"/>
<path d="M552.913 527.817L548.995 530.418L546.584 529.471L550.235 526.817C551.114 527.217 552.007 527.537 552.913 527.804V527.817Z" fill="#BAD6EB"/>
<path d="M408 538.595C407.893 540.022 407.52 541.063 407.52 541.063H379.606C379.247 540.249 378.994 539.435 378.82 538.595C376.076 525.216 394.623 508.863 394.623 508.863L400.512 516.733C400.512 516.733 399.832 529.325 404.816 531.939C407.8 533.513 408.187 536.474 408 538.608V538.595Z" fill="#091F5B"/>
<path d="M378.834 538.595H408C407.893 540.022 407.52 541.063 407.52 541.063H379.606C379.247 540.249 378.994 539.435 378.82 538.595H378.834Z" fill="#BAD6EB"/>
<path d="M403.55 530.925C403.55 530.925 391.785 528.244 386.428 531.712V529.765C386.428 529.765 396.315 524.95 403.55 530.912V530.925Z" fill="#BAD6EB"/>
<path d="M401.218 527.937C401.218 527.937 393.703 524.496 386.428 527.937L387.255 525.977C387.255 525.977 395.955 522.682 401.218 527.937Z" fill="#BAD6EB"/>
<path d="M555.484 419.707C555.497 430.952 545.531 522.589 545.531 522.589C535.565 523.576 527.57 521.575 527.57 521.575C524.839 475.129 524.572 435.193 524.572 435.193L476.792 399.339L476.672 399.246C476.672 399.246 476.499 400.059 476.166 401.513C473.794 412.024 463.788 456.068 459.617 466.153C454.874 477.65 402.95 525.977 402.95 525.977C393.304 524.643 385.123 517.653 385.123 517.653C403.763 486.707 429.172 455.655 429.172 455.655C431.157 444.504 432.57 419.694 433.422 401.153C433.436 400.873 433.449 400.58 433.462 400.299C434.022 387.748 434.302 378.264 434.302 378.264L425.548 360.283L481.189 339.822L493.66 355.802C493.66 355.802 496.512 358.456 501.015 362.684C501.228 362.871 501.428 363.071 501.642 363.258C518.337 379.024 555.497 414.665 555.497 419.694L555.484 419.707Z" fill="#6F96D1"/>
<path d="M433.409 401.167C433.422 400.887 433.436 400.593 433.449 400.313C445.161 393.95 443.202 383.786 443.162 383.68L443.882 383.533C443.908 383.64 446.014 394.551 433.396 401.167H433.409Z" fill="#606060"/>
<path d="M475.926 392.163C476.326 394.391 476.619 396.778 476.779 399.339L476.659 399.246C476.659 399.246 476.486 400.059 476.153 401.513C475.633 384.093 468.465 373.809 468.371 373.689L468.984 373.262C469.064 373.355 473.581 379.891 475.78 391.309C484.24 383.786 475.953 368.367 475.873 368.22L476.526 367.86C476.619 368.02 485.386 384.346 475.939 392.15L475.926 392.163Z" fill="#606060"/>
<path d="M501.615 363.271C501.615 363.271 501.575 363.285 501.562 363.298C501.215 363.431 500.816 363.485 500.403 363.485C496.299 363.485 489.424 357.736 489.104 357.456L489.597 356.896C491.835 358.79 498.058 363.338 501.002 362.684C501.215 362.871 501.415 363.071 501.628 363.258L501.615 363.271Z" fill="#606060"/>
<path d="M429.425 264.431C429.425 264.431 446.347 261.71 454.834 267.112C463.321 272.515 474.447 286.654 474.447 286.654C474.447 286.654 461.23 288.401 459.737 297.391C459.737 297.391 450.131 274.502 429.438 264.431H429.425Z" fill="#BAD6EB"/>
<path d="M403.976 273.262C396.821 277.13 384.856 291.683 384.31 300.633C383.777 309.356 390.239 317.386 394.596 324.202C408.173 345.491 422.483 364.298 428.559 389.268C428.599 389.428 459.617 401.753 496.032 357.936C496.032 357.936 475.46 330.218 468.345 306.622C465.453 297.018 462.509 286.814 456.953 278.357C450.837 269.033 440.351 263.551 429.438 264.432C420.205 265.179 411.038 269.447 403.976 273.262Z" fill="#EDF0F5"/>
<path d="M400.965 264.338C400.965 264.338 405.548 272.168 403.43 276.477C403.43 276.477 419.139 281.905 419.139 273.102C419.139 273.102 416.181 266.499 417.287 262.244L400.952 264.338H400.965Z" fill="#FFC08D"/>
<path d="M435.887 317.973C435.887 317.973 427.147 320.454 424.948 323.562C422.736 326.657 420.778 333.606 420.778 333.606H435.887L438.725 328.377L442.056 321.401L435.887 317.986V317.973Z" fill="#FFC08D"/>
<path d="M421.431 255.602C421.431 255.602 427.573 253.027 423.603 234.553C420.978 222.308 417.18 220.481 414.742 220.374C414.742 220.374 411.744 215.852 401.351 218.013C394.236 219.494 388.56 223.815 386.055 231.832C383.444 240.182 388.667 258.096 395.542 259.883L421.444 255.602H421.431Z" fill="#6F96D1"/>
<path d="M422.883 243.116C422.883 243.116 426.747 237.727 428.213 243.036C429.905 249.185 424.642 252.653 423.203 250.839C421.764 249.025 422.883 243.116 422.883 243.116Z" fill="#FFD2A9"/>
<path d="M390.532 248.799C390.532 248.799 385.136 244.944 385.469 250.44C385.842 256.815 391.945 258.389 392.717 256.215C393.504 254.041 390.532 248.799 390.532 248.799Z" fill="#FFD2A9"/>
<path d="M410.905 268.393C421.178 266.699 425.868 259.03 422.55 238.888C420.845 228.497 414.502 223.002 403.004 224.896C391.505 226.79 387.708 233.966 389.413 244.357C392.984 266.006 400.299 270.154 410.905 268.393Z" fill="#FFD2A9"/>
<path d="M393.997 250.973C393.997 252.04 395.063 252.907 396.382 252.92C397.714 252.92 398.793 252.08 398.807 251.013C398.807 249.946 397.754 249.079 396.422 249.065C395.089 249.065 394.01 249.906 393.997 250.973Z" fill="#FFB68D"/>
<path d="M415.222 248.052C415.462 249.092 416.701 249.679 417.993 249.386C419.286 249.079 420.138 247.998 419.898 246.971C419.659 245.931 418.419 245.344 417.114 245.637C415.821 245.944 414.969 247.025 415.208 248.052H415.222Z" fill="#FFB68D"/>
<path d="M396.888 239.755C396.781 239.755 396.688 239.728 396.595 239.662C396.355 239.502 396.302 239.181 396.462 238.941C397.901 236.834 400.779 236.434 400.898 236.407C401.205 236.367 401.445 236.567 401.485 236.86C401.525 237.141 401.325 237.407 401.045 237.447C401.018 237.447 398.5 237.808 397.328 239.528C397.221 239.675 397.061 239.755 396.901 239.755H396.888Z" fill="black"/>
<path d="M416.221 236.567C416.114 236.567 416.008 236.527 415.901 236.46C414.236 235.207 411.744 235.673 411.717 235.687C411.438 235.753 411.158 235.553 411.105 235.273C411.051 234.993 411.238 234.713 411.518 234.66C411.638 234.633 414.502 234.086 416.527 235.633C416.754 235.807 416.807 236.127 416.634 236.367C416.527 236.5 416.381 236.58 416.221 236.58V236.567Z" fill="black"/>
<path d="M398.767 245.064C398.98 246.344 399.726 247.278 400.432 247.158C401.138 247.038 401.538 245.917 401.338 244.637C401.125 243.356 400.379 242.423 399.673 242.543C398.966 242.663 398.567 243.783 398.767 245.064Z" fill="black"/>
<path d="M412.477 242.796C412.69 244.077 413.436 245.01 414.142 244.89C414.849 244.77 415.248 243.65 415.048 242.369C414.835 241.089 414.089 240.155 413.383 240.275C412.677 240.395 412.277 241.516 412.477 242.796Z" fill="black"/>
<path d="M416.328 254.388C416.328 254.388 407.414 256.775 402.484 255.828C402.484 255.828 405.895 260.137 410.771 258.896C415.648 257.656 416.328 254.388 416.328 254.388Z" fill="black"/>
<path d="M416.741 229.537C416.741 229.537 405.149 237.941 390.599 238.581L391.012 251.546C391.012 251.546 377.448 226.536 404.269 222.094C431.091 217.666 423.283 245.611 423.283 245.611C423.283 245.611 422.457 233.566 416.741 229.537Z" fill="#6F96D1"/>
<path d="M407.267 250.906L407.187 249.786C407.187 249.786 408.746 249.666 409.146 248.705C409.306 248.305 408.653 247.051 408.067 245.944C407.254 244.397 406.255 242.476 405.828 240.355L406.934 240.128C407.334 242.103 408.293 243.943 409.066 245.424C409.932 247.065 410.545 248.265 410.185 249.145C409.519 250.746 407.347 250.906 407.254 250.906H407.267Z" fill="black"/>
<path d="M423.03 229.564C403.537 221.094 385.136 238.661 385.136 238.661C385.136 238.661 382.991 224.429 386.748 221.094C387.721 220.214 388.774 219.454 389.866 218.773C398.473 213.344 409.919 213.438 415.182 215.305C416.261 215.692 417.087 216.146 417.567 216.639C420.671 219.867 423.043 229.564 423.043 229.564H423.03Z" fill="#091F5B"/>
<path d="M420.671 226.403C420.671 226.403 404.296 223.162 389.027 233.272C389.027 233.272 388.054 224.095 389.866 218.773C398.473 213.344 409.919 213.438 415.182 215.305C418.246 218.8 420.671 226.403 420.671 226.403Z" fill="#F2F1DF"/>
<path d="M386.748 236.994C386.748 236.994 389.346 225.963 392.837 222.841C398.66 217.666 415.009 215.892 423.589 219C432.17 222.108 423.589 231.512 423.589 231.512C423.589 231.512 409.892 221.694 386.735 236.994H386.748Z" fill="#091F5B"/>
<path d="M412.037 310.33C412.037 310.33 418.726 320.708 430.131 326.817C430.131 326.817 444.388 314.425 462.882 315.546C462.882 315.546 447.559 343.223 434.395 346.291C427.48 347.905 402.484 331.325 402.484 331.325C402.484 331.325 407.48 313.705 412.037 310.343V310.33Z" fill="#FFD2A9"/>
<path d="M387.388 291.523C393.517 281.545 407.64 296.298 412.45 306.835C417.26 317.373 420.765 319.614 420.765 319.614C420.765 319.614 406.641 325.523 406.748 336.114C406.748 336.114 374.024 313.318 387.388 291.536V291.523Z" fill="#BAD6EB"/>
<path d="M430.118 322.255C430.118 322.255 438.712 313.812 466.999 302.78L463.348 291.283C466.586 287.014 472.555 287.014 472.555 287.014C472.555 287.014 487.038 307.489 484.547 313.612C482.988 317.426 452.769 321.441 430.118 322.255Z" fill="#FFC08D"/>
<path d="M461.096 305.541C461.096 305.541 461.323 304.327 462.362 302.86C463.402 301.38 463.122 298.698 463.495 297.858C463.868 297.031 466.093 293.616 467.572 292.963C469.051 292.296 470.983 291.215 471.396 293.096C471.809 294.977 468.758 294.443 467.385 297.138C467.385 297.138 470.383 296.164 472.768 296.724C475.153 297.285 475.82 299.472 472.888 299.392C470.543 299.339 467.519 301.006 467.519 301.006C467.519 301.006 470.583 301.473 470.09 302.874C469.411 304.821 465.68 303.62 461.11 305.528L461.096 305.541Z" fill="#FFD2A9"/>
<path d="M251.962 344.104C254.493 350.586 264.846 361.684 264.846 361.684C264.846 361.684 290.135 346.505 301.807 352.894C313.479 359.283 322.753 363.178 330.321 360.39C337.889 357.602 305.431 298.525 305.431 298.525L263.354 282.452C263.354 282.452 262.435 293.11 257.625 295.004C252.815 296.898 247.685 314.478 248.031 317.813C248.378 321.148 251.949 344.104 251.949 344.104H251.962Z" fill="#0D1242"/>
<path d="M299.302 362.071C299.302 362.071 288.456 383.359 266.059 410.624C266.059 410.624 263.767 443.05 204.528 494.07L198.333 489.188C198.333 489.188 233.601 433.873 240.663 416.906C247.725 399.939 236.759 384.4 269.217 341.502L299.302 362.057V362.071Z" fill="#FFC08D"/>
<path d="M264.766 324.402C255.426 342.316 252.295 365.205 252.295 365.205L248.044 375.943C248.044 375.943 263.127 384.093 280.555 387.054L287.537 368.54L264.766 324.402Z" fill="#BAD6EB"/>
<path d="M313.479 360.404C313.479 360.404 318.102 383.853 317.343 419.147C317.343 419.147 335.57 446.051 320.527 522.815H312.639C312.639 522.815 306.191 457.509 301.261 439.809C296.331 422.108 278.117 416.68 277.131 362.871L313.479 360.404Z" fill="#FFD2A9"/>
<path d="M318.102 385.574C318.102 385.574 303.259 388.241 277.131 387.014L276.718 384.066L276.611 383.306L273.906 364.232C273.906 364.232 271.388 361.124 268.803 356.055C268.497 355.468 268.19 354.855 267.897 354.214C264.38 346.705 261.249 335.794 264.766 324.402L270.282 324.656L271.055 324.696L289.522 325.536L290.308 325.576L296.371 325.856L297.317 325.896L301.247 326.07C301.247 326.07 321.247 344.09 317.676 377.41L317.929 382.052L317.956 382.812L318.102 385.547V385.574Z" fill="#D0E4FF"/>
<path d="M271.055 324.709C270.536 326.23 267.045 337.554 268.803 356.055C268.497 355.468 268.191 354.855 267.897 354.214C266.578 337.288 269.616 326.723 270.282 324.656C270.376 324.402 270.416 324.282 270.416 324.269L271.108 324.522C271.108 324.522 271.082 324.603 271.055 324.696V324.709Z" fill="#FFF9EF"/>
<path d="M317.956 382.826C312.706 384.173 303.792 384.546 295.332 384.546C287.737 384.546 280.542 384.24 276.704 384.053L276.598 383.293C283.233 383.613 300.728 384.306 312 383.066L311.28 371.141C311.454 357.229 307.257 345.357 303.206 337.154C292.933 335.287 290.109 327.67 289.509 325.523C289.416 325.176 289.376 324.976 289.376 324.963L290.095 324.843C290.095 324.843 290.148 325.123 290.282 325.563C290.948 327.79 293.693 334.406 302.766 336.3C300.035 330.952 297.437 327.297 296.344 325.843C296.024 325.403 295.811 325.149 295.798 325.136L296.357 324.656C296.357 324.656 296.731 325.096 297.29 325.883C300.728 330.551 312.306 348.092 312.013 371.101L312.733 382.959C314.705 382.719 316.464 382.426 317.916 382.039L317.942 382.799L317.956 382.826Z" fill="#FFF9EF"/>
<path d="M280.169 244.05C274.28 240.809 231.856 257.455 231.856 257.455C231.856 257.455 225.58 268.66 229.498 273.062C233.415 277.45 247.298 275.516 251.549 273.062C255.799 270.607 267.071 268.74 267.071 268.74L280.182 244.037L280.169 244.05Z" fill="#8BBDDB"/>
<path d="M317.676 208.689C317.676 208.689 326.443 212.077 329.641 222.188C332.852 232.299 323.259 257.882 326.576 269.647C329.894 281.412 329.375 303.621 319.035 308.316C308.696 313.011 287.47 304.608 282.914 291.776C278.357 278.944 280.329 230.311 289.083 213.785C297.836 197.245 315.571 205.581 317.676 208.689Z" fill="#F2F1DF"/>
<path d="M307.616 252.307C309.921 254.801 315.877 250.36 315.877 250.36C315.877 250.36 315.757 272.422 309.349 274.102C302.94 275.796 286.618 256.722 287.297 251.547C287.977 246.371 302.5 246.771 307.616 252.307Z" fill="#8BBDDB"/>
<path d="M282.927 246.798C282.927 246.798 289.402 252.307 300.688 254.921C311.973 257.536 318.089 252.227 323.858 259.51C332.519 270.447 318.422 290.602 311.014 301.046C308.256 304.941 302.42 315.746 301.234 326.096C301.234 326.096 281.648 331.792 264.766 324.402L263.5 300.353C263.5 300.353 252.855 267.94 282.914 246.798H282.927Z" fill="#091F5B"/>
<path d="M303.166 270.194C303.166 270.194 312.107 248.852 314.705 247.491C317.29 246.131 323.872 249.399 325.191 252.32C326.51 255.241 325.191 261.604 325.191 261.604C325.191 261.604 318.129 253.547 303.166 270.194Z" fill="#8BBDDB"/>
<path d="M346.016 360.39C341.953 368.727 331.96 371.128 331.96 371.128C331.96 371.128 331.2 369.967 329.934 367.9C329.801 367.687 329.654 367.46 329.521 367.22C321.66 354.468 297.663 313.665 298.13 292.443C298.676 267.086 315.198 253.174 315.198 253.174C323.592 255.175 326.23 257.469 326.23 257.469C326.23 257.469 329.055 271.888 326.47 289.255C323.885 306.595 319.182 311.184 321.54 312.491C323.898 313.785 321.54 316.373 321.54 316.373C321.54 316.373 335.464 335.794 338.062 341.836C339.754 345.771 342.619 352.467 344.404 356.642C344.524 356.936 344.644 357.229 344.764 357.496C345.523 359.256 346.003 360.404 346.003 360.404L346.016 360.39Z" fill="#344EAD"/>
<path d="M321.847 257.469C321.847 257.469 311.88 264.872 317.689 276.17L345.31 304.808C330.147 320.988 328.642 327.63 317.689 335.087L321.847 341.543C321.847 341.543 360.233 312.011 360.286 304.821C360.313 301.74 336.836 264.525 321.847 257.495V257.469Z" fill="#FFD2A9"/>
<path d="M317.077 335.073C317.077 335.073 311.814 335.66 308.496 336.487C305.178 337.314 300.755 338.141 300.621 338.835C300.488 339.529 307.95 338.835 307.95 338.835C307.95 338.835 301.874 341.329 301.727 342.303C301.594 343.263 309.469 341.609 309.469 341.609C309.469 341.609 304.499 344.651 304.765 345.478C305.045 346.305 311.174 344.237 311.174 344.237C311.174 344.237 310.028 347.145 308.856 348.519C308.856 348.519 310.042 349.172 312.453 346.491C314.865 343.81 318.702 344.677 321.753 342.303C324.791 339.929 319.861 334.713 317.09 335.073H317.077Z" fill="#FFD2A9"/>
<path d="M288.843 250.346C288.843 250.346 281.262 255.255 276.465 267.1C271.682 278.944 256.559 301.247 253.028 306.996C249.484 312.758 251.949 344.104 251.949 344.104C251.949 344.104 247.512 325.096 245.54 317.693C243.568 310.29 251.909 291.99 253.161 291.016C254.414 290.042 260.822 291.816 259.597 284.386C258.371 276.957 275.559 244.944 280.156 244.05C280.156 244.05 287.511 245.438 288.843 250.333V250.346Z" fill="#344EAD"/>
<path d="M265.406 251.947C265.272 252.2 265.126 252.454 264.953 252.694C263.234 255.161 260.036 257.135 260.036 257.135C260.036 257.135 254.253 265.245 254.187 266.179C254.134 266.979 244.141 274.236 239.704 274.089H239.69C239.077 274.076 238.584 273.916 238.225 273.582C235.586 271.088 247.192 250.213 249.75 245.718C249.91 245.424 250.043 245.197 250.136 245.051C250.19 244.931 250.243 244.864 250.243 244.864C250.243 244.864 248.204 237.248 256.718 238.675C263.807 239.849 265.206 245.491 265.952 249.266C266.125 250.173 265.872 251.093 265.406 251.96V251.947Z" fill="#0D1242"/>
<path d="M235.653 259.843C241.502 252.147 262.101 237.207 272.947 232.779L275.665 237.821C275.665 237.821 254.706 256.268 249.777 264.165C244.847 272.061 238.758 275.316 232.922 272.688C227.099 270.06 234.427 261.457 235.653 259.83V259.843Z" fill="#FFD2A9"/>
<path d="M263.354 250.359L262.248 251.627L261.688 252.28L259.85 254.388C259.85 254.388 255.24 259.99 255.413 262.231C255.546 263.845 246.659 271.074 239.704 274.076C236.879 275.303 234.361 275.836 232.895 274.996C227.872 272.088 228.991 263.365 231.842 257.456C234.334 252.307 245.313 245.651 248.151 244.024C248.511 243.797 248.724 243.663 248.804 243.637H248.817L249.87 239.528C249.87 239.528 253.707 237.221 256.718 238.635C256.718 238.635 250.056 238.915 251.162 241.503C252.282 244.104 261.515 250.239 263.367 250.333L263.354 250.359Z" fill="#D0E4FF"/>
<path d="M287.524 228.991C280.822 231.752 281.781 237.821 275.639 237.821C271.841 237.821 271.335 233.473 271.335 233.473C273.054 229.751 274.146 223.415 274.386 220.401C274.639 217.386 275.639 218.547 275.639 218.547C275.639 218.267 275.625 218 275.612 217.733C275.519 215.706 275.159 214.225 276.478 215.092C277.984 216.066 278.503 221.815 278.503 221.815C279.742 213.438 277.89 212.184 279.343 212.931C281.328 213.945 281.341 221.348 281.341 221.561C282.94 216.693 282.514 213.905 283.62 215.012C284.739 216.132 283.06 225.083 282.394 228.364C282.247 229.111 282.141 229.564 282.141 229.564C287.457 226.963 287.51 228.991 287.51 228.991H287.524Z" fill="#FFD2A9"/>
<path d="M282.407 228.364C282.261 229.111 282.154 229.564 282.154 229.564C282.154 229.564 279.703 229.324 277.904 231.979C277.904 231.979 278.41 228.43 282.407 228.364Z" fill="#FFC08D"/>
<path d="M276.025 224.549C276.065 223.842 276.371 219.761 275.652 218.533C275.652 218.253 275.639 217.987 275.625 217.72C277.158 218.04 276.185 223.682 276.025 224.549Z" fill="#FFC08D"/>
<path d="M280.182 259.883C280.182 259.883 284.712 247.598 286.151 244.85C287.59 242.102 295.092 242.583 300.781 243.636C306.457 244.704 307.616 252.307 307.616 252.307C307.616 252.307 290.335 244.143 280.182 259.883Z" fill="#8BBDDB"/>
<path d="M309.335 235.7C309.335 235.7 303.912 245.731 303.992 256.855C303.992 256.855 295.185 262.858 292.027 255.335C292.027 255.335 295.372 245.491 293.759 232.219C292.68 223.322 309.335 235.7 309.335 235.7Z" fill="#FFC08D"/>
<path d="M292.04 221.774C292.04 221.774 290.428 216.025 287.564 220.067C284.246 224.749 287.63 229.297 289.402 228.217C291.174 227.137 292.04 221.774 292.04 221.774Z" fill="#FFD2A9"/>
<path d="M317.649 236.567C317.649 236.567 323.392 234.966 321.433 239.515C319.155 244.784 313.519 244.25 313.519 242.169C313.519 240.088 317.649 236.567 317.649 236.567Z" fill="#FFD2A9"/>
<path d="M294.386 246.851C286.218 242.249 284.619 234.313 293.626 218.306C298.276 210.05 305.311 207.355 314.465 212.504C323.605 217.653 324.605 224.896 319.968 233.152C310.295 250.359 302.833 251.613 294.399 246.851H294.386Z" fill="#FFD2A9"/>
<path d="M314.038 237.341C313.719 238.248 312.546 238.648 311.427 238.248C310.294 237.848 309.642 236.794 309.961 235.887C310.281 234.98 311.454 234.58 312.573 234.98C313.705 235.38 314.358 236.434 314.038 237.341Z" fill="#FFB68D"/>
<path d="M296.997 228.324C296.477 229.124 295.238 229.244 294.239 228.591C293.24 227.937 292.853 226.763 293.373 225.949C293.892 225.149 295.132 225.029 296.131 225.683C297.13 226.336 297.517 227.51 296.997 228.324Z" fill="#FFB68D"/>
<path d="M315.211 226.99C314.998 226.99 314.811 226.843 314.758 226.63C314.292 224.802 312.28 223.735 312.253 223.722C312.027 223.602 311.933 223.322 312.053 223.095C312.173 222.868 312.453 222.775 312.679 222.895C312.773 222.948 315.091 224.175 315.651 226.403C315.717 226.656 315.557 226.91 315.318 226.977C315.278 226.977 315.238 226.99 315.198 226.99H315.211Z" fill="black"/>
<path d="M304.005 219C303.925 219 303.845 218.973 303.766 218.933C303.752 218.933 301.78 217.746 299.982 218.306C299.728 218.386 299.475 218.24 299.395 218C299.315 217.746 299.462 217.493 299.702 217.413C301.9 216.746 304.152 218.08 304.245 218.146C304.472 218.28 304.538 218.573 304.405 218.787C304.312 218.933 304.165 219.013 304.005 219.013V219Z" fill="black"/>
<path d="M311.84 230.871C311.267 231.885 310.348 232.445 309.788 232.138C309.229 231.818 309.229 230.738 309.801 229.724C310.374 228.71 311.294 228.15 311.853 228.457C312.413 228.777 312.413 229.857 311.84 230.871Z" fill="black"/>
<path d="M300.395 224.722C299.822 225.736 298.902 226.296 298.343 225.989C297.783 225.669 297.783 224.589 298.356 223.575C298.929 222.561 299.848 222.001 300.408 222.308C300.968 222.628 300.968 223.709 300.395 224.722Z" fill="black"/>
<path d="M296.424 235.14C296.424 235.14 301.114 238.715 304.499 238.821C304.499 238.821 300.901 241.756 298.316 239.848C295.731 237.941 296.438 235.126 296.438 235.126L296.424 235.14Z" fill="black"/>
<path d="M309.375 228.817C309.375 228.817 311.52 226.737 312.4 227.47C313.279 228.204 312.813 230.765 312.813 230.765L314.691 230.818L313.133 230.191C313.133 230.191 313.639 227.537 312.666 226.977C311.294 226.19 309.362 228.817 309.362 228.817H309.375Z" fill="black"/>
<path d="M301.274 224.655C301.274 224.655 301.94 221.734 300.861 221.361C299.782 220.987 297.836 222.708 297.836 222.708L296.824 221.121L298.169 222.121C298.169 222.121 300.181 220.307 301.154 220.854C302.54 221.627 301.301 224.642 301.301 224.642L301.274 224.655Z" fill="black"/>
<path d="M316.623 215.932C316.623 215.932 313.705 211.864 309.655 215.092C305.618 218.32 296.504 223.495 292.027 221.788C287.55 220.08 301.834 200.966 314.238 206.568C326.643 212.17 325.524 230.391 320.367 236.18C315.211 241.969 317.649 236.58 317.649 236.58C317.649 236.58 317.996 228.364 319.714 222.908C321.433 217.466 316.623 215.932 316.623 215.932Z" fill="#F2F1DF"/>
<path d="M302.873 233.272C302.646 233.272 302.407 233.246 302.167 233.179L302.42 232.192C303.259 232.405 303.659 232.045 303.859 231.712C304.139 231.232 304.099 230.618 303.872 230.391C303.739 230.258 303.526 230.271 303.219 230.431L302.753 229.538C303.779 229.004 304.392 229.471 304.605 229.698C305.165 230.285 305.218 231.392 304.725 232.232C304.325 232.912 303.659 233.272 302.873 233.272Z" fill="black"/>
<path d="M362.658 303.661C362.165 310.837 344.417 334.233 341.459 335.06C340.687 335.273 339.901 335.7 339.168 336.194C338.861 336.42 338.541 336.647 338.248 336.887C336.556 338.248 335.29 339.822 335.29 339.822C330.107 339.475 315.571 332.739 320.248 331.258C320.527 331.165 320.834 331.005 321.18 330.765C321.367 330.631 321.58 330.485 321.793 330.285C327.296 325.669 338.009 306.915 338.075 305.488C338.128 303.927 339.98 303.634 339.98 303.634C339.98 303.634 329.881 288.775 324.018 286.987C318.156 285.2 315.198 278.104 315.198 278.104C309.415 253.6 326.23 257.442 326.23 257.442C338.621 264.832 363.138 296.431 362.645 303.634L362.658 303.661Z" fill="#D0E4FF"/>
<path d="M339.168 336.194C338.861 336.42 338.541 336.647 338.248 336.887C330.307 336.34 323.645 332.432 321.18 330.765C321.367 330.631 321.58 330.485 321.793 330.285C324.445 332.019 331.213 335.887 339.181 336.18L339.168 336.194Z" fill="#091F5B"/>
<path d="M265.406 251.946C265.273 252.2 265.126 252.453 264.953 252.693C263.82 252.653 262.728 252.52 261.702 252.293C256.452 251.226 252.415 248.278 249.763 245.717C249.151 245.13 248.631 244.557 248.165 244.05C248.524 243.823 248.737 243.69 248.817 243.663C249.204 244.09 249.644 244.57 250.15 245.05C252.788 247.638 256.878 250.666 262.261 251.64C263.261 251.826 264.313 251.933 265.406 251.946Z" fill="#091F5B"/>
<path d="M344.777 357.496C342.339 361.631 337.822 366.619 329.934 367.913C329.801 367.7 329.654 367.473 329.521 367.233C337.609 366.019 342.099 360.764 344.418 356.642C344.537 356.936 344.657 357.229 344.777 357.496Z" fill="#3E6575"/>
<path d="M210.151 492.243C210.151 492.243 208.299 494.071 206.38 497.405C204.462 500.753 206.567 503.834 197.267 511.598C197.267 511.598 178.493 500.593 170.019 486.454C170.019 486.454 170.165 482.413 174.269 481.465C176.468 480.959 182.543 483.8 188.366 484.907C189.192 485.054 190.018 485.187 190.831 485.254C191.857 485.347 192.856 485.36 193.816 485.24C194.708 485.147 195.548 484.96 196.334 484.627H196.347C198.332 483.813 199.891 482.199 200.717 479.371C200.717 479.371 205.701 482.212 202.37 487.028C202.37 487.028 208.286 484.44 210.151 492.256V492.243Z" fill="#0D1242"/>
<path d="M197.267 511.598C197.267 511.598 178.493 500.593 170.019 486.454C170.019 486.454 173.163 485.787 175.775 490.469C178.373 495.164 198.799 505.809 197.267 511.598Z" fill="#D0E4FF"/>
<path d="M197.333 489.349C195.814 491.763 195.841 487.308 193.816 485.214C194.708 485.12 195.548 484.934 196.334 484.6H196.347C197.253 485.574 198.532 487.455 197.333 489.335V489.349Z" fill="#D0E4FF"/>
<path d="M191.431 489.482C189.818 491.003 189.299 487.028 188.353 484.894C189.179 485.04 190.005 485.174 190.818 485.24C191.764 486.534 192.656 488.322 191.431 489.495V489.482Z" fill="#D0E4FF"/>
<path d="M325.644 541.063H299.089C299.089 541.063 297.983 537.355 299.089 533.286C299.569 531.526 302.313 529.885 304.872 527.591C305.578 526.95 306.257 526.283 306.897 525.537C307.403 524.95 307.856 524.296 308.243 523.602C308.736 522.762 309.122 521.842 309.335 520.828C309.762 518.814 309.602 516.44 308.442 513.598C308.442 513.598 317.476 511.704 320.701 516.64C320.701 516.64 321.007 514.359 323.885 515.879C323.885 515.879 323.472 520.455 324.032 524.296C324.591 528.111 328.162 529.231 325.63 541.076L325.644 541.063Z" fill="#0D1242"/>
<path d="M318.729 525.056C318.489 525.323 318.169 525.456 317.836 525.456C317.556 525.456 317.29 525.363 317.05 525.19C315.677 524.096 312.64 522.389 308.229 523.589C308.722 522.749 309.109 521.828 309.322 520.815C311.094 520.161 314.438 519.774 318.569 523.309C319.102 523.749 319.182 524.536 318.715 525.056H318.729Z" fill="#D0E4FF"/>
<path d="M316.49 529.471L316.344 529.698C315.984 530.245 315.278 530.418 314.718 530.098C312.919 529.031 308.855 527.017 304.872 527.591C305.578 526.95 306.257 526.283 306.897 525.536C308.869 525.083 312.573 524.829 316.237 527.857C316.717 528.258 316.85 528.951 316.503 529.471H316.49Z" fill="#D0E4FF"/>
</g>
<rect width="1179" height="664" fill="black" fill-opacity="0.2"/>
<path d="M620.625 315.514L591.222 301.078C590.391 300.67 589.467 300.477 588.539 300.518C587.61 300.559 586.708 300.832 585.917 301.312C585.127 301.792 584.474 302.462 584.022 303.26C583.57 304.057 583.333 304.954 583.333 305.867V333.134C583.333 334.046 583.57 334.944 584.022 335.741C584.474 336.538 585.127 337.208 585.917 337.688C586.708 338.168 587.61 338.441 588.539 338.482C589.467 338.523 590.391 338.33 591.222 337.922L620.625 323.486C621.378 323.115 622.012 322.546 622.454 321.842C622.897 321.138 623.132 320.327 623.132 319.5C623.132 318.673 622.897 317.862 622.454 317.158C622.012 316.454 621.378 315.885 620.625 315.514Z" stroke="#FCFCFC" stroke-width="15" stroke-linecap="round" stroke-linejoin="round"/>
<path d="M601.5 359.625C624.075 359.625 642.375 341.66 642.375 319.5C642.375 297.34 624.075 279.375 601.5 279.375C578.925 279.375 560.625 297.34 560.625 319.5C560.625 341.66 578.925 359.625 601.5 359.625Z" stroke="#FCFCFC" stroke-width="15"/>
<defs>
<clipPath id="clip0_419_6">
<rect width="628.896" height="425.104" fill="white" transform="translate(63 119)"/>
</clipPath>
</defs>
</svg>
