<svg width="1209" height="461" viewBox="0 0 1209 461" fill="none" xmlns="http://www.w3.org/2000/svg">
<path d="M714.4 277.5C706.5 277.5 700.45 275.25 696.25 270.75C692.15 266.25 690.1 259.9 690.1 251.7V195.3C690.1 187.1 692.15 180.75 696.25 176.25C700.45 171.75 706.5 169.5 714.4 169.5C722.3 169.5 728.3 171.75 732.4 176.25C736.6 180.75 738.7 187.1 738.7 195.3V206.4H723.1V194.25C723.1 187.75 720.35 184.5 714.85 184.5C709.35 184.5 706.6 187.75 706.6 194.25V252.9C706.6 259.3 709.35 262.5 714.85 262.5C720.35 262.5 723.1 259.3 723.1 252.9V236.85H738.7V251.7C738.7 259.9 736.6 266.25 732.4 270.75C728.3 275.25 722.3 277.5 714.4 277.5ZM748.572 171H773.022C781.522 171 787.722 173 791.622 177C795.522 180.9 797.472 186.95 797.472 195.15V201.6C797.472 212.5 793.872 219.4 786.672 222.3V222.6C790.672 223.8 793.472 226.25 795.072 229.95C796.772 233.65 797.622 238.6 797.622 244.8V263.25C797.622 266.25 797.722 268.7 797.922 270.6C798.122 272.4 798.622 274.2 799.422 276H782.622C782.022 274.3 781.622 272.7 781.422 271.2C781.222 269.7 781.122 267 781.122 263.1V243.9C781.122 239.1 780.322 235.75 778.722 233.85C777.222 231.95 774.572 231 770.772 231H765.072V276H748.572V171ZM771.072 216C774.372 216 776.822 215.15 778.422 213.45C780.122 211.75 780.972 208.9 780.972 204.9V196.8C780.972 193 780.272 190.25 778.872 188.55C777.572 186.85 775.472 186 772.572 186H765.072V216H771.072ZM809.07 171H854.07V186H825.57V213.75H848.22V228.75H825.57V261H854.07V276H809.07V171ZM859.662 171H875.562L882.912 251.7H883.212L891.012 171H909.012L916.812 251.7H917.112L924.462 171H938.712L928.062 276H907.512L900.012 205.2H899.712L892.212 276H870.312L859.662 171ZM971.082 171H994.632L1005.13 246.15H1005.43L1015.93 171H1039.48V276H1023.88V196.5H1023.58L1011.58 276H997.782L985.782 196.5H985.482V276H971.082V171ZM1064.54 171H1086.89L1103.99 276H1087.49L1084.49 255.15V255.45H1065.74L1062.74 276H1047.44L1064.54 171ZM1082.54 241.2L1075.19 189.3H1074.89L1067.69 241.2H1082.54ZM1118.01 186H1100.76V171H1151.76V186H1134.51V276H1118.01V186ZM1159.75 171H1204.75V186H1176.25V213.75H1198.9V228.75H1176.25V261H1204.75V276H1159.75V171Z" fill="#091F5B"/>
<path d="M728.85 104.95V109.35H689.25V104.95H706.45V98.95H711.55V104.95H728.85ZM720.5 135.8H730.4V140.15H687.75V135.8H697.6V127.5C693.65 126.2 691.2 123.95 691.2 120.65C691.2 114.7 698.95 112.25 709.05 112.25C719.15 112.25 726.9 114.7 726.9 120.65C726.9 123.95 724.45 126.2 720.5 127.5V135.8ZM696.25 120.65C696.25 123.7 701.85 124.9 709.05 124.9C716.3 124.9 721.85 123.7 721.85 120.65C721.85 117.55 716.3 116.35 709.05 116.35C701.85 116.35 696.25 117.55 696.25 120.65ZM702.55 128.55V135.8H715.6V128.55C713.6 128.8 711.4 128.95 709.05 128.95C706.75 128.95 704.55 128.8 702.55 128.55ZM757.146 114.7C746.846 114.7 738.396 112.65 738.396 107C738.396 101.4 746.846 99.35 757.146 99.35C767.446 99.35 775.896 101.4 775.896 107C775.896 112.65 767.446 114.7 757.146 114.7ZM757.146 103.1C749.696 103.1 743.496 104.2 743.496 107C743.496 109.85 749.696 110.95 757.146 110.95C764.596 110.95 770.796 109.85 770.796 107C770.796 104.2 764.596 103.1 757.146 103.1ZM778.496 120.95H767.596V124.9H775.546V135.05H743.646V138H776.296V141.7H738.796V131.55H770.696V128.6H738.696V124.9H746.696V120.95H735.846V117.15H778.496V120.95ZM762.746 124.9V120.95H751.546V124.9H762.746ZM819.141 99.5H824.091V125.5H819.141V113.65H810.891V109.35H819.141V99.5ZM798.941 115.3C795.991 120.3 791.041 123.6 784.791 124.25V119.75C791.941 118.7 796.341 112.95 796.841 104.85H785.341V100.6H812.591V104.85H801.841C801.741 107.1 801.341 109.25 800.741 111.2L813.841 120.25L811.191 123.9L798.941 115.3ZM787.391 132.15V127.85H824.091V142.2H819.041V132.15H787.391ZM866.937 131.2V99.5H871.887V131.2H866.937ZM845.987 124.75C837.637 124.75 832.437 119.5 832.437 112.35C832.437 105.2 837.637 99.95 845.987 99.95C854.337 99.95 859.487 105.2 859.487 112.35C859.487 119.5 854.337 124.75 845.987 124.75ZM845.987 120.55C851.037 120.55 854.537 117.4 854.537 112.35C854.537 107.3 851.037 104.1 845.987 104.1C840.887 104.1 837.387 107.3 837.387 112.35C837.387 117.4 840.887 120.55 845.987 120.55ZM836.187 141.65V127.7H841.237V137.15H873.037V141.65H836.187ZM917.896 119.15H936.796V123.15H894.146V119.15H912.996V114.75H897.196V100H933.746V104H902.146V110.75H934.246V114.75H917.896V119.15ZM915.446 126.7C925.646 126.7 934.246 128.65 934.246 134.5C934.246 140.35 925.646 142.35 915.446 142.35C905.246 142.35 896.646 140.35 896.646 134.5C896.646 128.65 905.246 126.7 915.446 126.7ZM915.446 138.45C922.396 138.45 929.046 137.45 929.046 134.5C929.046 131.6 922.396 130.6 915.446 130.6C908.496 130.6 901.846 131.6 901.846 134.5C901.846 137.45 908.496 138.45 915.446 138.45ZM986.892 116.8V121.55H980.892V142.2H975.942V99.5H980.892V116.8H986.892ZM956.342 100.5C963.792 100.5 969.042 106.8 969.042 120.35C969.042 133.9 963.792 140.2 956.342 140.2C948.842 140.2 943.592 133.9 943.592 120.35C943.592 106.8 948.842 100.5 956.342 100.5ZM956.342 135.65C960.742 135.65 964.092 131.2 964.092 120.35C964.092 109.55 960.742 105.05 956.342 105.05C951.892 105.05 948.542 109.55 948.542 120.35C948.542 131.2 951.892 135.65 956.342 135.65ZM1025.24 142.2V99.5H1030.19V142.2H1025.24ZM992.788 139.65V117.75H1011.89V105.6H992.688V101.05H1016.84V122.3H997.738V135.1H1010.24C1014.29 135.1 1018.69 134.3 1021.29 133.05V137.6C1018.69 138.9 1014.24 139.65 1010.09 139.65H992.788ZM1077.18 111.05H1083.08V115.7H1077.18V131.95H1072.23V99.5H1077.18V111.05ZM1059.63 116.75V104.5H1040.48V100.2H1064.58V116.75H1059.63ZM1068.68 123.2C1065.98 124.4 1060.63 124.85 1054.53 124.85H1038.43V120.6H1046.78V110.45H1051.68V120.6H1054.68C1060.53 120.6 1065.73 120.2 1068.68 118.95V123.2ZM1046.43 129.1V137.35H1078.33V141.65H1041.43V129.1H1046.43ZM1121.43 142.2V99.5H1126.38V142.2H1121.43ZM1088.98 139.65V117.75H1108.08V105.6H1088.88V101.05H1113.03V122.3H1093.93V135.1H1106.43C1110.48 135.1 1114.88 134.3 1117.48 133.05V137.6C1114.88 138.9 1110.43 139.65 1106.28 139.65H1088.98Z" fill="#091F5B"/>
<path d="M860.1 307.5H864.8V350.2H860.1V307.5ZM849.8 325.3V307.75H854.45V349.45H849.8V330H844.15C843.85 342.65 840.45 348.2 834.25 348.2C827.8 348.2 824.3 342.15 824.3 328.35C824.3 314.55 827.8 308.5 834.25 308.5C840.2 308.5 843.6 313.65 844.1 325.3H849.8ZM834.25 343.7C837.8 343.7 839.45 338.85 839.45 328.35C839.45 317.85 837.8 313 834.25 313C830.7 313 829 317.85 829 328.35C829 338.85 830.7 343.7 834.25 343.7ZM907.096 307.5H912.046V350.2H907.096V327.6H896.096V322.95H907.096V307.5ZM889.696 308.75C889.696 314.6 889.246 319.9 888.446 324.65L901.796 345.05L897.646 347.75L886.996 330.95C884.096 341.05 878.946 347.1 872.196 347.65V342.6C880.396 341.25 884.596 326.5 884.646 308.55L889.696 308.75ZM968.855 307.5H973.805V350.2H968.855V307.5ZM953.055 308.75C953.005 315.3 952.455 321.2 951.355 326.3L965.155 344.7L961.155 347.55L949.805 332.05C946.655 341.45 941.455 347.15 934.705 347.65V342.65C943.255 341.3 947.955 326.5 948.005 308.55L953.055 308.75ZM1026.7 316.55V321.25H1020.7V333H1015.75V307.5H1020.7V316.55H1026.7ZM996.751 323C993.801 327.85 988.851 331.1 982.651 331.75V327.25C989.801 326.2 994.201 320.65 994.701 312.85H983.201V308.6H1010.45V312.85H999.651C999.601 315 999.201 317 998.601 318.9L1011.7 327.7L1009.05 331.4L996.751 323ZM984.601 339.65V335.35H1020.7V350.2H1015.7V339.65H984.601ZM1043.05 307.4V314.15H1052V318.6H1029.2V314.15H1038.15V307.4H1043.05ZM1066.6 307.5H1071.2V350.2H1066.6V329.35H1059.75V349.45H1055.15V307.75H1059.75V324.7H1066.6V307.5ZM1040.8 321.95C1046.55 321.95 1050.75 326.55 1050.75 335.05C1050.75 343.55 1046.55 348.15 1040.8 348.15C1035.1 348.15 1030.9 343.55 1030.9 335.05C1030.9 326.55 1035.1 321.95 1040.8 321.95ZM1040.8 343.8C1043.9 343.8 1046.2 340.65 1046.2 335.05C1046.2 329.45 1043.9 326.3 1040.8 326.3C1037.75 326.3 1035.5 329.45 1035.5 335.05C1035.5 340.65 1037.75 343.8 1040.8 343.8ZM1102.04 343.5H1120.89V348.15H1078.24V343.5H1096.99V333.9H1081.04V308.75H1085.94V316.4H1113.14V308.75H1118.04V333.9H1102.04V343.5ZM1085.94 320.85V329.45H1113.14V320.85H1085.94ZM1170.99 324.8V329.55H1164.99V350.2H1160.04V307.5H1164.99V324.8H1170.99ZM1143.94 313.6C1143.89 318.6 1143.44 323.15 1142.64 327.15L1156.34 344.35L1152.44 347.3L1141.19 332.75C1138.29 341.6 1133.29 346.9 1126.84 347.65V342.75C1134.39 341.35 1138.79 329.45 1138.94 313.6H1127.84V309.05H1154.69V313.6H1143.94ZM1176.28 338.05L1175.03 309.1H1181.38L1180.08 338.05H1176.28ZM1178.18 349.95C1176.08 349.95 1174.48 348.35 1174.48 346.25C1174.48 344.2 1176.08 342.6 1178.18 342.6C1180.28 342.6 1181.88 344.2 1181.88 346.25C1181.88 348.35 1180.28 349.95 1178.18 349.95Z" fill="#091F5B"/>
<g clip-path="url(#clip0_271_3)">
<path d="M139.853 454.534H60.2242C58.8277 454.534 57.6956 455.668 57.6956 457.066V458.469C57.6956 459.867 58.8277 461 60.2242 461H139.853C141.25 461 142.382 459.867 142.382 458.469V457.066C142.382 455.668 141.25 454.534 139.853 454.534Z" fill="#EDF0F5"/>
<path d="M644.346 454.534H622.556C621.16 454.534 620.028 455.668 620.028 457.066V458.469C620.028 459.867 621.16 461 622.556 461H644.346C645.742 461 646.874 459.867 646.874 458.469V457.066C646.874 455.668 645.742 454.534 644.346 454.534Z" fill="#EDF0F5"/>
<path d="M289.691 454.534H210.062C208.665 454.534 207.533 455.668 207.533 457.066V458.469C207.533 459.867 208.665 461 210.062 461H289.691C291.088 461 292.22 459.867 292.22 458.469V457.066C292.22 455.668 291.088 454.534 289.691 454.534Z" fill="#EDF0F5"/>
<path d="M406.599 454.534H326.97C325.573 454.534 324.441 455.668 324.441 457.066V458.469C324.441 459.867 325.573 461 326.97 461H406.599C407.996 461 409.128 459.867 409.128 458.469V457.066C409.128 455.668 407.996 454.534 406.599 454.534Z" fill="#EDF0F5"/>
<path d="M549.762 454.534H441.22C439.823 454.534 438.691 455.668 438.691 457.066V458.469C438.691 459.867 439.823 461 441.22 461H549.762C551.158 461 552.29 459.867 552.29 458.469V457.066C552.29 455.668 551.158 454.534 549.762 454.534Z" fill="#EDF0F5"/>
<path d="M166.541 98.9843C166.541 98.9843 158.132 93.2561 145.835 97.668C133.539 102.08 130.779 118.657 133.799 132.124C136.834 145.576 119.899 191.517 119.899 191.517C119.899 191.517 128.699 203.913 159.461 199.169C159.461 199.169 182.392 157.437 180.687 127.495C178.982 97.5522 166.541 98.9987 166.541 98.9987V98.9843Z" fill="#091F5B"/>
<path d="M176.251 150.754C187.81 147.051 194.89 156.685 201.508 174.622C208.126 192.558 210.365 194.352 210.365 194.352L235.926 210.799L233.802 220.389C233.802 220.389 209.47 210.857 203.589 204.781C197.708 198.72 180.788 167.982 180.788 167.982L176.265 150.754H176.251Z" fill="#FFC08D"/>
<path d="M119.914 266.605C119.914 266.605 114.9 292.034 115.723 330.309C115.723 330.309 95.9568 359.485 112.27 442.731H120.824C120.824 442.731 127.817 371.91 133.163 352.715C138.51 333.52 158.262 327.633 159.331 269.281L119.914 266.605Z" fill="#FFD2A9"/>
<path d="M80.7997 341.374C75.8291 324.971 63.0561 297.502 30.271 260.269C30.271 260.269 28.3203 259.257 25.6761 260.877C22.8875 262.583 22.8875 264.594 22.8875 264.594C22.8875 264.594 39.3306 300.453 49.8062 326.721C53.3318 335.559 61.8713 341.374 71.3788 341.374H80.7997Z" fill="#FFD2A9"/>
<path d="M140.489 373.096C140.489 373.096 140.605 385.334 132.586 385.536C121.258 385.84 120.838 373.487 108.008 373.892C95.1768 374.297 68.7059 377.508 60.2821 357.431C55.9329 347.059 61.8859 333.737 47.8558 323.698C33.8257 313.66 40.6312 302.42 47.8558 296.403C55.0804 290.4 44.7492 283.818 52.2628 280.752C54.0545 280.028 55.8173 280.115 57.4645 280.65C58.4326 280.983 59.3284 281.46 60.1954 282.025C64.1689 284.672 66.972 289.286 66.972 289.286C88.2267 231.006 126.069 223.311 126.069 223.311L163.492 236.243C164.388 326.924 140.504 373.082 140.504 373.082L140.489 373.096Z" fill="#091F5B"/>
<path d="M176.251 150.755C176.251 150.755 167.524 153.705 155.097 151.811C142.671 149.916 138.64 142.119 129.912 147.138C116.807 154.675 122.933 180.639 126.228 194.15C127.456 199.183 129.017 212.404 126.054 223.326C126.054 223.326 143.509 236.923 163.478 236.243L174.372 212.52C174.372 212.52 198.069 184.14 176.251 150.755Z" fill="#6F96D1"/>
<path d="M154.071 128.97C154.071 128.97 155.531 141.251 150.979 152.433C150.979 152.433 157.452 162.008 163.637 155.702C163.637 155.702 164.2 144.448 171.15 131.704C175.803 123.17 154.057 128.97 154.057 128.97H154.071Z" fill="#FFC08D"/>
<path d="M144.145 129.39C144.145 129.39 138.683 125.932 139.29 131.27C140.012 137.461 146.038 138.662 146.674 136.506C147.309 134.337 144.13 129.39 144.13 129.39H144.145Z" fill="#FFD2A9"/>
<path d="M175.5 122.692C175.5 122.692 178.967 117.225 180.687 122.316C182.681 128.218 177.739 131.878 176.236 130.2C174.734 128.522 175.5 122.692 175.5 122.692Z" fill="#FFD2A9"/>
<path d="M164.215 147.876C154.303 150.103 147.251 144.867 142.902 125.426C140.663 115.402 144.376 108.097 155.487 105.609C166.599 103.121 172.639 108.227 174.893 118.251C179.56 139.139 174.459 145.576 164.215 147.876Z" fill="#FFD2A9"/>
<path d="M173.159 125.933C173.549 126.887 172.913 128.073 171.714 128.565C170.515 129.057 169.229 128.681 168.824 127.726C168.434 126.771 169.07 125.585 170.269 125.094C171.468 124.602 172.754 124.978 173.159 125.933Z" fill="#FFB68D"/>
<path d="M152.887 131.053C153.046 132.08 152.135 133.078 150.864 133.266C149.578 133.469 148.422 132.803 148.248 131.776C148.09 130.749 149 129.751 150.271 129.563C151.557 129.361 152.713 130.026 152.887 131.053Z" fill="#FFB68D"/>
<path d="M166.252 116.878C166.151 116.878 166.064 116.849 165.978 116.791C164.287 115.662 161.874 116.256 161.86 116.27C161.585 116.342 161.311 116.169 161.238 115.908C161.166 115.634 161.325 115.359 161.6 115.286C161.715 115.257 164.475 114.563 166.541 115.952C166.772 116.111 166.83 116.429 166.686 116.661C166.585 116.805 166.426 116.892 166.267 116.892L166.252 116.878Z" fill="black"/>
<path d="M147.584 121.058C147.497 121.058 147.41 121.029 147.324 120.985C147.078 120.841 147.006 120.523 147.15 120.291C148.436 118.15 151.225 117.601 151.341 117.586C151.615 117.543 151.875 117.716 151.933 117.991C151.991 118.266 151.803 118.526 151.528 118.584C151.5 118.584 149.072 119.076 148.017 120.826C147.916 120.985 147.757 121.072 147.584 121.072V121.058Z" fill="black"/>
<path d="M166.686 122.316C166.96 123.546 166.628 124.674 165.949 124.819C165.27 124.978 164.489 124.095 164.215 122.866C163.94 121.636 164.273 120.508 164.952 120.363C165.631 120.204 166.411 121.087 166.686 122.316Z" fill="black"/>
<path d="M152.916 125.281C153.19 126.511 152.858 127.639 152.179 127.784C151.5 127.943 150.719 127.061 150.445 125.831C150.17 124.602 150.503 123.473 151.182 123.329C151.861 123.169 152.641 124.052 152.916 125.281Z" fill="black"/>
<path d="M157.366 136.955C157.366 136.955 163.738 136.434 166.541 134.062C166.541 134.062 165.775 139.038 162.308 139.385C158.84 139.732 157.366 136.955 157.366 136.955Z" fill="black"/>
<path d="M163.218 122.461C163.218 122.461 163.449 119.221 164.677 119.177C165.92 119.134 167.408 121.521 167.408 121.521L168.954 120.19L167.249 120.812C167.249 120.812 165.732 118.309 164.547 118.57C162.871 118.931 163.218 122.461 163.218 122.461Z" fill="black"/>
<path d="M153.667 124.978C153.667 124.978 152.077 122.143 150.936 122.635C149.794 123.126 149.477 125.918 149.477 125.918L147.511 125.383L149.318 125.224C149.318 125.224 149.621 122.302 150.806 122.042C152.482 121.651 153.667 124.992 153.667 124.992V124.978Z" fill="black"/>
<path d="M160.574 131.213L160.068 130.243C160.892 129.809 160.964 129.216 160.877 128.811C160.761 128.218 160.285 127.755 159.938 127.726C159.736 127.726 159.562 127.886 159.432 128.233L158.406 127.857C158.84 126.67 159.678 126.613 160.01 126.627C160.877 126.699 161.73 127.553 161.946 128.58C162.163 129.65 161.657 130.634 160.574 131.213Z" fill="black"/>
<path d="M144.925 132.89C144.925 132.89 141.862 121.622 143.683 113.666C143.683 113.666 152.309 101.646 168.954 107.591C168.954 107.591 173.896 115.547 176.338 126.685C176.338 126.685 176.959 122.678 175.297 113.767C173.636 104.857 165.746 99.3169 154.91 101.111C144.087 102.89 132.499 113.681 144.911 132.89H144.925Z" fill="#091F5B"/>
<path d="M162.38 105.089C162.38 105.089 163.044 108.025 160.183 115.605C160.183 115.605 158.132 113.449 155.719 115.605C153.305 117.76 148.422 117.037 146.76 118.194C145.098 119.351 145.098 122.013 145.098 122.013C145.098 122.013 143.653 118.7 145.098 114.737C145.098 114.737 141.847 118.874 142.281 123.965C142.281 123.965 137.874 123.257 138.076 115.981C138.278 108.705 148.595 96.9448 160.183 97.7115C171.772 98.4781 174.517 116.834 174.517 116.834C174.517 116.834 173.462 116.01 171.8 116.371C171.8 116.371 171.54 112.48 168.939 107.591C168.939 107.591 170.139 111.121 168.939 114.939C168.939 114.939 165.717 113.247 163.174 113.782C163.174 113.782 164.749 110.701 162.365 105.103L162.38 105.089Z" fill="#091F5B"/>
<path d="M126.965 149.453C132.6 144.998 136.993 150.668 138.062 158.493C139.131 166.319 128.944 212.491 121.084 210.784C118.05 210.134 116.807 198.026 116.807 198.026C116.807 198.026 119.885 185.051 121.864 165.509C122.775 156.526 124.003 151.767 126.95 149.453H126.965Z" fill="#FFD2A9"/>
<path d="M110.565 204.26C102.979 197.013 89.3681 173.002 85.9148 160.764L91.68 158.45C91.68 158.45 109.019 183.286 116.923 189.549C124.826 195.813 127.615 202.785 124.075 208.759C120.549 214.733 112.169 205.794 110.565 204.26Z" fill="#FFD2A9"/>
<path d="M88.2844 144.752C87.8943 152.606 94.2808 154.472 91.4488 160.504C90.8564 161.748 89.975 162.413 89.0502 162.732C87.2874 163.354 85.3368 162.76 84.0364 161.444C81.0021 158.363 76.2916 155.108 73.7919 153.676C70.9454 152.027 72.5638 151.579 72.5638 151.579C72.2892 151.449 72.0147 151.348 71.7546 151.232C69.7317 150.378 68.099 150.06 69.5728 149.163C71.2344 148.136 77.1008 150.277 77.1008 150.277C69.4572 145.185 67.3909 146.429 68.7781 145.345C70.6854 143.869 77.9388 147.268 78.1556 147.37C74.1243 143.551 71.1911 142.683 72.7949 142.104C74.4132 141.526 82.4036 147.312 85.3223 149.482C85.9726 149.973 86.3771 150.277 86.3771 150.277C86.276 143.855 88.2989 144.737 88.2989 144.737L88.2844 144.752Z" fill="#FFD2A9"/>
<path d="M85.3078 149.482C85.958 149.974 86.3626 150.277 86.3626 150.277C86.3626 150.277 84.9899 152.577 86.7672 155.557C86.7672 155.557 83.5161 153.416 85.3078 149.467V149.482Z" fill="#FFC08D"/>
<path d="M78.6034 153.995C77.9243 153.618 74.0664 151.449 72.5347 151.579C72.2602 151.449 71.9857 151.347 71.7256 151.232C72.7515 149.872 77.8376 153.445 78.6034 153.995Z" fill="#FFC08D"/>
<path d="M108.903 270.554C108.903 271.407 108.21 272.101 107.357 272.101C106.505 272.101 105.811 271.407 105.811 270.554C105.811 269.7 106.505 269.006 107.357 269.006C108.21 269.006 108.903 269.7 108.903 270.554Z" fill="#FFF9EF"/>
<path d="M136.415 281.171C136.415 282.024 135.721 282.719 134.869 282.719C134.016 282.719 133.323 282.024 133.323 281.171C133.323 280.317 134.016 279.623 134.869 279.623C135.721 279.623 136.415 280.317 136.415 281.171Z" fill="#FFF9EF"/>
<path d="M159.851 286.87C159.851 287.723 159.158 288.418 158.305 288.418C157.453 288.418 156.759 287.723 156.759 286.87C156.759 286.017 157.453 285.322 158.305 285.322C159.158 285.322 159.851 286.017 159.851 286.87Z" fill="#FFF9EF"/>
<path d="M123.829 250.39C123.829 251.243 123.136 251.937 122.283 251.937C121.431 251.937 120.737 251.243 120.737 250.39C120.737 249.536 121.431 248.842 122.283 248.842C123.136 248.842 123.829 249.536 123.829 250.39Z" fill="#FFF9EF"/>
<path d="M127.485 266.605C128.339 266.605 129.031 265.912 129.031 265.057C129.031 264.202 128.339 263.509 127.485 263.509C126.631 263.509 125.939 264.202 125.939 265.057C125.939 265.912 126.631 266.605 127.485 266.605Z" fill="#FFF9EF"/>
<path d="M153.421 273.418C153.421 274.271 152.728 274.966 151.875 274.966C151.023 274.966 150.329 274.271 150.329 273.418C150.329 272.564 151.023 271.87 151.875 271.87C152.728 271.87 153.421 272.564 153.421 273.418Z" fill="#FFF9EF"/>
<path d="M156.774 248.119C156.774 248.972 156.08 249.666 155.227 249.666C154.375 249.666 153.681 248.972 153.681 248.119C153.681 247.265 154.375 246.571 155.227 246.571C156.08 246.571 156.774 247.265 156.774 248.119Z" fill="#FFF9EF"/>
<path d="M139.247 244.401C140.101 244.401 140.793 243.708 140.793 242.853C140.793 241.998 140.101 241.305 139.247 241.305C138.393 241.305 137.701 241.998 137.701 242.853C137.701 243.708 138.393 244.401 139.247 244.401Z" fill="#FFF9EF"/>
<path d="M95.2491 300.67C95.2491 301.523 94.5555 302.218 93.703 302.218C92.8505 302.218 92.157 301.523 92.157 300.67C92.157 299.816 92.8505 299.122 93.703 299.122C94.5555 299.122 95.2491 299.816 95.2491 300.67Z" fill="#FFF9EF"/>
<path d="M73.2718 294.102C73.2718 294.956 72.5782 295.65 71.7257 295.65C70.8732 295.65 70.1797 294.956 70.1797 294.102C70.1797 293.249 70.8732 292.555 71.7257 292.555C72.5782 292.555 73.2718 293.249 73.2718 294.102Z" fill="#FFF9EF"/>
<path d="M60.181 282.024C59.9064 282.444 59.4296 282.719 58.8805 282.719C58.028 282.719 57.3345 282.024 57.3345 281.171C57.3345 280.983 57.3634 280.795 57.4501 280.636C58.4182 280.968 59.314 281.446 60.181 282.01V282.024Z" fill="#FFF9EF"/>
<path d="M101.592 322.353C102.446 322.353 103.138 321.66 103.138 320.805C103.138 319.95 102.446 319.257 101.592 319.257C100.738 319.257 100.046 319.95 100.046 320.805C100.046 321.66 100.738 322.353 101.592 322.353Z" fill="#FFF9EF"/>
<path d="M63.6776 342.676C63.6776 343.53 62.984 344.224 62.1315 344.224C61.279 344.224 60.5854 343.53 60.5854 342.676C60.5854 341.823 61.279 341.128 62.1315 341.128C62.984 341.128 63.6776 341.823 63.6776 342.676Z" fill="#FFF9EF"/>
<path d="M78.2568 330.959C79.1106 330.959 79.8028 330.266 79.8028 329.412C79.8028 328.557 79.1106 327.864 78.2568 327.864C77.4029 327.864 76.7107 328.557 76.7107 329.412C76.7107 330.266 77.4029 330.959 78.2568 330.959Z" fill="#FFF9EF"/>
<path d="M54.2568 319.228C55.1106 319.228 55.8028 318.535 55.8028 317.681C55.8028 316.826 55.1106 316.133 54.2568 316.133C53.4029 316.133 52.7107 316.826 52.7107 317.681C52.7107 318.535 53.4029 319.228 54.2568 319.228Z" fill="#FFF9EF"/>
<path d="M75.1646 363.896C75.1646 364.75 74.4711 365.444 73.6186 365.444C72.7661 365.444 72.0725 364.75 72.0725 363.896C72.0725 363.043 72.7661 362.349 73.6186 362.349C74.4711 362.349 75.1646 363.043 75.1646 363.896Z" fill="#FFF9EF"/>
<path d="M89.8595 282.719C89.8595 283.572 89.1659 284.266 88.3134 284.266C87.4609 284.266 86.7673 283.572 86.7673 282.719C86.7673 281.865 87.4609 281.171 88.3134 281.171C89.1659 281.171 89.8595 281.865 89.8595 282.719Z" fill="#FFF9EF"/>
<path d="M104.67 256.725C104.67 257.578 103.976 258.273 103.124 258.273C102.271 258.273 101.578 257.578 101.578 256.725C101.578 255.872 102.271 255.177 103.124 255.177C103.976 255.177 104.67 255.872 104.67 256.725Z" fill="#FFF9EF"/>
<path d="M121.431 235.085C121.431 235.939 120.737 236.633 119.885 236.633C119.032 236.633 118.339 235.939 118.339 235.085C118.339 234.232 119.032 233.538 119.885 233.538C120.737 233.538 121.431 234.232 121.431 235.085Z" fill="#FFF9EF"/>
<path d="M87.461 266.605C87.461 267.458 86.7675 268.153 85.915 268.153C85.0625 268.153 84.3689 267.458 84.3689 266.605C84.3689 265.751 85.0625 265.057 85.915 265.057C86.7675 265.057 87.461 265.751 87.461 266.605Z" fill="#FFF9EF"/>
<path d="M106.216 241.306C106.216 242.159 105.522 242.853 104.67 242.853C103.817 242.853 103.124 242.159 103.124 241.306C103.124 240.452 103.817 239.758 104.67 239.758C105.522 239.758 106.216 240.452 106.216 241.306Z" fill="#FFF9EF"/>
<path d="M76.7108 310.824C76.7108 311.678 76.0172 312.372 75.1647 312.372C74.3122 312.372 73.6187 311.678 73.6187 310.824C73.6187 309.971 74.3122 309.276 75.1647 309.276C76.0172 309.276 76.7108 309.971 76.7108 310.824Z" fill="#FFF9EF"/>
<path d="M57.3343 297.183C57.3343 298.037 56.6407 298.731 55.7882 298.731C54.9357 298.731 54.2422 298.037 54.2422 297.183C54.2422 296.33 54.9357 295.636 55.7882 295.636C56.6407 295.636 57.3343 296.33 57.3343 297.183Z" fill="#FFF9EF"/>
<path d="M111.981 294.103C112.835 294.103 113.527 293.41 113.527 292.555C113.527 291.7 112.835 291.007 111.981 291.007C111.127 291.007 110.435 291.7 110.435 292.555C110.435 293.41 111.127 294.103 111.981 294.103Z" fill="#FFF9EF"/>
<path d="M143.87 302.218C144.724 302.218 145.416 301.525 145.416 300.67C145.416 299.815 144.724 299.122 143.87 299.122C143.016 299.122 142.324 299.815 142.324 300.67C142.324 301.525 143.016 302.218 143.87 302.218Z" fill="#FFF9EF"/>
<path d="M143.87 256.725C143.87 257.578 143.177 258.273 142.324 258.273C141.472 258.273 140.778 257.578 140.778 256.725C140.778 255.872 141.472 255.177 142.324 255.177C143.177 255.177 143.87 255.872 143.87 256.725Z" fill="#FFF9EF"/>
<path d="M162.409 259.951C162.409 260.804 161.715 261.498 160.863 261.498C160.01 261.498 159.317 260.804 159.317 259.951C159.317 259.097 160.01 258.403 160.863 258.403C161.715 258.403 162.409 259.097 162.409 259.951Z" fill="#FFF9EF"/>
<path d="M125.376 312.372C125.376 313.225 124.682 313.92 123.83 313.92C122.977 313.92 122.283 313.225 122.283 312.372C122.283 311.519 122.977 310.824 123.83 310.824C124.682 310.824 125.376 311.519 125.376 312.372Z" fill="#FFF9EF"/>
<path d="M110.435 341.374C111.289 341.374 111.981 340.681 111.981 339.827C111.981 338.972 111.289 338.279 110.435 338.279C109.581 338.279 108.889 338.972 108.889 339.827C108.889 340.681 109.581 341.374 110.435 341.374Z" fill="#FFF9EF"/>
<path d="M86.7673 345.772C87.6211 345.772 88.3133 345.079 88.3133 344.224C88.3133 343.369 87.6211 342.676 86.7673 342.676C85.9134 342.676 85.2212 343.369 85.2212 344.224C85.2212 345.079 85.9134 345.772 86.7673 345.772Z" fill="#FFF9EF"/>
<path d="M151.875 322.353C152.729 322.353 153.421 321.66 153.421 320.805C153.421 319.95 152.729 319.257 151.875 319.257C151.021 319.257 150.329 319.95 150.329 320.805C150.329 321.66 151.021 322.353 151.875 322.353Z" fill="#FFF9EF"/>
<path d="M132.109 332.507C132.109 333.361 131.415 334.055 130.563 334.055C129.71 334.055 129.017 333.361 129.017 332.507C129.017 331.654 129.71 330.959 130.563 330.959C131.415 330.959 132.109 331.654 132.109 332.507Z" fill="#FFF9EF"/>
<path d="M100.046 366.977C100.046 367.831 99.3527 368.525 98.5002 368.525C97.6477 368.525 96.9541 367.831 96.9541 366.977C96.9541 366.124 97.6477 365.43 98.5002 365.43C99.3527 365.43 100.046 366.124 100.046 366.977Z" fill="#FFF9EF"/>
<path d="M122.298 360.483C123.152 360.483 123.844 359.79 123.844 358.935C123.844 358.08 123.152 357.387 122.298 357.387C121.444 357.387 120.752 358.08 120.752 358.935C120.752 359.79 121.444 360.483 122.298 360.483Z" fill="#FFF9EF"/>
<path d="M145.214 351.399C146.068 351.399 146.76 350.706 146.76 349.851C146.76 348.996 146.068 348.303 145.214 348.303C144.36 348.303 143.668 348.996 143.668 349.851C143.668 350.706 144.36 351.399 145.214 351.399Z" fill="#FFF9EF"/>
<path d="M136.415 376.409C136.415 377.262 135.721 377.956 134.869 377.956C134.016 377.956 133.323 377.262 133.323 376.409C133.323 375.555 134.016 374.861 134.869 374.861C135.721 374.861 136.415 375.555 136.415 376.409Z" fill="#FFF9EF"/>
<path d="M134.724 457.702H109.395C107.747 452.987 110.796 448.242 110.276 444.076C109.395 437.046 113.484 440.923 113.484 440.923C114.206 433.358 124.826 431.926 124.711 435.296C124.537 440.258 125.491 443.324 126.907 445.378C129.768 449.501 134.449 449.472 135.244 452.423C135.331 452.712 135.389 453.001 135.432 453.262C136.212 456.95 134.709 457.673 134.709 457.673L134.724 457.702Z" fill="#091F5B"/>
<path d="M135.446 453.291C130.201 454.506 118.107 452.915 117.631 449.877C117.168 446.926 123.685 445.537 126.921 445.407C129.782 449.53 134.464 449.501 135.259 452.452C135.345 452.741 135.403 453.03 135.446 453.291Z" fill="#6F96D1"/>
<path d="M30.589 261.282C27.887 258.822 23.5089 262.887 23.5089 262.887C23.5089 262.887 25.8641 266.388 24.3469 267.805C22.8298 269.223 21.0525 265.997 18.0615 267.4C17.8159 267.516 17.5703 267.661 17.3246 267.82C14.9839 269.223 12.542 272.159 10.5769 274.387C10.1723 274.835 9.79662 275.255 9.43539 275.616C7.13798 278.032 1.22827 279.435 0.11569 273.013C-0.996895 266.59 6.22768 259.054 14.1458 252.14C22.064 245.225 27.1934 249.333 27.1934 249.333C27.1934 249.333 28.9851 252.241 28.9851 254.049C28.9851 255.857 30.589 256.754 31.4848 258.461C32.3806 260.168 30.589 261.267 30.589 261.267V261.282Z" fill="#091F5B"/>
<path d="M17.3246 267.82C14.9839 269.223 12.542 272.159 10.5769 274.387C7.61479 275.096 4.9417 274.879 4.52267 272.087C3.51123 265.346 16.9489 256.768 15.8797 261.498C15.3306 263.871 16.2698 266.142 17.3246 267.805V267.82Z" fill="#6F96D1"/>
<path d="M486.387 446.738C485.145 446.087 483.989 444.64 482.948 442.818C482.948 442.818 482.053 437.422 482.948 431.752C483.844 426.082 481.373 421.453 473.354 419.703C465.552 418.01 460.928 421.771 462.734 437.466C461.549 443.989 461.304 451.424 464.006 457.702H488.006C488.006 457.702 491.791 449.573 486.387 446.738Z" fill="#EDF0F5"/>
<path d="M507.454 362.146C507.454 362.146 507.454 377.812 498.626 393.868C489.639 410.228 478.527 432.663 478.527 432.663C478.527 432.663 471.129 439.896 466.419 427.919C466.419 427.919 469.742 386.23 477.357 370.984C484.971 355.724 507.44 362.146 507.44 362.146H507.454Z" fill="#FFD2A9"/>
<path d="M622.556 311.157C622.556 311.157 636.846 371.346 645.949 387.228C645.949 387.228 643.854 393.868 634.014 395.878C634.014 395.878 602.905 350.111 600.911 330.829C598.917 311.547 622.571 311.157 622.571 311.157H622.556Z" fill="#FFD2A9"/>
<path d="M629.463 325.318C625.663 334.489 596.288 334.981 596.288 334.981L594.048 331.668L593.456 330.801L588.861 324.016C588.861 324.016 540.181 276.224 530.703 280.231H530.688C530.414 280.361 530.139 280.506 529.879 280.694C523.363 285.351 522.756 310.868 515.054 353.699C514.317 357.763 512.685 362.493 511.442 365.777C511.298 366.124 511.168 366.471 511.038 366.79C510.33 368.598 509.838 369.755 509.838 369.755C480.131 381.804 470.32 357.995 470.32 357.995C470.32 357.995 470.667 357.3 471.187 356.201C471.302 355.955 471.432 355.68 471.562 355.391C473.123 351.948 475.608 345.989 475.579 342.85C475.55 339.393 475.522 336.066 475.493 332.884C475.493 332.594 475.493 332.319 475.478 332.045C475.435 321.745 475.449 312.806 475.507 305.038V304.214C475.536 300.829 475.594 297.661 475.652 294.71V293.871C475.912 280.332 476.345 271.291 476.807 265.274C476.822 264.999 476.851 264.71 476.865 264.45C477.689 254.31 478.556 253.326 478.556 253.326L472.603 211.913H537.537C537.537 211.913 547.29 221.691 559.948 234.608C560.222 234.869 560.483 235.129 560.728 235.389C565.323 240.062 570.279 245.139 575.25 250.288C575.452 250.491 575.654 250.693 575.828 250.881C577.778 252.906 579.743 254.932 581.679 256.942C581.925 257.188 582.142 257.434 582.387 257.68C588.904 264.435 595.218 271.103 600.622 276.933C600.81 277.121 600.998 277.323 601.171 277.511C608.569 285.525 614.205 291.933 616.141 294.927C621.285 302.811 625.301 313.081 627.512 319.417C627.628 319.72 627.714 319.981 627.816 320.256C628.856 323.337 629.434 325.304 629.434 325.304L629.463 325.318Z" fill="#091F5B"/>
<path d="M488.295 259.546C485.65 262.685 481.793 264.608 476.822 265.288C476.836 265.013 476.865 264.724 476.88 264.464C481.561 263.784 485.188 261.961 487.673 259.01C492.138 253.745 491.416 246.628 491.401 246.571L492.21 246.469C492.239 246.773 492.976 254.006 488.295 259.546Z" fill="#F2F1DF"/>
<path d="M560.757 235.404C560.497 235.418 560.266 235.432 560.006 235.432C552.781 235.432 545.253 227.535 544.863 227.13L545.441 226.565C545.542 226.681 553.041 234.55 559.977 234.608C560.251 234.868 560.511 235.129 560.757 235.389V235.404Z" fill="#F2F1DF"/>
<path d="M511.457 365.791C511.312 366.138 511.182 366.485 511.052 366.804C506.24 368.568 501.833 369.292 497.802 369.292C484.971 369.292 476.085 361.857 471.201 356.215C471.317 355.969 471.447 355.695 471.577 355.405C477.819 362.725 491.155 373.53 511.457 365.777V365.791Z" fill="#F2F1DF"/>
<path d="M528.897 265.332C529.966 269.946 530.659 274.965 530.688 280.245C530.414 280.375 530.139 280.52 529.879 280.708C529.85 256.465 515.82 237.544 515.661 237.327L516.297 236.85C516.427 237.009 524.735 248.249 528.665 264.493C530.298 263.422 531.411 261.875 531.873 259.878C533.896 251.373 524.706 237.458 524.62 237.313L525.284 236.865C525.674 237.458 534.748 251.199 532.668 260.052C532.119 262.366 530.833 264.117 528.882 265.317L528.897 265.332Z" fill="#F2F1DF"/>
<path d="M601.2 277.54C598.816 280.144 596.562 282.357 596.36 282.545L595.926 282.979L595.724 282.4C592.574 274.155 572.36 256.305 572.158 256.132L571.912 255.9L575.279 250.317C575.481 250.519 575.683 250.722 575.856 250.91L573.039 255.597C576.969 256.956 579.758 257.202 581.723 256.956C581.968 257.202 582.185 257.448 582.431 257.694C581.766 257.81 581.073 257.868 580.336 257.868C578.53 257.868 576.449 257.492 574.123 256.797C578.717 260.934 592.979 274.17 596.244 281.547C597.516 280.288 599.12 278.639 600.666 276.947C600.854 277.135 601.041 277.338 601.215 277.526L601.2 277.54Z" fill="#F2F1DF"/>
<path d="M490.289 332.767L489.971 332.825C489.667 332.912 486.026 333.664 481.836 333.664C479.741 333.664 477.516 333.476 475.522 332.912C475.522 332.623 475.522 332.348 475.507 332.073C480.795 333.592 487.876 332.42 489.479 332.116L488.136 298.702C487.384 300.539 485.896 303.042 483.093 304.416C481.764 305.096 480.275 305.414 478.628 305.414C477.646 305.414 476.62 305.298 475.536 305.067V304.242C478.31 304.879 480.723 304.705 482.717 303.693C486.113 302 487.471 298.399 487.876 296.967C485.202 297.372 479.784 295.997 475.666 294.739V293.9C480.116 295.245 486.127 296.807 488.295 296.055L488.815 295.882L490.289 332.767Z" fill="#F2F1DF"/>
<path d="M627.845 320.27C623.177 324.884 613.612 331.929 598.903 331.929C597.342 331.929 595.724 331.842 594.048 331.668L593.456 330.8C611.344 332.854 622.556 324.45 627.541 319.445C627.657 319.735 627.743 319.995 627.845 320.27Z" fill="#F2F1DF"/>
<path d="M549.559 35.8297C549.559 35.8297 547.767 31.7217 540.239 31.7217C534.431 31.7217 532.206 34.9329 532.206 34.9329C528.723 45.1018 524.996 84.0561 523.652 85.4303C522.973 86.1391 479.871 115.185 479.871 115.185C503.264 115.619 517.843 144.476 517.843 144.476C518.595 134.987 545.008 97.4073 545.297 94.0659C545.831 87.7447 557 59.509 549.545 35.8297H549.559Z" fill="#6F96D1"/>
<path d="M474.741 239.468C474.741 239.468 474.525 247.597 477.154 248.133C479.784 248.668 501.169 255.004 525.761 243.808C550.354 232.612 554.631 224.309 547.421 218.161C540.196 211.999 474.741 239.483 474.741 239.483V239.468Z" fill="#6F96D1"/>
<path d="M464.887 120.812C464.887 120.812 442.505 118.165 429.675 123.719C429.675 123.719 426.091 139.617 443.734 175.2C461.362 210.784 457.272 233.191 477.154 241.624C494.782 249.102 546.756 226.841 548.389 219.463C552.492 200.876 520.719 168.272 518.71 149.38C516.702 130.489 498.25 102.08 464.887 120.812Z" fill="#344EAD"/>
<path d="M429.675 123.719C414.041 129.274 396.442 146.863 396.413 155.34C396.384 163.816 411.093 167.085 411.093 167.085L435.194 155.34C435.194 155.34 442.086 150.523 437.694 136.478C433.301 122.432 429.675 123.719 429.675 123.719Z" fill="#6F96D1"/>
<path d="M493.944 139.399C489.277 139.399 483.468 137.721 479.871 135.147C477.891 133.729 476.706 132.138 476.446 130.532C475.565 124.963 480.969 122.143 481.2 122.027L481.922 123.459C481.735 123.56 477.328 125.889 478.021 130.286C478.209 131.458 479.163 132.688 480.795 133.845C484.827 136.723 491.806 138.416 496.343 137.606C498.394 137.244 499.724 136.506 500.316 135.421C501.039 134.091 500.417 132.572 500.417 132.557L501.891 131.921C501.935 132.008 502.83 134.134 501.732 136.159C500.894 137.707 499.175 138.734 496.617 139.182C495.794 139.327 494.883 139.399 493.93 139.399H493.944Z" fill="#CFD8DC"/>
<path d="M474.106 156.338C470.638 156.338 464.901 154.892 464.092 149.207C463.688 146.314 463.948 143.898 464.179 141.772C464.526 138.633 464.786 136.159 462.965 133.194C459.945 128.29 455.842 127.972 455.668 127.958L455.77 126.352C455.972 126.352 460.856 126.714 464.324 132.355C466.433 135.798 466.115 138.792 465.768 141.96C465.537 144.101 465.292 146.299 465.682 148.99C466.549 155.123 474.366 154.747 474.698 154.732L474.799 156.338C474.582 156.338 474.351 156.352 474.12 156.352L474.106 156.338Z" fill="#CFD8DC"/>
<path d="M478.975 127.509C478.975 127.509 490.809 119.437 488.006 110.715C485.203 101.978 447.1 102.586 437.275 113.029C427.449 123.473 458.53 130.402 458.53 130.402C460.943 125.542 476.316 125.006 478.99 127.523L478.975 127.509Z" fill="#6F96D1"/>
<path d="M457.706 126.15C452.085 124.24 448.762 120.19 449.961 115.503C451.16 110.817 475.305 110.701 479.871 114.433C484.437 118.165 478.007 133.049 457.691 126.15H457.706Z" fill="#091F5B"/>
<path d="M455.033 112.986C455.033 112.986 460.003 121.477 457.706 126.149C457.706 126.149 474.741 132.037 474.741 122.49C474.741 122.49 471.534 115.33 472.747 110.715L455.033 112.986Z" fill="#FFC08D"/>
<path d="M449.354 105.566C449.354 105.566 440.988 92.1423 441.754 79.3263C442.144 72.9183 445.438 70.4013 445.438 70.4013C445.438 70.4013 442.78 66.6983 445.626 61.0425C445.626 61.0425 449.571 65.6134 463.413 64.1669C476.764 62.7783 478.093 72.2963 478.093 72.2963C487.63 73.7138 481.2 102.6 474.539 105.551H449.354V105.566Z" fill="#091F5B"/>
<path d="M445.8 93.1691C445.8 93.1691 440.988 88.3667 440.396 93.9791C439.716 100.488 445.612 103.107 446.768 101.038C447.924 98.9695 445.8 93.1691 445.8 93.1691Z" fill="#FFD2A9"/>
<path d="M479.495 93.5162C479.495 93.5162 484.306 88.7138 484.899 94.3263C485.578 100.836 479.683 103.454 478.527 101.385C477.371 99.3167 479.495 93.5162 479.495 93.5162Z" fill="#FFD2A9"/>
<path d="M462.141 116.747C451.464 116.747 445.438 109.761 445.438 88.8298C445.438 78.0244 450.929 71.3994 462.893 71.3994C474.857 71.3994 479.885 78.0244 479.885 88.8298C479.885 111.323 473.181 116.747 462.141 116.747Z" fill="#FFD2A9"/>
<path d="M476.345 96.2935C476.533 97.3639 475.594 98.4344 474.25 98.6658C472.906 98.8972 471.664 98.2174 471.476 97.147C471.288 96.0766 472.227 95.0061 473.571 94.7747C474.915 94.5433 476.157 95.2231 476.345 96.2935Z" fill="#FFB68D"/>
<path d="M454.382 96.8866C454.31 97.9715 453.154 98.7816 451.796 98.6948C450.438 98.608 449.397 97.6533 449.47 96.5684C449.542 95.4835 450.698 94.6735 452.056 94.7603C453.414 94.8471 454.455 95.8018 454.382 96.8866Z" fill="#FFB68D"/>
<path d="M471.635 85.0691C471.49 85.098 471.346 85.0691 471.23 84.9679C469.525 83.666 466.982 84.1289 466.939 84.1289C466.65 84.1723 466.375 83.9987 466.317 83.6949C466.26 83.4056 466.447 83.1308 466.736 83.0729C466.852 83.044 469.8 82.5233 471.866 84.1144C472.097 84.288 472.14 84.6352 471.967 84.8666C471.88 84.9823 471.75 85.0547 471.62 85.0691H471.635Z" fill="black"/>
<path d="M451.203 85.141C451.073 85.1265 450.943 85.0542 450.857 84.9529C450.669 84.7215 450.698 84.3888 450.929 84.2007C452.952 82.5373 455.914 82.9857 456.029 83.0001C456.318 83.0435 456.521 83.3184 456.477 83.6077C456.434 83.897 456.145 84.0995 455.871 84.0561C455.856 84.0561 453.255 83.68 451.608 85.0252C451.492 85.1265 451.348 85.1554 451.203 85.141Z" fill="black"/>
<path d="M470.537 91.1009C470.537 92.4317 469.944 93.5021 469.207 93.5021C468.47 93.5021 467.878 92.4317 467.878 91.1009C467.878 89.7701 468.47 88.6997 469.207 88.6997C469.944 88.6997 470.537 89.7701 470.537 91.1009Z" fill="black"/>
<path d="M456.275 91.1009C456.275 92.4317 455.683 93.5021 454.946 93.5021C454.209 93.5021 453.616 92.4317 453.616 91.1009C453.616 89.7701 454.209 88.6997 454.946 88.6997C455.683 88.6997 456.275 89.7701 456.275 91.1009Z" fill="black"/>
<path d="M448.704 73.7285C448.704 73.7285 460.075 77.8944 476.388 76.7227C476.388 76.7227 479.871 81.0622 479.452 96.3807C479.452 96.3807 489.003 68.7959 461.116 68.7959C433.229 68.7959 445.8 95.7731 445.8 95.7731C445.8 95.7731 443.517 78.9069 448.704 73.7285Z" fill="#091F5B"/>
<path d="M462.806 98.2467L462.011 97.4366L464.121 95.3392C462.069 92.4462 462.084 85.7344 462.084 85.4307H463.211C463.211 85.503 463.211 92.721 465.291 94.992L465.667 95.3971L462.806 98.2467Z" fill="black"/>
<path d="M455.726 101.733C455.726 101.733 466.231 102.181 471.533 100.778C471.533 100.778 472.473 108.43 464.323 108.806C455.712 109.211 455.712 101.733 455.712 101.733H455.726Z" fill="black"/>
<path d="M500.634 130.662C502.643 130.286 502.44 135.537 500.634 134.018C498.828 132.499 498.626 131.038 500.634 130.662Z" fill="#CFD8DC"/>
<path d="M476.446 156.121C476.143 158.146 471.245 156.222 473.282 155.022C475.305 153.807 476.75 154.11 476.446 156.121Z" fill="#CFD8DC"/>
<path d="M454.917 167.085C454.917 167.085 451.738 175.258 451.912 179.873C452.1 184.487 453.602 183.894 453.602 183.894C453.602 183.894 451.189 184.848 450.727 187.51C450.265 190.172 456.983 192.124 457.446 192.124C457.908 192.124 462.647 190.316 462.647 190.316L463.644 175.215L459.454 172.582L454.917 167.085Z" fill="#FFC08D"/>
<path d="M457.46 166.015C457.46 166.015 463.254 169.631 465.508 171.83C467.748 174.043 466.476 191.097 465.508 191.907C464.54 192.717 457.157 194.366 455.741 193.441C454.325 192.515 456.29 187.495 456.29 187.495C456.29 187.495 460.003 186.685 459.469 188.103C458.934 189.521 459.469 190.707 459.469 190.707L460.986 190.099C460.986 190.099 460.234 186.28 460.986 183.474C461.737 180.668 455.755 177.703 455.033 172.553C454.31 167.404 457.46 166 457.46 166V166.015Z" fill="#FFD2A9"/>
<path d="M397.366 157.712C395.517 149.684 403.464 146.849 414.532 148.223C427.363 149.814 453.718 153.17 459.454 167.085C459.454 167.085 461.333 172.582 456.478 175.215C442.939 182.592 400.848 172.785 397.366 157.712Z" fill="#6F96D1"/>
<path d="M437.52 152.389C437.52 152.389 422.219 146.024 414.604 145.388C406.989 144.737 425.138 151.405 437.52 152.389Z" fill="#091F5B"/>
<path d="M552.174 14.5375C551.018 15.8539 549.111 20.9745 549.111 20.9745C548.302 25.285 547.84 27.6573 546.337 29.6245C544.849 31.6063 545.629 35.0779 545.629 35.0779C545.629 35.0779 539.791 38.0866 534.879 34.3691C534.879 34.3691 535.399 30.9119 534.879 29.9428C533.867 27.99 530.631 26.9341 529.518 22.9851C528.406 19.0217 525.097 14.5954 525.097 14.5954C525.097 14.5954 526.05 12.5414 527.77 13.7854C529.518 15.0583 530.631 18.2116 531.57 18.5443C531.758 18.6022 531.96 18.6601 532.148 18.6745C532.148 18.6745 532.162 18.6745 532.191 18.689C532.914 18.7902 533.651 18.6311 534.099 18.1972C534.127 18.1827 534.185 18.1538 534.214 18.0959C535.803 16.2444 536.165 10.82 536.107 8.3899C536.006 5.01956 536.136 0.361822 538.188 1.14293C540.239 1.92404 538.361 3.80449 539.95 11.2395L540.716 11.3408C540.861 11.876 542.277 6.82768 542.609 2.08316C542.855 -1.17147 544.979 0.0291264 545.456 1.05614C545.932 2.08316 545.21 5.32332 545.065 7.69558C544.95 9.2578 544.82 10.8779 544.748 11.8326L545.643 12.3244C548.88 6.66857 547.782 4.32524 549.675 4.20952C551.553 4.0938 550.874 8.86725 549.863 10.6754C549.429 11.4565 549.01 13.1055 548.678 14.7111C552.001 10.8779 551.625 8.86725 553.157 9.11316C554.732 9.37353 553.316 13.1778 552.16 14.4941L552.174 14.5375Z" fill="#FFD2A9"/>
<path d="M537.826 23.3901C536.699 20.2946 532.697 18.877 532.191 18.7179C532.914 18.8191 533.651 18.66 534.098 18.2261C538.029 19.9908 537.826 23.3901 537.826 23.3901Z" fill="#FFD2A9"/>
<path d="M468.152 434.153C468.152 434.153 465.927 429.611 467.907 427.673C469.886 425.72 472.213 429.336 475.594 428.541C478.975 427.731 479.755 425.329 480.636 428.613C481.518 431.897 480.449 442.196 468.152 434.168V434.153Z" fill="#EDF0F5"/>
<path d="M480.868 433.951C480.868 433.951 471.794 437.176 467.083 433.951L468.283 437.885C468.283 437.885 478.151 438.927 479.509 436.439L480.868 433.951Z" fill="#D0E4FF"/>
<path d="M480.752 438.84C480.752 438.84 472.444 437.683 468.427 439.751V441.704C468.427 441.704 479.264 439.172 482.775 441.704L480.752 438.84Z" fill="#D0E4FF"/>
<path d="M468.022 445.754C468.022 445.754 469.641 441.82 474.698 441.545C479.755 441.256 483.165 444.047 483.165 444.047C483.165 444.047 475.146 440.735 468.022 445.754Z" fill="#D0E4FF"/>
<path d="M682 391.105C666.034 412.427 644.317 416.535 644.317 416.535C638.017 411.486 637.858 405.512 637.858 405.512C637.858 405.512 631.775 400.088 630.98 397.484C630.171 394.881 636.196 387.04 639.809 387.851C642.294 388.4 643.739 390.382 644.403 391.554C641.427 384.827 643.811 382.484 648.045 383.063C652.452 383.656 648.29 384.697 651.44 388.256C651.671 388.516 651.917 388.718 652.191 388.921C652.769 389.326 653.463 389.601 654.243 389.745C654.937 389.876 655.703 389.905 656.512 389.861C656.931 389.847 657.364 389.803 657.798 389.731C658.621 389.601 659.445 389.398 660.312 389.123C661.641 388.704 663.028 388.111 664.372 387.373C669.892 384.35 672.218 383.323 676.423 384.408C680.613 385.464 680.541 388.646 680.541 388.646L682.015 391.134L682 391.105Z" fill="#EDF0F5"/>
<path d="M682 391.105C666.034 412.426 644.317 416.534 644.317 416.534C655.399 411.761 665.586 405.512 672.55 397.831C679.5 390.136 682 391.119 682 391.119V391.105Z" fill="#D0E4FF"/>
<path d="M652.177 388.906C652.755 389.311 653.449 389.586 654.229 389.731C650.01 390.584 649.706 394.36 649.706 394.36L647.915 393.781C648.305 389.253 651.874 388.935 652.177 388.921V388.906Z" fill="#D0E4FF"/>
<path d="M655.024 394.808L653.145 394.866C652.437 392.205 653.347 390.613 654.229 389.731C654.922 389.861 655.688 389.89 656.497 389.847C654.272 392.045 655.024 394.808 655.024 394.808Z" fill="#D0E4FF"/>
<path d="M659.662 393.781L657.798 394.027C657.075 392.132 657.278 390.715 657.783 389.716C658.607 389.586 659.431 389.384 660.298 389.109C658.752 391.409 659.662 393.781 659.662 393.781Z" fill="#D0E4FF"/>
<path d="M481.041 195.726C481.041 195.726 485.159 217.988 476.837 226.855C468.514 235.722 474.019 228.432 476.504 217.004C478.989 205.577 477.097 193.527 481.056 195.726H481.041Z" fill="#6F96D1"/>
<path d="M519.476 185.803C519.476 185.803 532.61 190.128 539.473 202.265C539.473 202.265 530.298 182.491 519.476 185.803Z" fill="#6F96D1"/>
<path d="M178.707 20.5836C180.455 20.6125 185.527 22.6376 185.527 22.6376C189.255 24.9375 191.321 26.1815 193.792 26.384C196.263 26.601 197.26 30.8393 197.26 30.8393C197.26 30.8393 206.97 32.9656 207.519 26.8325C207.519 26.8325 202.086 19.1371 201.71 18.0956C200.944 16.0271 202.346 12.9316 200.164 9.44552C197.968 5.95945 196.927 0.535069 196.927 0.535069C196.927 0.535069 194.775 -0.144787 194.529 1.98157C194.298 4.13686 195.887 7.07326 195.497 7.99902C195.41 8.18706 195.324 8.36064 195.208 8.51976C195.208 8.51976 195.208 8.51976 195.194 8.56315C194.775 9.15622 194.168 9.60463 193.546 9.64803C193.517 9.64803 193.46 9.67696 193.402 9.66249C190.974 9.60463 186.697 6.23428 184.949 4.55634C182.522 2.22748 178.982 -0.810178 178.187 1.24385C177.392 3.29789 180.036 3.1677 184.487 9.3298L184.039 9.96626C184.328 10.4291 179.646 8.08581 175.918 5.16387C173.346 3.15324 172.797 5.53996 173.245 6.58144C173.679 7.62293 176.569 9.27194 178.418 10.7474C179.646 11.7165 180.932 12.7001 181.698 13.2932L181.467 14.2913C175.109 12.9027 174.112 10.5015 172.754 11.8322C171.41 13.1486 175.398 15.8535 177.421 16.3164C178.288 16.5189 179.791 17.3145 181.207 18.139C176.135 18.0233 174.893 16.4032 174.054 17.6906C173.188 19.0358 176.959 20.5402 178.707 20.5691V20.5836Z" fill="#FFD2A9"/>
<path d="M194.89 15.8823C193.344 12.9748 194.991 9.04033 195.208 8.56299C194.789 9.15605 194.182 9.60447 193.561 9.64786C192.232 13.7559 194.89 15.8823 194.89 15.8823Z" fill="#FFD2A9"/>
<path d="M464.598 20.5836C462.85 20.6125 457.778 22.6376 457.778 22.6376C454.05 24.9375 451.984 26.1815 449.513 26.384C447.042 26.601 446.045 30.8393 446.045 30.8393C446.045 30.8393 436.335 32.9656 435.786 26.8325C435.786 26.8325 441.219 19.1371 441.595 18.0956C442.361 16.0271 440.959 12.9316 443.141 9.44552C445.337 5.95945 446.378 0.535069 446.378 0.535069C446.378 0.535069 448.531 -0.144787 448.776 1.98157C449.007 4.13686 447.418 7.07326 447.808 7.99902C447.895 8.18706 447.981 8.36064 448.097 8.51976C448.097 8.51976 448.097 8.51976 448.112 8.56315C448.531 9.15622 449.137 9.60463 449.759 9.64803C449.788 9.64803 449.845 9.67696 449.903 9.66249C452.331 9.60463 456.608 6.23428 458.356 4.55634C460.783 2.22748 464.323 -0.810178 465.118 1.24385C465.913 3.29789 463.269 3.1677 458.818 9.3298L459.266 9.96626C458.977 10.4291 463.659 8.08581 467.387 5.16387C469.959 3.15324 470.508 5.53996 470.06 6.58144C469.626 7.62293 466.736 9.27194 464.887 10.7474C463.659 11.7165 462.373 12.7001 461.607 13.2932L461.838 14.2913C468.196 12.9027 469.193 10.5015 470.551 11.8322C471.895 13.1486 467.907 15.8535 465.884 16.3164C465.017 16.5189 463.514 17.3145 462.098 18.139C467.17 18.0233 468.413 16.4032 469.251 17.6906C470.118 19.0358 466.346 20.5402 464.598 20.5691V20.5836Z" fill="#FFD2A9"/>
<path d="M448.415 15.8823C449.961 12.9748 448.314 9.04033 448.097 8.56299C448.516 9.15605 449.123 9.60447 449.744 9.64786C451.073 13.7559 448.415 15.8823 448.415 15.8823Z" fill="#FFD2A9"/>
<path d="M379.204 315.453L360.535 199.747L323.155 203.927L285.775 199.747L267.107 315.453L258.149 427.672C258.149 427.672 260.995 436.973 279.649 430.551C279.649 430.551 293.477 326.461 295.615 324.175C297.754 321.89 319.717 253.89 319.717 253.89H326.594C326.594 253.89 348.557 321.875 350.696 324.175C352.834 326.461 366.662 430.551 366.662 430.551C385.301 436.973 388.162 427.672 388.162 427.672L379.204 315.453Z" fill="#091F5B"/>
<path d="M311.379 87.687C313.735 89.9869 325.352 94.1384 331.493 87.687L335.654 91.7806C335.654 91.7806 330.915 102.948 322.592 103.338C314.269 103.729 308.258 93.4007 308.258 93.4007L311.394 87.687H311.379Z" fill="#091F5B"/>
<path d="M344.28 86.4284C358.18 80.4399 403.103 64.5139 403.103 64.5139C403.103 64.5139 433.301 26.6445 439.457 21.0176C439.457 21.0176 446.147 22.2182 448.097 30.55C448.097 30.55 428.649 72.2237 418.086 84.1574C407.524 96.091 353.99 121.897 353.99 121.897L344.294 86.4284H344.28Z" fill="#091F5B"/>
<path d="M295.615 85.5748C299.748 82.9566 320.511 96.8575 320.511 96.8575C320.511 96.8575 347.502 82.5082 353.845 85.2855C353.845 85.2855 359.553 92.9375 361.85 112.595C364.147 132.253 364.292 213.185 364.292 213.185C364.292 213.185 346.144 219.608 321.595 219.608C293.607 219.608 278.551 211.58 278.551 211.58C278.551 211.58 273.551 99.5335 295.615 85.5748Z" fill="#F2F1DF"/>
<path d="M312.477 83.4629C312.477 83.4629 315.468 92.8796 312.477 96.5103C312.477 96.5103 315.584 103.034 321.161 103.323C327.606 103.656 329.845 96.5103 329.845 96.5103C329.845 96.5103 326.435 87.4118 329.845 84.2151L312.477 83.4629Z" fill="#FFC08D"/>
<path d="M305.022 74.2052C305.022 74.2052 298.736 62.0835 299.979 49.1229C301.221 36.1622 320.728 33.1969 333.862 39.5615C333.862 39.5615 329.961 35.7428 331.492 34.6868C333.024 33.6309 335.654 40.415 335.654 40.415C335.654 40.415 339.801 39.142 340.436 40.415C341.072 41.6879 336.188 42.3822 336.188 42.3822C336.188 42.3822 344.67 47.0833 336.752 72.1512L305.036 74.2052H305.022Z" fill="black"/>
<path d="M304.082 66.5245C304.082 66.5245 299.386 61.8379 298.808 67.3201C298.144 73.6702 303.895 76.2305 305.022 74.2054C306.149 72.1803 304.068 66.5245 304.068 66.5245H304.082Z" fill="#FFD2A9"/>
<path d="M336.94 66.857C336.94 66.857 341.636 62.1704 342.214 67.6526C342.878 74.0028 337.127 76.5631 336 74.538C334.873 72.5129 336.954 66.857 336.954 66.857H336.94Z" fill="#FFD2A9"/>
<path d="M320.02 89.5237C309.616 89.5237 303.736 82.7107 303.736 62.3006C303.736 51.7701 309.082 45.3042 320.742 45.3042C332.403 45.3042 337.315 51.7701 337.315 62.3006C337.315 84.244 330.77 89.5237 320.02 89.5237Z" fill="#FFD2A9"/>
<path d="M333.862 69.5764C334.05 70.6178 333.125 71.6593 331.825 71.8908C330.524 72.1222 329.31 71.4568 329.123 70.4009C328.935 69.3594 329.86 68.3179 331.16 68.0865C332.475 67.855 333.674 68.5204 333.862 69.5764Z" fill="#FFB68D"/>
<path d="M312.448 70.1407C312.376 71.1967 311.249 71.9922 309.92 71.9054C308.591 71.8187 307.579 70.8929 307.651 69.8225C307.724 68.7665 308.851 67.971 310.18 68.0577C311.509 68.1445 312.521 69.0703 312.448 70.1407Z" fill="#FFB68D"/>
<path d="M329.108 58.9737C328.964 58.9737 328.834 58.9158 328.733 58.8145C327.288 57.2957 324.759 57.368 324.73 57.368C324.456 57.368 324.21 57.1511 324.196 56.8618C324.196 56.5725 324.412 56.341 324.701 56.3266C324.817 56.3266 327.736 56.2542 329.498 58.1057C329.701 58.3083 329.686 58.641 329.484 58.8435C329.383 58.9447 329.253 58.9881 329.123 58.9881L329.108 58.9737Z" fill="black"/>
<path d="M309.501 58.9735C309.371 58.9735 309.241 58.9301 309.14 58.8288C308.937 58.6263 308.923 58.3081 309.125 58.0911C310.888 56.2396 313.807 56.3119 313.922 56.3119C314.211 56.3119 314.428 56.5578 314.428 56.8471C314.428 57.1364 314.168 57.3534 313.893 57.3534C313.879 57.3534 311.321 57.2955 309.891 58.7999C309.79 58.9011 309.645 58.959 309.515 58.959L309.501 58.9735Z" fill="black"/>
<path d="M328.198 64.5137C328.198 65.8011 327.62 66.8571 326.898 66.8571C326.175 66.8571 325.597 65.8011 325.597 64.5137C325.597 63.2264 326.175 62.1704 326.898 62.1704C327.62 62.1704 328.198 63.2264 328.198 64.5137Z" fill="black"/>
<path d="M314.298 64.5137C314.298 65.8011 313.72 66.8571 312.997 66.8571C312.275 66.8571 311.697 65.8011 311.697 64.5137C311.697 63.2264 312.275 62.1704 312.997 62.1704C313.72 62.1704 314.298 63.2264 314.298 64.5137Z" fill="black"/>
<path d="M314.298 78.3568C314.298 78.3568 323.473 79.543 328.198 77.272C328.198 77.272 325.525 83.5353 320.511 82.9712C315.497 82.4071 314.298 78.3568 314.298 78.3568Z" fill="black"/>
<path d="M336.232 69.1712C336.232 69.1712 335.914 57.8306 331.492 49.1227C331.492 49.1227 323.719 52.7245 322.014 51.8711C320.309 51.0176 323.647 49.1227 323.647 49.1227C323.647 49.1227 310.83 53.361 310.05 52.5075C309.284 51.6541 314.298 49.1227 314.298 49.1227L306.308 51.8711C306.308 51.8711 303.851 62.0689 304.863 69.1712C304.863 69.1712 301.424 63.2406 301.005 59.147C300.586 55.0534 302.377 43.3801 314.414 42.5267C326.45 41.6732 333.197 44.4071 336.188 49.9472C339.165 55.4728 338.804 62.2859 336.232 69.1712Z" fill="black"/>
<path d="M321.826 75.0875C320.814 75.0875 319.789 74.8271 319.471 74.7404L319.76 73.6699C320.858 73.9737 322.563 74.1473 322.938 73.7133C323.069 73.5542 323.011 73.2071 322.794 72.7442C321.291 69.5474 320.973 61.4325 320.959 61.0854L322.072 61.042C322.072 61.1288 322.389 69.2726 323.791 72.2668C324.224 73.1781 324.21 73.9159 323.791 74.4221C323.372 74.9284 322.592 75.0875 321.826 75.0875Z" fill="black"/>
<path d="M333.342 90.6811C333.342 90.6811 352.184 149.236 353.975 196.883C353.975 196.883 360.781 198.764 368.439 188.32C376.097 177.876 371.546 95.1942 356.865 81.4235C356.865 81.4235 350.204 79.9047 333.342 90.6811Z" fill="#344EAD"/>
<path d="M336.42 100.922C336.42 100.922 339.786 93.0821 338.298 87.7011C336.81 82.3201 331.507 87.7011 331.507 87.7011C331.507 87.7011 333.645 96.5103 336.434 100.922H336.42Z" fill="#0C476B"/>
<path d="M298.592 86.4281C284.692 80.4396 239.769 64.5136 239.769 64.5136C239.769 64.5136 209.498 25.5304 203.343 19.918C203.343 19.918 195.728 24.2285 195.208 33.1679C195.208 33.1679 214.223 72.2379 224.8 84.1716C235.377 96.1052 288.896 121.911 288.896 121.911L298.592 86.4426V86.4281Z" fill="#091F5B"/>
<path d="M309.53 90.6811C309.53 90.6811 290.688 149.236 288.896 196.883C288.896 196.883 282.091 198.764 274.433 188.32C266.775 177.876 271.326 95.1942 286.007 81.4235C286.007 81.4235 292.668 79.9047 309.53 90.6811Z" fill="#344EAD"/>
<path d="M306.467 100.922C306.467 100.922 303.1 93.0821 304.588 87.7011C306.076 82.3201 311.379 87.7011 311.379 87.7011C311.379 87.7011 309.241 96.5103 306.452 100.922H306.467Z" fill="#091F5B"/>
<path d="M404.793 457.847H367.384C364.769 442.962 368.945 428.049 368.945 428.049L386.052 425.112C387.613 434.529 389.491 438.232 392.078 440.141H392.092C393.985 441.516 396.254 441.978 399.071 442.948C402.293 444.076 403.998 446.115 404.851 448.329C406.541 452.726 404.807 457.832 404.807 457.832L404.793 457.847Z" fill="#344EAD"/>
<path d="M404.836 448.343C395.618 449.5 375.345 451.467 376.588 446.13C377.614 441.66 386.168 440.46 392.063 440.156H392.078C393.97 441.53 396.239 441.993 399.057 442.962C402.279 444.09 403.984 446.13 404.836 448.343Z" fill="#F2F1DF"/>
<path d="M279.504 457.846H242.095C242.095 457.846 240.911 454.346 241.46 450.628C241.908 447.605 243.511 444.452 247.832 442.947C251.068 441.819 253.554 441.4 255.591 439.49C257.802 437.407 259.463 433.545 260.85 425.098L277.958 428.034C277.958 428.034 282.12 442.933 279.519 457.832L279.504 457.846Z" fill="#344EAD"/>
<path d="M241.445 450.628C241.893 447.605 243.497 444.452 247.817 442.947C251.054 441.819 253.539 441.4 255.577 439.49C260.316 440.951 266.934 443.627 268.985 447.692C271.846 453.261 249.97 452.379 241.445 450.614V450.628Z" fill="#F2F1DF"/>
<path d="M547.782 455.026C547.782 456.602 547.623 457.702 547.623 457.702H502.18C502.18 456.805 502.195 455.908 502.238 455.026C502.758 443.121 506.501 432.793 506.501 432.793L517.858 427.904C518.84 433.762 521.354 437.509 524.519 439.953C525.357 440.619 526.224 441.154 527.12 441.617C527.539 441.848 527.958 442.051 528.391 442.239C529.345 442.673 530.313 443.02 531.295 443.309C535.312 444.524 539.358 444.784 542.205 445.218C547.045 445.971 547.782 451.583 547.782 454.997V455.026Z" fill="#091F5B"/>
<path d="M547.782 455.026C547.782 456.603 547.623 457.702 547.623 457.702H502.18C502.18 456.805 502.195 455.908 502.238 455.026H547.782Z" fill="#BAD6EB"/>
<path d="M527.12 441.631L520.82 443.656L519.49 441.342L524.533 439.968C525.371 440.633 526.238 441.168 527.134 441.631H527.12Z" fill="#BAD6EB"/>
<path d="M531.281 443.338L527.033 446.159L524.418 445.131L528.377 442.253C529.33 442.687 530.299 443.034 531.281 443.323V443.338Z" fill="#BAD6EB"/>
<path d="M374.132 455.026C374.016 456.573 373.612 457.702 373.612 457.702H343.341C342.951 456.819 342.676 455.937 342.488 455.026C339.512 440.517 359.625 422.783 359.625 422.783L366.012 431.318C366.012 431.318 365.275 444.973 370.679 447.808C373.915 449.515 374.334 452.726 374.132 455.04V455.026Z" fill="#091F5B"/>
<path d="M342.503 455.026H374.132C374.016 456.574 373.612 457.702 373.612 457.702H343.341C342.951 456.82 342.676 455.937 342.488 455.026H342.503Z" fill="#BAD6EB"/>
<path d="M369.306 446.708C369.306 446.708 356.547 443.801 350.739 447.562V445.45C350.739 445.45 361.46 440.228 369.306 446.694V446.708Z" fill="#BAD6EB"/>
<path d="M366.777 443.468C366.777 443.468 358.628 439.736 350.739 443.468L351.635 441.342C351.635 441.342 361.07 437.769 366.777 443.468Z" fill="#BAD6EB"/>
<path d="M534.07 326.099C534.084 338.293 523.276 437.668 523.276 437.668C512.468 438.738 503.799 436.569 503.799 436.569C500.837 386.201 500.548 342.893 500.548 342.893L448.733 304.011L448.603 303.91C448.603 303.91 448.415 304.792 448.054 306.369C445.482 317.767 434.631 365.531 430.108 376.466C424.964 388.935 368.656 441.342 368.656 441.342C358.195 439.895 349.323 432.316 349.323 432.316C369.537 398.757 397.092 365.082 397.092 365.082C399.245 352.99 400.776 326.085 401.701 305.978C401.715 305.675 401.73 305.356 401.744 305.053C402.351 291.441 402.655 281.156 402.655 281.156L393.161 261.658L453.501 239.468L467.026 256.797C467.026 256.797 470.118 259.676 475.001 264.261C475.233 264.464 475.449 264.681 475.681 264.883C493.785 281.981 534.084 320.631 534.084 326.085L534.07 326.099Z" fill="#6F96D1"/>
<path d="M401.687 305.993C401.701 305.689 401.715 305.371 401.73 305.067C414.431 298.167 412.307 287.145 412.263 287.029L413.044 286.87C413.072 286.986 415.355 298.818 401.672 305.993H401.687Z" fill="#606060"/>
<path d="M447.794 296.229C448.227 298.644 448.545 301.234 448.718 304.011L448.588 303.91C448.588 303.91 448.401 304.792 448.039 306.369C447.476 287.477 439.702 276.325 439.601 276.195L440.266 275.732C440.352 275.833 445.251 282.921 447.635 295.303C456.81 287.145 447.823 270.423 447.736 270.264L448.444 269.874C448.545 270.047 458.053 287.752 447.808 296.214L447.794 296.229Z" fill="#606060"/>
<path d="M475.652 264.898C475.652 264.898 475.608 264.912 475.594 264.927C475.218 265.071 474.785 265.129 474.337 265.129C469.887 265.129 462.431 258.895 462.084 258.591L462.619 257.983C465.046 260.037 471.794 264.97 474.987 264.261C475.218 264.464 475.435 264.681 475.666 264.883L475.652 264.898Z" fill="#606060"/>
<path d="M397.366 157.712C397.366 157.712 415.717 154.761 424.921 160.619C434.125 166.478 446.19 181.811 446.19 181.811C446.19 181.811 431.856 183.706 430.238 193.455C430.238 193.455 419.82 168.633 397.381 157.712H397.366Z" fill="#BAD6EB"/>
<path d="M369.768 167.288C362.009 171.483 349.034 187.264 348.441 196.97C347.863 206.43 354.871 215.138 359.596 222.53C374.32 245.616 389.838 266.011 396.427 293.09C396.47 293.263 430.108 306.629 469.597 259.112C469.597 259.112 447.288 229.053 439.572 203.465C436.437 193.05 433.243 181.984 427.218 172.813C420.586 162.702 409.214 156.757 397.381 157.712C387.367 158.522 377.426 163.151 369.768 167.288Z" fill="#EDF0F5"/>
<path d="M366.503 157.611C366.503 157.611 371.473 166.102 369.176 170.774C369.176 170.774 386.211 176.661 386.211 167.114C386.211 167.114 383.004 159.954 384.203 155.34L366.488 157.611H366.503Z" fill="#FFC08D"/>
<path d="M404.374 215.774C404.374 215.774 394.895 218.465 392.511 221.835C390.113 225.191 387.989 232.727 387.989 232.727H404.374L407.452 227.057L411.064 219.492L404.374 215.789V215.774Z" fill="#FFC08D"/>
<path d="M388.697 148.136C388.697 148.136 395.358 145.344 391.052 125.31C388.205 112.031 384.087 110.05 381.443 109.934C381.443 109.934 378.192 105.03 366.922 107.374C359.206 108.979 353.051 113.666 350.334 122.359C347.502 131.414 353.166 150.841 360.622 152.779L388.711 148.136H388.697Z" fill="#6F96D1"/>
<path d="M390.272 134.597C390.272 134.597 394.462 128.753 396.051 134.51C397.886 141.178 392.179 144.939 390.618 142.972C389.058 141.005 390.272 134.597 390.272 134.597Z" fill="#FFD2A9"/>
<path d="M355.189 140.759C355.189 140.759 349.337 136.579 349.698 142.538C350.103 149.452 356.721 151.159 357.559 148.801C358.411 146.444 355.189 140.759 355.189 140.759Z" fill="#FFD2A9"/>
<path d="M377.282 162.008C388.422 160.171 393.508 151.854 389.91 130.012C388.061 118.743 381.183 112.784 368.714 114.838C356.244 116.892 352.126 124.674 353.975 135.942C357.848 159.419 365.78 163.918 377.282 162.008Z" fill="#FFD2A9"/>
<path d="M358.946 143.117C358.946 144.274 360.102 145.214 361.532 145.229C362.977 145.229 364.147 144.317 364.162 143.16C364.162 142.003 363.02 141.063 361.576 141.048C360.131 141.048 358.96 141.96 358.946 143.117Z" fill="#FFB68D"/>
<path d="M381.963 139.949C382.223 141.077 383.567 141.714 384.969 141.396C386.37 141.063 387.295 139.891 387.035 138.777C386.775 137.649 385.431 137.013 384.015 137.331C382.613 137.664 381.689 138.835 381.949 139.949H381.963Z" fill="#FFB68D"/>
<path d="M362.081 130.952C361.966 130.952 361.865 130.923 361.763 130.85C361.503 130.677 361.446 130.33 361.619 130.069C363.179 127.784 366.3 127.35 366.43 127.321C366.763 127.278 367.023 127.495 367.066 127.813C367.11 128.117 366.893 128.406 366.589 128.449C366.561 128.449 363.83 128.84 362.558 130.706C362.442 130.865 362.269 130.952 362.096 130.952H362.081Z" fill="black"/>
<path d="M383.047 127.495C382.932 127.495 382.816 127.451 382.7 127.379C380.894 126.019 378.192 126.526 378.163 126.54C377.86 126.612 377.556 126.395 377.499 126.092C377.441 125.788 377.643 125.484 377.947 125.426C378.077 125.397 381.183 124.804 383.379 126.482C383.625 126.67 383.683 127.017 383.495 127.278C383.379 127.422 383.22 127.509 383.047 127.509V127.495Z" fill="black"/>
<path d="M364.119 136.709C364.35 138.098 365.159 139.11 365.925 138.98C366.691 138.85 367.124 137.635 366.907 136.246C366.676 134.858 365.867 133.845 365.101 133.975C364.335 134.105 363.902 135.32 364.119 136.709Z" fill="black"/>
<path d="M378.987 134.25C379.218 135.638 380.027 136.651 380.793 136.521C381.559 136.39 381.992 135.175 381.776 133.787C381.544 132.398 380.735 131.385 379.969 131.516C379.204 131.646 378.77 132.861 378.987 134.25Z" fill="black"/>
<path d="M383.163 146.82C383.163 146.82 373.496 149.409 368.15 148.382C368.15 148.382 371.849 153.054 377.137 151.709C382.426 150.364 383.163 146.82 383.163 146.82Z" fill="black"/>
<path d="M383.61 119.872C383.61 119.872 371.04 128.985 355.261 129.679L355.709 143.739C355.709 143.739 341 116.617 370.086 111.8C399.172 106.998 390.705 137.302 390.705 137.302C390.705 137.302 389.809 124.24 383.61 119.872Z" fill="#6F96D1"/>
<path d="M373.337 143.045L373.25 141.83C373.25 141.83 374.941 141.699 375.374 140.658C375.548 140.224 374.84 138.864 374.204 137.664C373.323 135.986 372.239 133.903 371.777 131.603L372.976 131.357C373.409 133.498 374.45 135.494 375.288 137.1C376.227 138.879 376.892 140.181 376.502 141.135C375.779 142.871 373.424 143.045 373.323 143.045H373.337Z" fill="black"/>
<path d="M390.431 119.9C369.291 110.715 349.337 129.766 349.337 129.766C349.337 129.766 347.011 114.331 351.086 110.715C352.14 109.76 353.282 108.936 354.467 108.198C363.801 102.311 376.213 102.412 381.92 104.437C383.09 104.857 383.986 105.349 384.506 105.884C387.873 109.384 390.445 119.9 390.445 119.9H390.431Z" fill="#091F5B"/>
<path d="M387.873 116.472C387.873 116.472 370.115 112.957 353.556 123.922C353.556 123.922 352.502 113.97 354.467 108.198C363.801 102.311 376.213 102.412 381.92 104.437C385.243 108.227 387.873 116.472 387.873 116.472Z" fill="#F2F1DF"/>
<path d="M351.085 127.957C351.085 127.957 353.903 115.995 357.689 112.61C364.003 106.997 381.732 105.074 391.037 108.444C400.343 111.814 391.037 122.012 391.037 122.012C391.037 122.012 376.184 111.366 351.071 127.957H351.085Z" fill="#091F5B"/>
<path d="M378.51 207.486C378.51 207.486 385.763 218.74 398.132 225.365C398.132 225.365 413.592 211.927 433.648 213.142C433.648 213.142 417.031 243.157 402.756 246.484C395.257 248.234 368.15 230.254 368.15 230.254C368.15 230.254 373.568 211.146 378.51 207.501V207.486Z" fill="#FFD2A9"/>
<path d="M351.779 187.09C358.426 176.271 373.742 192.269 378.958 203.696C384.174 215.124 387.974 217.554 387.974 217.554C387.974 217.554 372.658 223.962 372.774 235.447C372.774 235.447 337.287 210.726 351.779 187.105V187.09Z" fill="#BAD6EB"/>
<path d="M398.117 220.418C398.117 220.418 407.437 211.261 438.113 199.299L434.154 186.83C437.665 182.201 444.138 182.201 444.138 182.201C444.138 182.201 459.844 204.405 457.142 211.044C455.452 215.181 422.681 219.535 398.117 220.418Z" fill="#FFC08D"/>
<path d="M431.712 202.293C431.712 202.293 431.958 200.977 433.085 199.386C434.212 197.78 433.908 194.873 434.313 193.961C434.717 193.065 437.13 189.362 438.734 188.653C440.338 187.93 442.433 186.758 442.881 188.797C443.329 190.837 440.02 190.258 438.532 193.18C438.532 193.18 441.783 192.124 444.369 192.732C446.956 193.339 447.678 195.712 444.499 195.625C441.956 195.567 438.676 197.375 438.676 197.375C438.676 197.375 442 197.881 441.465 199.4C440.728 201.512 436.682 200.21 431.726 202.279L431.712 202.293Z" fill="#FFD2A9"/>
<path d="M204.918 244.112C207.663 251.142 218.89 263.177 218.89 263.177C218.89 263.177 246.315 246.715 258.972 253.644C271.63 260.573 281.686 264.797 289.893 261.773C298.101 258.75 262.902 194.685 262.902 194.685L217.272 177.254C217.272 177.254 216.275 188.812 211.059 190.866C205.843 192.92 200.28 211.985 200.655 215.601C201.031 219.217 204.904 244.112 204.904 244.112H204.918Z" fill="#0D1242"/>
<path d="M256.256 263.596C256.256 263.596 244.494 286.682 220.205 316.249C220.205 316.249 217.72 351.413 153.479 406.742L146.76 401.448C146.76 401.448 185.007 341.461 192.665 323.062C200.323 304.662 188.431 287.81 223.63 241.291L256.256 263.582V263.596Z" fill="#FFC08D"/>
<path d="M218.804 222.747C208.675 242.174 205.279 266.996 205.279 266.996L200.67 278.64C200.67 278.64 217.026 287.478 235.926 290.689L243.497 270.612L218.804 222.747Z" fill="#BAD6EB"/>
<path d="M271.63 261.788C271.63 261.788 276.644 287.218 275.82 325.492C275.82 325.492 295.586 354.668 279.273 437.914H270.719C270.719 437.914 263.726 367.093 258.38 347.898C253.034 328.703 233.282 322.816 232.212 264.464L271.63 261.788Z" fill="#FFD2A9"/>
<path d="M276.643 289.084C276.643 289.084 260.547 291.977 232.212 290.646L231.764 287.449L231.649 286.625L228.716 265.94C228.716 265.94 225.985 262.569 223.182 257.073C222.849 256.436 222.517 255.771 222.199 255.076C218.384 246.933 214.989 235.1 218.804 222.747L224.785 223.022L225.624 223.065L245.65 223.977L246.503 224.02L253.077 224.324L254.103 224.367L258.365 224.555C258.365 224.555 280.053 244.097 276.181 280.231L276.456 285.265L276.485 286.089L276.643 289.055V289.084Z" fill="#D0E4FF"/>
<path d="M225.623 223.08C225.06 224.729 221.274 237.01 223.182 257.073C222.849 256.436 222.517 255.771 222.199 255.076C220.769 236.72 224.063 225.264 224.785 223.022C224.887 222.747 224.93 222.617 224.93 222.603L225.681 222.877C225.681 222.877 225.652 222.964 225.623 223.065V223.08Z" fill="#FFF9EF"/>
<path d="M276.484 286.104C270.791 287.565 261.125 287.97 251.95 287.97C243.714 287.97 235.911 287.637 231.75 287.435L231.634 286.61C238.83 286.957 257.802 287.71 270.026 286.364L269.245 273.433C269.433 258.346 264.882 245.472 260.489 236.576C249.349 234.551 246.286 226.291 245.636 223.962C245.534 223.586 245.491 223.369 245.491 223.355L246.271 223.225C246.271 223.225 246.329 223.528 246.474 224.006C247.196 226.421 250.173 233.596 260.012 235.65C257.05 229.849 254.233 225.886 253.048 224.309C252.701 223.832 252.47 223.557 252.456 223.543L253.062 223.022C253.062 223.022 253.467 223.499 254.074 224.353C257.802 229.416 270.358 248.437 270.04 273.389L270.82 286.249C272.959 285.988 274.866 285.67 276.441 285.25L276.47 286.075L276.484 286.104Z" fill="#FFF9EF"/>
<path d="M235.507 135.61C229.12 132.095 183.114 150.147 183.114 150.147C183.114 150.147 176.309 162.298 180.557 167.071C184.805 171.83 199.861 169.733 204.47 167.071C209.079 164.41 221.303 162.384 221.303 162.384L235.521 135.595L235.507 135.61Z" fill="#8BBDDB"/>
<path d="M276.181 97.263C276.181 97.263 285.689 100.937 289.157 111.902C292.639 122.866 282.235 150.61 285.833 163.368C289.431 176.126 288.868 200.21 277.655 205.302C266.443 210.394 243.425 201.281 238.483 187.366C233.542 173.45 235.68 120.711 245.173 102.789C254.666 84.852 273.898 93.8926 276.181 97.263Z" fill="#F2F1DF"/>
<path d="M265.272 144.564C267.772 147.268 274.231 142.452 274.231 142.452C274.231 142.452 274.101 166.377 267.151 168.199C260.2 170.036 242.5 149.351 243.237 143.739C243.974 138.127 259.724 138.561 265.272 144.564Z" fill="#8BBDDB"/>
<path d="M238.498 138.589C238.498 138.589 245.52 144.563 257.758 147.399C269.997 150.234 276.629 144.477 282.886 152.375C292.277 164.236 276.99 186.092 268.957 197.419C265.966 201.642 259.637 213.359 258.351 224.584C258.351 224.584 237.111 230.76 218.804 222.747L217.431 196.666C217.431 196.666 205.886 161.516 238.483 138.589H238.498Z" fill="#091F5B"/>
<path d="M260.446 163.961C260.446 163.961 270.141 140.817 272.959 139.342C275.762 137.866 282.9 141.41 284.33 144.578C285.761 147.746 284.33 154.646 284.33 154.646C284.33 154.646 276.672 145.909 260.446 163.961Z" fill="#8BBDDB"/>
<path d="M306.915 261.774C302.508 270.814 291.671 273.418 291.671 273.418C291.671 273.418 290.847 272.16 289.474 269.918C289.33 269.686 289.171 269.44 289.027 269.18C280.502 255.351 254.479 211.103 254.984 188.089C255.577 160.591 273.494 145.504 273.494 145.504C282.597 147.674 285.458 150.162 285.458 150.162C285.458 150.162 288.521 165.798 285.718 184.632C282.915 203.436 277.814 208.412 280.371 209.83C282.929 211.233 280.371 214.039 280.371 214.039C280.371 214.039 295.471 235.1 298.288 241.653C300.123 245.92 303.23 253.181 305.166 257.709C305.296 258.027 305.426 258.345 305.556 258.635C306.38 260.544 306.9 261.788 306.9 261.788L306.915 261.774Z" fill="#344EAD"/>
<path d="M280.704 150.162C280.704 150.162 269.896 158.19 276.196 170.442L306.149 201.498C289.705 219.044 288.073 226.248 276.196 234.334L280.704 241.335C280.704 241.335 322.332 209.309 322.389 201.512C322.418 198.171 296.959 157.814 280.704 150.191V150.162Z" fill="#FFD2A9"/>
<path d="M275.531 234.319C275.531 234.319 269.824 234.956 266.226 235.852C262.628 236.749 257.831 237.646 257.686 238.398C257.542 239.15 265.633 238.398 265.633 238.398C265.633 238.398 259.044 241.103 258.886 242.159C258.741 243.201 267.28 241.407 267.28 241.407C267.28 241.407 261.891 244.705 262.18 245.602C262.483 246.499 269.13 244.257 269.13 244.257C269.13 244.257 267.887 247.41 266.616 248.9C266.616 248.9 267.902 249.609 270.517 246.701C273.132 243.794 277.294 244.734 280.603 242.159C283.897 239.584 278.551 233.928 275.545 234.319H275.531Z" fill="#FFD2A9"/>
<path d="M244.913 142.437C244.913 142.437 236.692 147.76 231.49 160.605C226.303 173.45 209.903 197.636 206.074 203.87C202.23 210.119 204.904 244.112 204.904 244.112C204.904 244.112 200.092 223.499 197.953 215.471C195.815 207.443 204.86 187.597 206.218 186.541C207.577 185.485 214.527 187.409 213.197 179.352C211.868 171.295 230.507 136.579 235.492 135.61C235.492 135.61 243.468 137.114 244.913 142.423V142.437Z" fill="#344EAD"/>
<path d="M219.497 144.173C219.353 144.448 219.194 144.722 219.006 144.983C217.142 147.659 213.674 149.8 213.674 149.8C213.674 149.8 207.403 158.594 207.331 159.607C207.273 160.475 196.436 168.344 191.625 168.185H191.61C190.946 168.17 190.411 167.997 190.021 167.635C187.16 164.93 199.745 142.292 202.519 137.418C202.693 137.099 202.837 136.854 202.938 136.694C202.996 136.564 203.054 136.492 203.054 136.492C203.054 136.492 200.843 128.232 210.076 129.78C217.763 131.053 219.28 137.172 220.089 141.265C220.277 142.249 220.003 143.247 219.497 144.187V144.173Z" fill="#0D1242"/>
<path d="M187.232 152.736C193.575 144.39 215.914 128.189 227.675 123.387L230.623 128.854C230.623 128.854 207.894 148.86 202.548 157.423C197.202 165.986 190.599 169.516 184.27 166.666C177.956 163.816 185.903 154.486 187.232 152.722V152.736Z" fill="#FFD2A9"/>
<path d="M217.272 142.452L216.073 143.826L215.466 144.535L213.472 146.82C213.472 146.82 208.472 152.895 208.66 155.326C208.805 157.076 199.167 164.916 191.625 168.17C188.561 169.501 185.831 170.08 184.241 169.169C178.794 166.015 180.008 156.555 183.1 150.147C185.802 144.564 197.708 137.346 200.785 135.581C201.176 135.335 201.407 135.19 201.493 135.161H201.508L202.649 130.706C202.649 130.706 206.811 128.204 210.076 129.737C210.076 129.737 202.852 130.041 204.051 132.847C205.265 135.668 215.278 142.322 217.286 142.423L217.272 142.452Z" fill="#D0E4FF"/>
<path d="M243.483 119.279C236.215 122.273 237.255 128.854 230.594 128.854C226.476 128.854 225.927 124.139 225.927 124.139C227.791 120.103 228.976 113.232 229.236 109.963C229.51 106.694 230.594 107.952 230.594 107.952C230.594 107.649 230.58 107.359 230.565 107.07C230.464 104.871 230.074 103.266 231.504 104.206C233.137 105.262 233.701 111.496 233.701 111.496C235.044 102.412 233.036 101.053 234.611 101.863C236.764 102.962 236.778 110.99 236.778 111.222C238.512 105.942 238.05 102.919 239.249 104.119C240.463 105.334 238.642 115.04 237.92 118.599C237.761 119.409 237.645 119.901 237.645 119.901C243.41 117.08 243.468 119.279 243.468 119.279H243.483Z" fill="#FFD2A9"/>
<path d="M237.934 118.599C237.775 119.409 237.66 119.9 237.66 119.9C237.66 119.9 235.001 119.64 233.051 122.519C233.051 122.519 233.6 118.671 237.934 118.599Z" fill="#FFC08D"/>
<path d="M231.013 114.462C231.056 113.695 231.389 109.269 230.608 107.938C230.608 107.634 230.594 107.345 230.58 107.056C232.241 107.403 231.186 113.522 231.013 114.462Z" fill="#FFC08D"/>
<path d="M235.521 152.78C235.521 152.78 240.434 139.457 241.994 136.478C243.555 133.498 251.69 134.019 257.86 135.161C264.015 136.319 265.272 144.564 265.272 144.564C265.272 144.564 246.531 135.711 235.521 152.78Z" fill="#8BBDDB"/>
<path d="M267.136 126.555C267.136 126.555 261.255 137.432 261.342 149.496C261.342 149.496 251.791 156.006 248.366 147.847C248.366 147.847 251.993 137.172 250.245 122.779C249.074 113.131 267.136 126.555 267.136 126.555Z" fill="#FFC08D"/>
<path d="M248.381 111.453C248.381 111.453 246.633 105.219 243.526 109.602C239.928 114.679 243.598 119.611 245.52 118.44C247.442 117.268 248.381 111.453 248.381 111.453Z" fill="#FFD2A9"/>
<path d="M276.152 127.495C276.152 127.495 282.38 125.759 280.256 130.692C277.785 136.405 271.673 135.827 271.673 133.57C271.673 131.314 276.152 127.495 276.152 127.495Z" fill="#FFD2A9"/>
<path d="M250.924 138.647C242.067 133.657 240.333 125.05 250.1 107.692C255.143 98.738 262.772 95.8161 272.699 101.4C282.611 106.983 283.695 114.838 278.666 123.791C268.176 142.451 260.085 143.811 250.938 138.647H250.924Z" fill="#FFD2A9"/>
<path d="M272.237 128.334C271.89 129.317 270.618 129.751 269.404 129.317C268.176 128.884 267.468 127.741 267.815 126.757C268.162 125.774 269.433 125.34 270.647 125.774C271.875 126.207 272.583 127.35 272.237 128.334Z" fill="#FFB68D"/>
<path d="M253.756 118.555C253.193 119.423 251.849 119.554 250.765 118.845C249.681 118.136 249.262 116.863 249.826 115.981C250.389 115.113 251.733 114.983 252.817 115.691C253.901 116.4 254.32 117.673 253.756 118.555Z" fill="#FFB68D"/>
<path d="M273.508 117.109C273.277 117.109 273.075 116.95 273.017 116.718C272.511 114.736 270.329 113.579 270.301 113.565C270.055 113.435 269.954 113.131 270.084 112.885C270.214 112.639 270.517 112.538 270.763 112.668C270.864 112.726 273.378 114.057 273.985 116.472C274.057 116.747 273.884 117.022 273.624 117.094C273.581 117.094 273.537 117.109 273.494 117.109H273.508Z" fill="black"/>
<path d="M261.356 108.444C261.27 108.444 261.183 108.415 261.096 108.372C261.082 108.372 258.943 107.085 256.993 107.692C256.718 107.779 256.444 107.62 256.357 107.359C256.27 107.085 256.429 106.81 256.689 106.723C259.073 106 261.515 107.446 261.617 107.519C261.862 107.663 261.934 107.981 261.79 108.213C261.689 108.372 261.53 108.459 261.356 108.459V108.444Z" fill="black"/>
<path d="M269.853 121.318C269.231 122.417 268.234 123.025 267.627 122.692C267.021 122.345 267.021 121.173 267.642 120.074C268.263 118.975 269.26 118.367 269.867 118.7C270.474 119.047 270.474 120.219 269.853 121.318Z" fill="black"/>
<path d="M257.441 114.65C256.819 115.749 255.822 116.356 255.216 116.024C254.609 115.677 254.609 114.505 255.23 113.406C255.851 112.306 256.848 111.699 257.455 112.031C258.062 112.379 258.062 113.55 257.441 114.65Z" fill="black"/>
<path d="M253.135 125.947C253.135 125.947 258.221 129.824 261.891 129.939C261.891 129.939 257.99 133.122 255.187 131.053C252.384 128.985 253.149 125.933 253.149 125.933L253.135 125.947Z" fill="black"/>
<path d="M267.18 119.091C267.18 119.091 269.506 116.834 270.459 117.63C271.413 118.425 270.907 121.203 270.907 121.203L272.945 121.26L271.254 120.581C271.254 120.581 271.803 117.702 270.748 117.095C269.26 116.241 267.165 119.091 267.165 119.091H267.18Z" fill="black"/>
<path d="M258.394 114.577C258.394 114.577 259.117 111.409 257.946 111.004C256.776 110.599 254.666 112.465 254.666 112.465L253.568 110.744L255.028 111.829C255.028 111.829 257.21 109.862 258.264 110.455C259.767 111.294 258.423 114.563 258.423 114.563L258.394 114.577Z" fill="black"/>
<path d="M275.04 105.117C275.04 105.117 271.875 100.705 267.483 104.206C263.105 107.707 253.222 113.319 248.367 111.467C243.512 109.616 259.001 88.8876 272.453 94.9629C285.905 101.038 284.692 120.797 279.1 127.075C273.508 133.353 276.152 127.509 276.152 127.509C276.152 127.509 276.528 118.599 278.392 112.683C280.256 106.781 275.04 105.117 275.04 105.117Z" fill="#F2F1DF"/>
<path d="M260.128 123.922C259.882 123.922 259.622 123.893 259.362 123.821L259.637 122.75C260.547 122.982 260.981 122.591 261.197 122.23C261.501 121.709 261.457 121.043 261.212 120.798C261.067 120.653 260.836 120.667 260.504 120.841L259.998 119.872C261.111 119.293 261.775 119.799 262.007 120.045C262.613 120.682 262.671 121.882 262.137 122.794C261.703 123.531 260.981 123.922 260.128 123.922Z" fill="black"/>
<path d="M324.961 200.254C324.427 208.036 305.181 233.407 301.973 234.304C301.135 234.536 300.282 234.999 299.488 235.534C299.155 235.78 298.808 236.026 298.491 236.286C296.656 237.761 295.283 239.468 295.283 239.468C289.662 239.092 273.898 231.787 278.97 230.182C279.273 230.081 279.606 229.907 279.981 229.647C280.183 229.502 280.415 229.343 280.646 229.126C286.613 224.121 298.23 203.783 298.303 202.235C298.361 200.543 300.369 200.225 300.369 200.225C300.369 200.225 289.416 184.111 283.059 182.172C276.701 180.234 273.494 172.539 273.494 172.539C267.223 145.966 285.457 150.132 285.457 150.132C298.895 158.146 325.482 192.414 324.947 200.225L324.961 200.254Z" fill="#D0E4FF"/>
<path d="M299.488 235.534C299.155 235.78 298.808 236.026 298.491 236.286C289.879 235.693 282.654 231.455 279.981 229.647C280.183 229.502 280.415 229.343 280.646 229.126C283.521 231.006 290.861 235.201 299.502 235.52L299.488 235.534Z" fill="#091F5B"/>
<path d="M219.497 144.173C219.353 144.448 219.194 144.723 219.006 144.983C217.778 144.94 216.593 144.795 215.48 144.549C209.787 143.392 205.409 140.195 202.534 137.418C201.869 136.782 201.306 136.16 200.8 135.61C201.19 135.364 201.421 135.219 201.508 135.19C201.927 135.653 202.404 136.174 202.953 136.695C205.814 139.501 210.25 142.785 216.087 143.841C217.171 144.043 218.312 144.159 219.497 144.173Z" fill="#091F5B"/>
<path d="M305.571 258.635C302.926 263.119 298.028 268.529 289.474 269.932C289.33 269.7 289.171 269.455 289.026 269.194C297.797 267.878 302.666 262.179 305.181 257.709C305.311 258.027 305.441 258.345 305.571 258.635Z" fill="#3E6575"/>
<path d="M159.577 404.76C159.577 404.76 157.568 406.742 155.487 410.358C153.407 413.989 155.69 417.33 145.604 425.749C145.604 425.749 125.245 413.815 116.056 398.482C116.056 398.482 116.215 394.099 120.665 393.072C123.049 392.523 129.638 395.604 135.952 396.804C136.848 396.963 137.744 397.108 138.625 397.18C139.738 397.282 140.822 397.296 141.862 397.166C142.83 397.065 143.74 396.862 144.593 396.5H144.607C146.76 395.618 148.451 393.868 149.347 390.801C149.347 390.801 154.75 393.882 151.138 399.104C151.138 399.104 157.554 396.298 159.577 404.774V404.76Z" fill="#0D1242"/>
<path d="M145.604 425.749C145.604 425.749 125.245 413.815 116.056 398.482C116.056 398.482 119.466 397.759 122.298 402.836C125.115 407.928 147.266 419.471 145.604 425.749Z" fill="#D0E4FF"/>
<path d="M145.676 401.621C144.029 404.239 144.058 399.408 141.862 397.137C142.83 397.036 143.74 396.833 144.593 396.472H144.607C145.59 397.528 146.977 399.567 145.676 401.607V401.621Z" fill="#D0E4FF"/>
<path d="M139.275 401.766C137.527 403.415 136.964 399.104 135.938 396.79C136.834 396.949 137.729 397.093 138.611 397.166C139.637 398.569 140.605 400.507 139.275 401.78V401.766Z" fill="#D0E4FF"/>
<path d="M284.822 457.702H256.025C256.025 457.702 254.825 453.681 256.025 449.269C256.545 447.36 259.521 445.58 262.296 443.092C263.061 442.398 263.798 441.675 264.492 440.865C265.041 440.228 265.532 439.52 265.951 438.767C266.486 437.856 266.905 436.858 267.136 435.759C267.598 433.574 267.425 431 266.168 427.919C266.168 427.919 275.965 425.865 279.461 431.217C279.461 431.217 279.794 428.743 282.915 430.392C282.915 430.392 282.467 435.354 283.074 439.52C283.68 443.657 287.553 444.872 284.807 457.717L284.822 457.702Z" fill="#0D1242"/>
<path d="M277.323 440.344C277.063 440.633 276.716 440.778 276.355 440.778C276.051 440.778 275.762 440.677 275.502 440.489C274.014 439.302 270.719 437.451 265.937 438.753C266.471 437.842 266.89 436.843 267.122 435.744C269.043 435.035 272.67 434.616 277.149 438.449C277.727 438.926 277.814 439.78 277.308 440.344H277.323Z" fill="#D0E4FF"/>
<path d="M274.895 445.132L274.736 445.378C274.346 445.971 273.58 446.159 272.974 445.812C271.023 444.655 266.616 442.471 262.296 443.093C263.061 442.398 263.798 441.675 264.492 440.865C266.63 440.373 270.647 440.098 274.621 443.382C275.141 443.816 275.285 444.568 274.91 445.132H274.895Z" fill="#D0E4FF"/>
</g>
<defs>
<clipPath id="clip0_271_3">
<rect width="682" height="461" fill="white"/>
</clipPath>
</defs>
</svg>
