<svg width="507" height="366" viewBox="0 0 507 366" fill="none" xmlns="http://www.w3.org/2000/svg">
<rect x="1.70435" y="0.5" width="202.523" height="181.651" fill="#F8F9FD" stroke="#E1E3E2"/>
<path d="M188.834 25.287V13.943H186.178V12.471H190.514V25.287H188.834Z" fill="#091F5B"/>
<rect x="1.70435" y="183.151" width="202.523" height="181.651" fill="#F8F9FD" stroke="#E1E3E2"/>
<path d="M188.834 206.721V195.377H186.178V193.905H190.514V206.721H188.834Z" fill="#091F5B"/>
<rect x="204.023" y="0.5" width="202.523" height="181.651" fill="#F8F9FD" stroke="#E1E3E2"/>
<rect x="204.023" y="183.151" width="202.523" height="181.651" fill="#F8F9FD" stroke="#E1E3E2"/>
<rect y="36.5303" width="203.523" height="36.5302" fill="#091F5B"/>
<path d="M58.5388 46.7171H60.3788L66.5588 57.5971L72.7388 46.7171H74.5788V62.7371H72.4788V50.9171L67.3188 60.0371H65.7988L60.6388 50.9171V62.7371H58.5388V46.7171ZM86.432 51.2971H88.572L81.432 67.5971H79.352L81.612 62.4971L76.712 51.2971H78.972L82.652 60.2971L86.432 51.2971ZM101.372 63.0171C98.0318 63.0171 95.6318 60.4571 95.6318 57.0171C95.6318 53.5771 98.0318 51.0171 101.372 51.0171C104.712 51.0171 107.092 53.5771 107.092 57.0171C107.092 57.2771 107.092 57.5771 107.052 57.8571H97.6918C97.9118 59.8171 99.3318 61.2771 101.372 61.2771C102.932 61.2771 104.152 60.5571 104.572 59.6171H106.672C106.052 61.5971 103.992 63.0171 101.372 63.0171ZM105.072 56.1771C104.832 54.1771 103.432 52.7571 101.372 52.7571C99.3118 52.7571 97.9118 54.1971 97.6918 56.1771H105.072ZM117.722 51.2971H119.842L115.002 62.7371H112.822L108.002 51.2971H110.242L113.982 60.3971L117.722 51.2971ZM126.313 63.0171C122.973 63.0171 120.573 60.4571 120.573 57.0171C120.573 53.5771 122.973 51.0171 126.313 51.0171C129.653 51.0171 132.033 53.5771 132.033 57.0171C132.033 57.2771 132.033 57.5771 131.993 57.8571H122.633C122.853 59.8171 124.273 61.2771 126.313 61.2771C127.873 61.2771 129.093 60.5571 129.513 59.6171H131.613C130.993 61.5971 128.933 63.0171 126.313 63.0171ZM130.013 56.1771C129.773 54.1771 128.373 52.7571 126.313 52.7571C124.253 52.7571 122.853 54.1971 122.633 56.1771H130.013ZM134.65 51.2971H136.71V53.0371C137.19 52.1971 138.49 51.0171 140.59 51.0171C143.29 51.0171 145.19 52.9571 145.19 56.0371V62.7371H143.13V56.3971C143.13 54.0771 142.01 52.8171 140.15 52.8171C138.15 52.8171 136.71 54.6971 136.71 56.8171V62.7371H134.65V51.2971ZM153.931 51.2971V53.1171H151.391V62.7371H149.331V53.1171H146.791V51.2971H149.331V47.8171H151.391V51.2971H153.931Z" fill="white"/>
<rect y="217.963" width="203.523" height="36.5302" fill="#091F5B"/>
<path d="M57.6648 227.909H59.5048L65.6848 238.789L71.8648 227.909H73.7048V243.929H71.6048V232.109L66.4448 241.229H64.9248L59.7648 232.109V243.929H57.6648V227.909ZM85.5579 232.489H87.6979L80.5579 248.789H78.4779L80.7379 243.689L75.8379 232.489H78.0979L81.7779 241.489L85.5579 232.489ZM100.498 244.209C97.1578 244.209 94.7578 241.649 94.7578 238.209C94.7578 234.769 97.1578 232.209 100.498 232.209C103.838 232.209 106.218 234.769 106.218 238.209C106.218 238.469 106.218 238.769 106.178 239.049H96.8178C97.0378 241.009 98.4578 242.469 100.498 242.469C102.058 242.469 103.278 241.749 103.698 240.809H105.798C105.178 242.789 103.118 244.209 100.498 244.209ZM104.198 237.369C103.958 235.369 102.558 233.949 100.498 233.949C98.4378 233.949 97.0378 235.389 96.8178 237.369H104.198ZM116.848 232.489H118.968L114.128 243.929H111.948L107.128 232.489H109.368L113.108 241.589L116.848 232.489ZM125.439 244.209C122.099 244.209 119.699 241.649 119.699 238.209C119.699 234.769 122.099 232.209 125.439 232.209C128.779 232.209 131.159 234.769 131.159 238.209C131.159 238.469 131.159 238.769 131.119 239.049H121.759C121.979 241.009 123.399 242.469 125.439 242.469C126.999 242.469 128.219 241.749 128.639 240.809H130.739C130.119 242.789 128.059 244.209 125.439 244.209ZM129.139 237.369C128.899 235.369 127.499 233.949 125.439 233.949C123.379 233.949 121.979 235.389 121.759 237.369H129.139ZM133.776 232.489H135.836V234.229C136.316 233.389 137.616 232.209 139.716 232.209C142.416 232.209 144.316 234.149 144.316 237.229V243.929H142.256V237.589C142.256 235.269 141.136 234.009 139.276 234.009C137.276 234.009 135.836 235.889 135.836 238.009V243.929H133.776V232.489ZM153.057 232.489V234.309H150.517V243.929H148.457V234.309H145.917V232.489H148.457V229.009H150.517V232.489H153.057Z" fill="white"/>
<rect x="217.974" y="10.959" width="275.779" height="194.828" rx="30" fill="#BAD6EB"/>
<path d="M198.706 35.5841L227.608 25.5484V45.6198L198.706 35.5841Z" fill="#BAD6EB"/>
<path d="M257.241 46.0322C256.96 44.1572 255.507 43.0088 253.538 43.0088C250.89 43.0088 249.156 45.0479 249.156 48.6104C249.156 52.2666 250.913 54.2119 253.515 54.2119C255.46 54.2119 256.89 53.1338 257.241 51.3057L260.804 51.3291C260.406 54.4697 257.781 57.3291 253.468 57.3291C248.921 57.3291 245.57 54.1416 245.57 48.6104C245.57 43.0791 248.991 39.8916 253.468 39.8916C257.382 39.8916 260.335 42.1416 260.804 46.0322H257.241ZM263.265 57.0947V40.126H269.921C273.788 40.126 275.991 42.4932 275.991 45.8447C275.991 49.2432 273.741 51.5635 269.827 51.5635H266.781V57.0947H263.265ZM266.781 48.7275H269.265C271.351 48.7275 272.359 47.5557 272.359 45.8447C272.359 44.1572 271.351 43.0088 269.265 43.0088H266.781V48.7275ZM288.718 40.126H292.257V51.1416C292.257 54.8682 289.445 57.3291 285.226 57.3291C281.007 57.3291 278.218 54.8682 278.218 51.1416V40.126H281.734V50.8604C281.734 52.8057 283.116 54.2354 285.226 54.2354C287.359 54.2354 288.718 52.8057 288.718 50.8604V40.126ZM324.882 48.001V50.3447H305.382V48.001H313.679V46.1729H307.749V38.8604H322.538V41.1807H310.726V43.8291H322.656V46.1729H316.609V48.001H324.882ZM315.085 51.4229C319.702 51.4229 322.491 52.8291 322.515 55.3604C322.491 57.8447 319.702 59.2744 315.085 59.2744C310.421 59.2744 307.609 57.8447 307.609 55.3604C307.609 52.8291 310.421 51.4229 315.085 51.4229ZM315.085 53.6963C312.132 53.6963 310.632 54.2588 310.656 55.3604C310.632 56.4854 312.132 57.001 315.085 57.001C317.968 57.001 319.491 56.4854 319.515 55.3604C319.491 54.2588 317.968 53.6963 315.085 53.6963ZM331.866 39.4229C335.124 39.4229 337.468 42.376 337.491 47.0166C337.468 51.7041 335.124 54.6338 331.866 54.6338C328.609 54.6338 326.218 51.7041 326.241 47.0166C326.218 42.376 328.609 39.4229 331.866 39.4229ZM331.866 42.1182C330.226 42.1182 329.124 43.8525 329.124 47.0166C329.124 50.2041 330.226 51.915 331.866 51.915C333.531 51.915 334.609 50.2041 334.632 47.0166C334.609 43.8525 333.531 42.1182 331.866 42.1182ZM342.952 37.9229V45.9619H346.093V48.4463H342.952V59.251H339.952V37.9229H342.952ZM364.749 37.9229V59.2979H361.773V37.9229H364.749ZM358.14 39.7041V47.9307H351.109V51.8447C354.355 51.833 357.12 51.6455 360.249 51.1416L360.507 53.5557C356.991 54.165 353.827 54.3057 349.937 54.3057H348.015V45.5635H355.093V42.1182H347.991V39.7041H358.14ZM384.156 39.6572V41.2744H388.14V37.9463H391.116V53.4619H388.14V48.2354H384.156V50.04H374.031V39.6572H384.156ZM377.007 42.0244V47.7197H381.226V42.0244H377.007ZM391.562 56.4854V58.876H376.913V51.9854H379.937V56.4854H391.562ZM384.156 45.8682H388.14V43.6885H384.156V45.8682ZM411.859 37.9229V49.5947H408.882V45.1416H405.507V42.7041H408.882V37.9229H411.859ZM400.585 50.415V52.4307H408.882V50.415H411.859V59.0166H397.632V50.415H400.585ZM400.585 56.626H408.882V54.7275H400.585V56.626ZM406.187 38.8838V41.3213H401.968C402.085 43.7002 403.609 46.1729 406.843 47.2275L405.366 49.5244C402.999 48.7393 401.37 47.2158 400.445 45.2822C399.507 47.4268 397.808 49.1494 395.288 49.9697L393.765 47.626C397.116 46.5127 398.722 43.9229 398.898 41.3213H394.609V38.8838H406.187Z" fill="black"/>
<rect x="236.038" y="71.8428" width="240.855" height="108.373" rx="20" fill="white"/>
<path d="M251.05 100.28C251.05 102.546 252.749 104.577 255.308 105.417L254.585 106.628C252.583 105.974 251.07 104.587 250.327 102.839C249.575 104.831 247.974 106.384 245.894 107.136L245.113 105.905C247.71 105.026 249.527 102.78 249.546 100.28V99.5381H245.581V98.2686H254.956V99.5381H251.05V100.28ZM258.745 96.9795V101.413H261.363V102.702H258.745V107.468H257.222V96.9795H258.745ZM253.179 107.937C256.753 107.937 258.902 109.108 258.902 111.101C258.902 113.132 256.753 114.304 253.179 114.304C249.605 114.304 247.417 113.132 247.417 111.101C247.417 109.108 249.605 107.937 253.179 107.937ZM253.179 109.167C250.562 109.167 248.941 109.89 248.96 111.101C248.941 112.351 250.562 113.073 253.179 113.073C255.816 113.073 257.417 112.351 257.417 111.101C257.417 109.89 255.816 109.167 253.179 109.167ZM278.355 110.808V112.077H262.456V110.808H269.566V106.55H271.07V110.808H278.355ZM271.109 99.499C271.109 102.409 274.546 104.948 277.573 105.476L276.89 106.745C274.243 106.208 271.45 104.411 270.327 101.901C269.185 104.401 266.411 106.208 263.765 106.745L263.081 105.476C266.109 104.948 269.507 102.409 269.507 99.499V98.1709H271.109V99.499ZM286.597 112.878C285.913 112.878 285.327 112.312 285.347 111.608C285.327 110.925 285.913 110.358 286.597 110.358C287.281 110.358 287.847 110.925 287.847 111.608C287.847 112.312 287.281 112.878 286.597 112.878ZM286.597 105.026C285.913 105.026 285.327 104.46 285.347 103.757C285.327 103.073 285.913 102.507 286.597 102.507C287.281 102.507 287.847 103.073 287.847 103.757C287.847 104.46 287.281 105.026 286.597 105.026ZM296.343 112.761H294.507L299.683 98.6201H301.538L306.714 112.761H304.859L303.452 108.776H297.769L296.343 112.761ZM298.296 107.233H302.906L300.659 100.905H300.542L298.296 107.233ZM310.386 98.6201V112.761H308.628V98.6201H310.386ZM318.531 112.761V98.6201H320.288V111.198H326.851V112.761H318.531ZM330.679 112.761H328.843L334.019 98.6201H335.874L341.05 112.761H339.195L337.788 108.776H332.105L330.679 112.761ZM332.632 107.233H337.241L334.995 100.905H334.878L332.632 107.233ZM342.964 112.761V98.6201H347.925C350.894 98.6201 352.281 100.28 352.281 102.37C352.281 104.187 351.206 105.007 349.976 105.339V105.476C351.284 105.554 352.847 106.765 352.847 109.011C352.847 111.14 351.441 112.761 348.101 112.761H342.964ZM348.081 111.198C350.288 111.198 351.148 110.222 351.148 108.991C351.148 107.546 349.995 106.335 348.179 106.335H344.722V111.198H348.081ZM347.866 104.812C349.39 104.812 350.601 103.874 350.601 102.39C350.601 101.159 349.781 100.183 347.925 100.183H344.722V104.812H347.866ZM368.804 96.9795V105.983H367.3V96.9795H368.804ZM368.823 106.862V111.022H359.077V112.897H369.448V114.147H357.573V109.831H367.3V108.093H357.534V106.862H368.823ZM360.64 98.8154C360.62 101.276 362.495 103.444 365.073 104.284L364.312 105.476C362.281 104.782 360.659 103.327 359.878 101.452C359.097 103.474 357.466 105.065 355.406 105.808L354.605 104.597C357.222 103.679 359.077 101.374 359.077 98.8154V97.4873H360.64V98.8154Z" fill="black"/>
<path d="M251.343 141.831C251.323 144.995 253.491 148.198 256.05 149.35L255.113 150.561C253.14 149.594 251.431 147.553 250.601 145.073C249.79 147.7 248.081 149.887 246.05 150.913L245.073 149.624C247.652 148.432 249.8 145.131 249.82 141.831V138.667H251.343V141.831ZM259.488 137.163V154.565H257.945V137.163H259.488ZM276.031 137.163V142.456H278.648V143.745H276.031V149.877H274.488V137.163H276.031ZM271.343 138.51C271.343 142.983 268.14 146.303 263.14 147.866L262.476 146.635C266.636 145.336 269.351 142.856 269.683 139.799H263.198V138.51H271.343ZM276.831 152.866V154.155H265.152V148.588H266.675V152.866H276.831ZM286.597 153.061C285.913 153.061 285.327 152.495 285.347 151.792C285.327 151.108 285.913 150.542 286.597 150.542C287.281 150.542 287.847 151.108 287.847 151.792C287.847 152.495 287.281 153.061 286.597 153.061ZM286.597 145.209C285.913 145.209 285.327 144.643 285.347 143.94C285.327 143.256 285.913 142.69 286.597 142.69C287.281 142.69 287.847 143.256 287.847 143.94C287.847 144.643 287.281 145.209 286.597 145.209ZM300.366 153.139C297.554 153.139 295.542 151.635 295.445 149.389H297.222C297.32 150.737 298.667 151.577 300.347 151.577C302.202 151.577 303.57 150.561 303.57 149.096C303.57 147.553 302.339 146.459 300.132 146.459H298.98V144.917H300.132C301.851 144.917 303.042 143.959 303.042 142.495C303.042 141.088 302.007 140.131 300.406 140.131C298.902 140.131 297.515 140.971 297.437 142.358H295.738C295.835 140.112 297.906 138.608 300.425 138.608C303.12 138.608 304.761 140.366 304.741 142.397C304.761 143.999 303.823 145.19 302.339 145.6V145.698C304.175 145.991 305.308 147.299 305.288 149.096C305.308 151.42 303.179 153.139 300.366 153.139ZM309.038 153.061C308.355 153.061 307.769 152.495 307.788 151.792C307.769 151.108 308.355 150.542 309.038 150.542C309.722 150.542 310.288 151.108 310.288 151.792C310.288 152.495 309.722 153.061 309.038 153.061ZM309.038 145.209C308.355 145.209 307.769 144.643 307.788 143.94C307.769 143.256 308.355 142.69 309.038 142.69C309.722 142.69 310.288 143.256 310.288 143.94C310.288 144.643 309.722 145.209 309.038 145.209ZM317.534 153.139C314.39 153.139 312.593 150.502 312.593 145.874C312.593 141.284 314.429 138.608 317.534 138.608C320.64 138.608 322.476 141.284 322.476 145.874C322.476 150.502 320.659 153.139 317.534 153.139ZM317.534 151.577C319.566 151.577 320.757 149.526 320.757 145.874C320.757 142.221 319.566 140.131 317.534 140.131C315.503 140.131 314.292 142.221 314.292 145.874C314.292 149.526 315.484 151.577 317.534 151.577ZM329.448 153.139C326.304 153.139 324.507 150.502 324.507 145.874C324.507 141.284 326.343 138.608 329.448 138.608C332.554 138.608 334.39 141.284 334.39 145.874C334.39 150.502 332.573 153.139 329.448 153.139ZM329.448 151.577C331.48 151.577 332.671 149.526 332.671 145.874C332.671 142.221 331.48 140.131 329.448 140.131C327.417 140.131 326.206 142.221 326.206 145.874C326.206 149.526 327.398 151.577 329.448 151.577ZM342.32 147.143C342.945 146.42 343.726 146.03 344.585 146.03C346.07 146.03 347.417 147.163 348.843 147.163C349.722 147.163 350.484 146.733 351.07 145.932V147.553C350.425 148.295 349.663 148.667 348.804 148.667C347.32 148.667 345.972 147.534 344.527 147.534C343.667 147.534 342.906 147.963 342.32 148.764V147.143ZM364.234 153.139C361.773 153.1 359.077 151.655 359.077 146.42C359.077 141.42 361.128 138.608 364.448 138.608C366.929 138.608 368.667 140.131 369.038 142.358H367.3C366.968 141.108 366.031 140.17 364.448 140.17C362.124 140.17 360.738 142.163 360.738 145.561H360.913C361.734 144.389 363.023 143.686 364.546 143.686C367.066 143.686 369.156 145.639 369.156 148.374C369.156 151.03 367.202 153.159 364.234 153.139ZM364.234 151.596C366.07 151.596 367.437 150.151 367.456 148.393C367.437 146.655 366.128 145.229 364.273 145.229C362.417 145.229 360.991 146.733 360.972 148.413C360.972 150.073 362.339 151.596 364.234 151.596ZM372.788 153.061C372.105 153.061 371.519 152.495 371.538 151.792C371.519 151.108 372.105 150.542 372.788 150.542C373.472 150.542 374.038 151.108 374.038 151.792C374.038 152.495 373.472 153.061 372.788 153.061ZM372.788 145.209C372.105 145.209 371.519 144.643 371.538 143.94C371.519 143.256 372.105 142.69 372.788 142.69C373.472 142.69 374.038 143.256 374.038 143.94C374.038 144.643 373.472 145.209 372.788 145.209ZM381.284 153.139C378.14 153.139 376.343 150.502 376.343 145.874C376.343 141.284 378.179 138.608 381.284 138.608C384.39 138.608 386.226 141.284 386.226 145.874C386.226 150.502 384.409 153.139 381.284 153.139ZM381.284 151.577C383.316 151.577 384.507 149.526 384.507 145.874C384.507 142.221 383.316 140.131 381.284 140.131C379.253 140.131 378.042 142.221 378.042 145.874C378.042 149.526 379.234 151.577 381.284 151.577ZM393.198 153.139C390.054 153.139 388.257 150.502 388.257 145.874C388.257 141.284 390.093 138.608 393.198 138.608C396.304 138.608 398.14 141.284 398.14 145.874C398.14 150.502 396.323 153.139 393.198 153.139ZM393.198 151.577C395.23 151.577 396.421 149.526 396.421 145.874C396.421 142.221 395.23 140.131 393.198 140.131C391.167 140.131 389.956 142.221 389.956 145.874C389.956 149.526 391.148 151.577 393.198 151.577Z" fill="black"/>
</svg>
